<svg width="420" height="240" viewBox="0 0 420 240" fill="none" xmlns="http://www.w3.org/2000/svg">
<path d="M342.722 123.551C343.347 120.721 345.105 117.512 348.294 117.194C352.246 116.801 356.211 121.244 358.195 124.184C359.607 126.274 360.468 128.857 359.995 131.335C359.255 135.213 355.134 137.949 351.199 137.627C348.072 137.371 345.279 135.427 343.569 132.855C341.864 130.29 342.074 126.478 342.722 123.551Z" fill="#B75742"/>
<path d="M354.168 137.101L357.306 135.512C357.306 135.512 360.623 143.6 361.033 145.962C361.182 146.82 360.579 155.65 360.329 157.432C360.412 160.87 359.192 161.655 358.537 162.715C358.537 162.715 357.138 163.437 357.082 163.332C357.012 163.203 357.149 163.026 357.365 162.874C357.449 162.817 357.561 162.788 357.651 162.729C357.739 162.67 357.824 162.559 357.902 162.507C358.089 162.38 358.224 162.337 358.224 162.337C358.224 162.337 358.313 162.111 358.452 161.874C358.551 161.703 358.705 161.513 358.727 161.464C358.852 161.165 358.706 161.267 358.706 161.267C358.563 161.501 357.774 162.454 357.774 162.454C357.774 162.454 356.271 163.617 356.249 163.498C356.241 163.441 356.282 163.243 356.524 162.933C356.589 162.849 356.77 162.745 356.86 162.645C356.929 162.57 356.99 162.465 357.078 162.378C357.171 162.283 357.306 162.225 357.4 162.128C357.543 161.983 357.599 161.788 357.69 161.669C358.057 161.191 358.19 160.823 358.037 160.975C357.809 161.204 357.465 162.135 356.42 162.877C356.243 162.998 356.124 163.043 356.106 162.969C356.092 162.912 356.098 162.695 356.23 162.504C356.321 162.373 356.509 162.296 356.631 162.13C356.702 162.033 356.743 161.9 356.815 161.796C357.105 161.379 357.234 161.597 357.504 159.973C357.354 160.039 357.22 160.141 357.157 160.193C357.042 160.292 356.494 161.235 356.295 161.03C356.097 160.823 357.231 158.648 357.231 158.648L358.175 157.415C357.962 149.035 357.706 147.029 357.652 146.96L354.168 137.101Z" fill="#F7A491"/>
<path d="M348.579 164.423L346.562 182.916C346.562 182.916 347.548 186.826 347.429 187.938C347.31 189.049 345.236 203.623 345.236 203.623L345.33 204.424L345.38 206.795L337.629 206.855C337.629 206.855 339.263 206.104 341.548 204.621C341.717 204.511 342.269 204.148 342.364 203.451C342.974 198.959 341.604 183.987 341.604 183.987L340.653 164.483L348.579 164.423Z" fill="#F7A491"/>
<path d="M346 202.089L341.825 201.835C341.825 201.835 341.581 185.111 341.01 181.479C340.44 177.847 340.108 165.716 340.685 161.038C341.181 157.013 343.025 150.551 343.025 150.551L349.485 151.916L350.789 152.254L347.285 182.746C347.285 182.746 347.609 184.805 347.772 186.917C347.935 189.028 346 202.089 346 202.089Z" fill="#B75742"/>
<path d="M354.688 167.828C355.122 167.941 355.791 183.812 356.151 184.516C358.434 188.975 358.976 202.534 358.976 202.534L359.917 204.433L359.701 206.262C359.701 206.262 357.998 207.264 356.803 206.588L356.988 204.756L357.129 202.309L351.371 185.417L348.221 168.186L354.688 167.828Z" fill="#F7A491"/>
<path d="M345.418 207.405H337.416C337.12 207.377 337.048 207.129 337.15 206.976C337.362 206.661 338.922 205.905 339.972 205.404C341.812 205.603 345.038 204.849 345.329 204.411C345.497 205.288 345.582 207.367 345.418 207.405Z" fill="#355389"/>
<path d="M359.913 204.428C359.913 204.428 359.257 205.844 358.489 205.784C357.72 205.724 356.993 204.746 356.993 204.746C356.993 204.746 356.705 206.12 356.839 206.877C356.974 207.634 358.069 208.41 358.818 208.072C359.567 207.733 360.585 205.981 359.913 204.428Z" fill="#355389"/>
<path d="M351.291 148.549C351.291 148.549 351.469 150.027 351.658 150.323C352.165 151.119 353.559 153.62 354.337 155.57C355.038 157.328 355.264 158.769 355.533 160.395C356.374 165.462 356.104 180.92 356.104 180.92C356.104 180.92 357.611 184.256 358.222 188.691C358.834 193.125 359.283 200.463 359.283 200.463L356.167 201.286L349.83 181.596C349.83 181.596 346.816 164.354 345.838 162.073C344.861 159.793 343.021 150.534 343.021 150.534L351.291 148.549Z" fill="#F47458"/>
<path d="M356.087 176.703C356.086 176.706 356.085 176.706 356.084 176.702L356.087 176.703Z" fill="#F47458"/>
<path d="M324.144 116.037C324.214 115.379 326.032 114.85 326.566 114.692C327.101 114.534 326.754 114.662 327.347 114.853C327.42 114.876 329.215 117.614 329.215 117.614C329.782 118.506 334.976 126.445 336.726 127.65C338.513 128.881 345.636 131.028 345.636 131.028L345.961 135.575C345.961 135.575 336.128 132.204 334.024 130.397C332.281 128.901 328.807 121.696 327.15 119.04L327.148 119.041C326.717 118.485 324.073 116.694 324.144 116.037Z" fill="#F7A491"/>
<path d="M349.218 129.7C353.595 129.762 355.277 129.086 358.671 137.071C359.261 138.459 359.598 139.462 359.608 139.486C359.608 139.486 356.621 140.828 355.551 141.259C355.551 141.259 354.5 138.042 354.067 138.415C353.089 139.258 351.439 148.934 351.683 150.255C351.683 150.255 346.711 151.325 343.014 150.55C343.014 150.55 342.455 140.952 342.272 140.521C342.089 140.09 340.969 138.206 341.885 136.072C342.049 135.691 342.457 134.551 342.17 134.472C339.929 133.86 336.548 132.175 336.548 132.175L338.147 128.117C338.147 128.117 343.097 129.245 344.778 129.457C346.242 129.642 347.72 129.681 349.194 129.7C349.202 129.7 349.21 129.7 349.218 129.7Z" fill="#F7CC7F"/>
<path d="M349.049 126.231C349.049 126.231 349.171 129.001 349.523 130.02C349.874 131.04 348.783 134.738 346.575 135.278C344.368 135.817 346.537 130.884 346.5 129.811C346.463 128.739 345.756 125.56 345.756 125.56L349.049 126.231Z" fill="#F7A491"/>
<path d="M346.09 127.16C345.917 126.285 345.756 125.56 345.756 125.56L349.049 126.231C349.049 126.231 349.074 126.798 349.133 127.512C347.899 128.083 346.844 127.828 346.09 127.16Z" fill="#F47458"/>
<path d="M348.386 118.667C348.386 118.667 349.679 119.028 350.425 120.301C351.171 121.574 351.543 125.231 348.797 126.791C346.052 128.352 344.103 125.852 344.186 123.513C344.269 121.174 344.927 118.08 348.386 118.667Z" fill="#F7A491"/>
<path d="M343.614 122.751C343.812 123.326 344.245 123.699 344.581 123.583C344.916 123.467 345.026 122.907 344.828 122.332C344.629 121.756 344.196 121.384 343.861 121.5C343.526 121.615 343.415 122.175 343.614 122.751Z" fill="#F7A491"/>
<path d="M347.997 118.571C347.997 118.571 349.477 122.396 350.925 122.804C352.374 123.211 352.258 125.092 352.258 125.092C352.258 125.092 352.444 120.744 351.12 119.678C349.797 118.612 347.997 118.571 347.997 118.571Z" fill="#B75742"/>
<path d="M350.304 123.551C350.081 124.149 350.227 124.756 350.631 124.907C351.035 125.058 351.544 124.696 351.767 124.098C351.991 123.5 351.845 122.893 351.44 122.742C351.036 122.591 350.528 122.953 350.304 123.551Z" fill="#F7A491"/>
<path d="M316.089 103.939L327.162 117.226L327.172 117.238C327.379 117.486 327.773 117.516 328.053 117.306C328.333 117.096 328.393 116.724 328.186 116.476C328.181 116.47 328.175 116.463 328.17 116.458L316.474 103.644L316.47 103.64C316.387 103.548 316.235 103.543 316.131 103.627C316.031 103.709 316.013 103.847 316.089 103.939Z" fill="#184655"/>
<path d="M325.433 115.071L327.104 117.187L327.115 117.2C327.327 117.468 327.705 117.527 327.986 117.346C327.948 117.406 327.899 117.46 327.84 117.507C327.555 117.732 327.141 117.684 326.916 117.399L326.906 117.385L325.167 115.183C325.254 115.144 325.344 115.107 325.433 115.071Z" fill="#F47458"/>
<path d="M325.493 114.131C325.493 114.131 323.708 115.713 324.157 116.375C324.653 117.107 325.287 117.501 325.321 117.281C325.355 117.061 324.938 115.994 324.938 115.994C324.938 115.994 325.503 115.279 325.613 114.893C325.724 114.506 325.807 114.107 325.493 114.131Z" fill="#F7A491"/>
<path d="M326.328 114.975C326.328 114.975 327.45 115.458 327.514 115.32C327.578 115.181 327.347 114.853 327.347 114.853C327.347 114.853 325.835 113.706 325.78 114.118C325.725 114.529 326.328 114.975 326.328 114.975Z" fill="#F7A491"/>
<path d="M324.342 114.693C324.342 114.693 325.313 113.592 325.351 113.96C325.397 114.403 324.587 115.686 324.19 115.686C323.792 115.686 323.792 115.304 324.342 114.693Z" fill="#F7A491"/>
<path d="M241.212 82.8482C240.168 82.4239 239.755 81.7186 238.633 81.4639C238.556 82.4941 236.455 88.2659 236.271 88.5571C235.526 89.7368 234.343 90.1144 234.343 90.1144C234.343 90.1144 238.392 95.6608 238.802 95.2036C239.212 94.7464 238.674 94.7066 238.707 92.9227C238.71 92.7644 238.049 90.5629 239.223 87.8678C240.229 85.559 240.888 84.2084 241.212 82.8482Z" fill="#F7A491"/>
<path d="M234.168 90.1885L238.842 95.8429C239.034 96.0366 239.245 95.9478 239.289 95.789C239.38 95.4624 238.984 93.9336 238.713 92.9095C237.503 91.721 236.148 89 236.277 88.5479C235.581 88.9237 234.098 90.0511 234.168 90.1885Z" fill="#355389"/>
<path d="M229.799 57.5762L233.661 63.7737C233.661 63.7737 244.009 68.3541 245.885 71.798C247.762 75.2418 239.249 88.6892 239.249 88.6892C239.249 88.6892 238.231 88.4854 237.481 88.1996C236.909 87.982 236.257 87.4379 236.257 87.4379L240.065 74.1371L227.798 68.6387L229.799 57.5762Z" fill="#B75742"/>
<path d="M142.972 138.41L131.625 114.272C124.959 117.406 122.096 125.35 125.229 132.015C128.363 138.681 136.307 141.544 142.972 138.41Z" fill="#B75742"/>
<path d="M133.119 135.864L135.495 127.56L128.021 131.073C129.118 133.228 130.902 134.901 133.119 135.864Z" fill="#F47458"/>
<path d="M136.811 128.321L134.512 136.357C136.495 136.908 138.585 136.862 140.528 136.227L136.811 128.321Z" fill="#F47458"/>
<path d="M135.089 126.12C132.369 124.883 129.971 123.828 127.487 122.913C126.706 125.132 126.696 127.498 127.456 129.708L135.089 126.12Z" fill="#F47458"/>
<path d="M128.073 121.557C130.355 122.401 132.558 123.356 134.995 124.458L131.746 117.547C130.195 118.528 128.922 119.918 128.073 121.557Z" fill="#F47458"/>
<path d="M136.912 132.443C137.223 132.491 137.519 132.237 137.574 131.876C137.63 131.516 137.378 130.486 137.065 130.461C136.752 130.437 136.506 131.343 136.451 131.704C136.395 132.065 136.602 132.396 136.912 132.443Z" fill="#F7CC7F"/>
<path d="M138.801 135.644C139.101 135.552 139.257 135.195 139.15 134.846C139.042 134.497 138.367 133.68 138.075 133.794C137.782 133.908 137.956 134.831 138.063 135.18C138.17 135.529 138.5 135.737 138.801 135.644Z" fill="#F7CC7F"/>
<path d="M131.128 134.626C131.408 134.769 131.769 134.622 131.936 134.297C132.102 133.973 132.189 132.916 131.9 132.794C131.61 132.672 131.09 133.454 130.924 133.779C130.757 134.103 130.849 134.482 131.128 134.626Z" fill="#F7CC7F"/>
<path d="M131.059 131.568C131.179 131.859 131.55 131.98 131.887 131.84C132.224 131.701 132.973 130.951 132.832 130.671C132.69 130.39 131.788 130.651 131.451 130.79C131.114 130.93 130.938 131.278 131.059 131.568Z" fill="#F7CC7F"/>
<path d="M128.527 127.84C128.647 128.13 129.018 128.252 129.355 128.112C129.692 127.972 130.441 127.222 130.3 126.942C130.158 126.662 129.256 126.922 128.919 127.062C128.582 127.202 128.406 127.55 128.527 127.84Z" fill="#F7CC7F"/>
<path d="M131.081 126.273C131.015 126.58 131.251 126.891 131.607 126.968C131.964 127.044 133.007 126.854 133.05 126.543C133.093 126.232 132.203 125.933 131.847 125.856C131.49 125.779 131.147 125.966 131.081 126.273Z" fill="#F7CC7F"/>
<path d="M129.78 120.953C129.602 121.211 129.701 121.589 130.002 121.795C130.302 122.002 131.339 122.224 131.497 121.953C131.656 121.682 130.947 121.066 130.647 120.859C130.346 120.652 129.958 120.694 129.78 120.953Z" fill="#F7CC7F"/>
<path d="M132.029 121.099C131.753 121.247 131.668 121.628 131.84 121.95C132.013 122.272 132.833 122.944 133.098 122.775C133.362 122.607 133.015 121.735 132.842 121.413C132.67 121.091 132.306 120.951 132.029 121.099Z" fill="#F7CC7F"/>
<path d="M208.004 196.591C274.105 196.591 327.69 190.234 327.69 182.393C327.69 174.551 274.105 168.194 208.004 168.194C141.903 168.194 88.3179 174.551 88.3179 182.393C88.3179 190.234 141.903 196.591 208.004 196.591Z" fill="#9BC1F9"/>
<path d="M229.739 178.47C229.739 178.47 244.916 169.028 246.771 165.717C248.626 162.406 246.335 161.606 246.103 159.924C245.807 157.784 246.304 157.05 248.592 155.41C250.88 153.77 255.261 152.519 256.58 149.396C257.898 146.273 255.206 136.842 255.206 136.842L252.958 135.881L255.269 134.437C255.269 134.437 258.35 117.639 256.276 114.72C256.276 114.72 251.838 118.439 249.127 122.75C246.417 127.061 244.58 127.123 244.58 127.123L246.756 129.245L244.308 127.776C244.308 127.776 240.476 132.177 240.396 136.689C240.316 141.202 239.373 141.952 239.373 141.952L242.125 143.794L238.83 142.983C238.83 142.983 236.882 147.101 234.636 148.652C231.71 150.673 227.971 153.462 227.831 159.958C227.691 166.454 229.739 178.47 229.739 178.47Z" fill="#3C8F7C"/>
<path d="M245.738 176.445C245.738 176.445 266.668 170.376 269.967 166.94C273.267 163.503 270.871 161.641 271.179 159.451C271.569 156.667 272.4 155.937 275.63 154.752C278.86 153.566 284.396 153.657 287.005 150.252C289.614 146.848 289.717 134.051 289.717 134.051L285.309 132.18L290.617 131.071C290.617 131.071 299.367 114.592 297.953 110.163C297.953 110.163 290.504 109.814 285.864 114.176C281.225 118.538 281.225 118.538 281.225 118.538L283.493 122.756L279.908 119.982C279.908 119.982 274.154 122.667 272.51 128.274C270.867 133.881 269.511 134.462 269.511 134.462L272.084 137.801L268.523 135.545C268.523 135.545 266.009 141.019 261.689 141.045C257.368 141.071 250.994 141.537 248.599 149.599C246.204 157.661 245.738 176.445 245.738 176.445Z" fill="#50BFA5"/>
<path d="M269.967 166.94C273.266 163.504 270.871 161.641 271.179 159.451C271.569 156.667 272.4 155.938 275.63 154.752C278.86 153.566 284.395 153.657 287.005 150.253C289.614 146.848 289.717 134.051 289.717 134.051L285.309 132.18L290.617 131.071C290.617 131.071 299.367 114.593 297.953 110.163C297.953 110.163 290.317 120.214 283.3 125.762C276.282 131.311 282.647 136.697 276.119 143.062C269.591 149.426 269.427 145.51 261.267 150.895C253.107 156.281 245.738 176.445 245.738 176.445C245.738 176.445 266.668 170.376 269.967 166.94Z" fill="#3C8F7C"/>
<path d="M260.179 190.468C260.179 190.468 285.691 187.009 289.868 184.657C294.045 182.306 291.286 180.839 291.792 179.258C292.436 177.248 293.479 176.754 297.432 176.039C301.384 175.323 308.091 175.288 311.437 172.928C314.784 170.568 316.279 161.885 316.279 161.885L311.954 160.117L316.913 159.477C316.913 159.477 315.495 153.013 327.034 144.582C327.034 144.582 318.111 143.986 312.267 146.95C306.423 149.915 306.423 149.915 306.423 149.915L308.881 153.091L304.751 150.906C304.751 150.906 297.674 152.597 295.349 156.607C293.023 160.616 291.359 160.977 291.359 160.977L294.239 163.527L290.105 161.72C290.105 161.72 286.743 165.593 281.554 165.413C276.365 165.233 268.682 165.279 265.3 171.042C261.919 176.806 260.179 190.468 260.179 190.468Z" fill="#50BFA5"/>
<path d="M131.729 197.416C131.726 197.453 131.723 197.489 131.723 197.526C131.723 202.715 165.729 206.921 207.677 206.921C249.626 206.921 283.631 202.715 283.631 197.526C283.631 197.489 283.629 197.453 283.626 197.416H131.729Z" fill="#466EB6"/>
<path d="M99.0972 180.597C99.0924 180.687 99.0891 180.777 99.0891 180.867C99.0891 193.634 147.852 203.983 208.004 203.983C268.156 203.983 316.919 193.634 316.919 180.867C316.919 180.777 316.915 180.687 316.911 180.597H99.0972Z" fill="#355389"/>
<path d="M307.435 179.926C307.435 184.304 262.569 187.854 207.223 187.854C174.653 187.854 145.712 186.624 127.408 184.72C126.368 184.612 125.363 184.502 124.392 184.388C115.659 183.376 109.813 182.196 107.795 180.92C107.792 180.919 107.791 180.918 107.788 180.915C107.277 180.591 107.013 180.261 107.013 179.926C107.013 179.048 108.819 178.202 112.154 177.413C114.707 176.808 118.157 176.236 122.378 175.705C140.119 173.478 171.486 171.998 207.223 171.998C262.569 171.998 307.435 175.548 307.435 179.926Z" fill="#466EB6"/>
<path d="M221.78 181.321C221.78 181.321 215.411 172.825 216.212 169.869C217.013 166.913 218.788 167.184 219.781 166.395C221.043 165.392 220.229 164.091 219.943 161.795C219.657 159.5 220.338 156.692 221.309 154.166C222.28 151.639 226.324 147.519 226.324 147.519L228.428 149.693L227.546 146.151C227.546 146.151 233.288 136.289 235.844 135.935C235.844 135.935 238.018 140.382 237.122 144.409C236.227 148.437 236.227 148.437 236.227 148.437L234.19 149.509L236.167 149.186C236.167 149.186 237.304 154.383 234.992 156.926C232.679 159.468 233.311 160.393 233.311 160.393L233.823 161.269C233.823 161.269 232.307 163.622 233.455 166.264C234.604 168.906 233.056 173.189 229.74 176.864C226.424 180.539 221.78 181.321 221.78 181.321Z" fill="#50BFA5"/>
<path d="M232.247 166.578C235.314 168.795 234.973 174.503 231.486 179.325C227.999 184.148 222.686 186.26 219.619 184.042C216.552 181.824 216.892 176.117 220.38 171.294C223.867 166.472 229.18 164.36 232.247 166.578Z" fill="#184655"/>
<path d="M137.605 191.797C137.605 191.797 141.619 164.265 139.151 157.08C136.683 149.894 133.138 154.808 133.138 154.808C133.138 154.808 130.996 139.52 126.843 138.164C122.691 136.808 122.842 144.068 122.842 144.068C122.842 144.068 114.805 128.899 111.877 130.717C106.423 134.103 114.395 151.155 114.395 151.155C114.395 151.155 109.925 145.32 107.852 148.977C104.725 154.491 117.204 163.989 117.204 163.989L137.605 191.797Z" fill="#50BFA5"/>
<path d="M111.581 165.269C109.831 160.797 114.02 162.429 114.02 162.429C114.02 162.429 104.725 154.492 107.852 148.977C109.925 145.321 114.395 151.156 114.395 151.156C114.395 151.156 106.423 134.103 111.877 130.717L137.443 191.491C134.328 189.325 114.29 172.193 111.581 165.269Z" fill="#3C8F7C"/>
<path d="M251.184 150.731C248.72 149.536 247.602 146.607 248.638 144.062C251.354 137.392 252.731 130.302 252.731 122.989C252.731 88.7117 222.065 62.1325 187.698 67.6627C183.137 68.3966 180.01 63.3445 182.531 59.6006C183.33 58.4135 184.597 57.6022 186.007 57.3747C189.537 56.8047 193.136 56.5156 196.703 56.5156C205.405 56.5156 213.884 58.1827 221.906 61.4704C230.075 64.8187 237.404 69.7031 243.689 75.9881C262.774 95.0733 268.247 123.473 258.294 147.988C257.142 150.825 253.873 152.036 251.184 150.731Z" fill="#86B1F2"/>
<path d="M181.219 144.893C167.347 136.01 160.904 119.295 164.7 103.596C165.38 100.783 168.337 99.2359 171.018 100.2C173.34 101.035 174.654 103.473 174.075 105.871C171.996 114.479 173.947 123.408 179.427 130.368C189.391 143.024 207.392 144.859 219.637 135.289C220.487 134.625 221.546 134.259 222.621 134.259C224.814 134.259 226.104 135.754 226.129 135.772C226.151 135.808 227.585 137.173 227.432 139.414C227.34 140.772 226.673 142.032 225.603 142.87C212.482 153.149 194.722 153.54 181.219 144.893Z" fill="#466EB6"/>
<path d="M302.166 175.884C302.166 175.884 300.274 187.239 285.391 185.611C270.199 183.948 265.283 189.159 252.377 188.597C241.979 188.145 228.527 173.973 233.799 156.372C239.072 138.772 299.833 132.516 302.166 175.884Z" fill="#F7CC7F"/>
<path d="M302.141 175.126C302.229 175.99 302.114 176.865 301.817 177.681C300.699 180.758 296.897 187.549 285.318 186.282C270.125 184.619 265.272 189.264 252.375 188.619C241.984 188.099 228.395 175.177 233.472 159.364C238.501 143.701 298.288 137.224 302.141 175.126Z" fill="#F47458"/>
<path d="M233.472 159.364C238.773 144.932 291.982 139.018 300.995 169.828C301.503 171.558 301.877 173.331 302.141 175.126C301.37 163.932 295.315 154.977 283.589 150.014C266.328 142.831 244.353 147.271 236.436 154.832C235.098 156.073 233.987 157.617 233.472 159.364Z" fill="#FAE0B2"/>
<path d="M245.764 182.616C245.764 182.616 236.206 177.93 235.868 169.653C235.53 161.377 242.832 154.32 249.016 152.889C255.201 151.458 247.799 154.672 245.162 165.114C242.524 175.555 250.825 182.787 245.764 182.616Z" fill="#F48C7F"/>
<path d="M295.051 175.531C297.882 175.442 300.038 172.91 299.616 170.109C299.271 167.823 297.895 164.92 294.207 161.666C285.28 153.792 258.564 147.296 256.257 153.141C253.95 158.986 268.143 160.458 270.078 168.949C271.575 175.524 287.801 175.76 295.051 175.531Z" fill="#F48C7F"/>
<path d="M294.25 178.931C295.899 179.266 296.65 181.205 295.643 182.553C294.423 184.183 292.148 185.77 287.958 185.312C279.897 184.43 270.74 185.158 263.376 186.076C256.012 186.995 250.184 187.124 250.453 184.662C250.723 182.201 264.588 178.367 267.518 176.279C270.279 174.311 287.472 177.553 294.25 178.931Z" fill="#F48C7F"/>
<path d="M192.28 118.451L190.456 123.972L185.155 115.919L185.156 115.912C185.156 115.912 183.178 114.863 182.679 114.76C182.233 114.667 180.802 114.507 180.573 114.743C180.562 114.726 180.548 114.713 180.528 114.708C180.339 114.656 179.978 115.293 179.926 115.448C179.875 115.602 180.253 116.514 180.288 116.583C180.322 116.652 180.184 116.686 180.012 116.617C179.84 116.549 179.307 115.912 179.307 115.912C179.307 115.912 179.272 114.897 178.946 114.897C178.619 114.897 178.894 116.17 178.894 116.17L179.204 116.6L178.739 116.308C178.739 116.308 178.429 115.62 178.343 115.654C178.257 115.688 178.137 116.032 178.309 116.394C178.481 116.755 178.86 117.151 178.86 117.151L179.565 117.529C179.565 117.529 178.739 117.443 178.498 117.254C178.257 117.065 178.154 117.323 178.343 117.547C178.533 117.77 179.617 118.166 180.305 118.252C180.993 118.338 183.143 118.321 183.453 118.269C183.705 118.227 184.174 118.162 184.404 118.297C184.694 119.196 187.181 128.917 190.372 130.101C190.372 130.101 191.858 129.932 193.614 126.116C195.37 122.3 196.315 120.004 196.315 120.004L192.28 118.451ZM182.335 116.308C182.094 116.394 181.234 116.428 181.01 116.342C180.786 116.256 180.459 115.379 180.459 115.379C180.459 115.379 180.566 115.121 180.592 114.925C180.839 115.203 181.908 115.1 182.146 115.258C182.404 115.431 182.576 116.222 182.335 116.308Z" fill="#F7A491"/>
<path d="M211.577 120.005C211.577 120.005 212.522 122.301 214.278 126.117C216.034 129.933 217.52 130.102 217.52 130.102C220.711 128.918 223.198 119.197 223.488 118.298C223.718 118.163 224.187 118.228 224.439 118.27C224.749 118.322 226.899 118.339 227.587 118.253C228.276 118.167 229.36 117.771 229.549 117.548C229.738 117.324 229.635 117.066 229.394 117.255C229.153 117.444 228.327 117.53 228.327 117.53L229.033 117.152C229.033 117.152 229.411 116.756 229.583 116.395C229.755 116.034 229.635 115.689 229.549 115.655C229.463 115.621 229.153 116.309 229.153 116.309L228.689 116.601L228.998 116.171C228.998 116.171 229.273 114.898 228.947 114.898C228.62 114.898 228.585 115.913 228.585 115.913C228.585 115.913 228.052 116.55 227.88 116.619C227.708 116.687 227.57 116.653 227.605 116.584C227.639 116.515 228.018 115.604 227.966 115.449C227.914 115.294 227.553 114.657 227.364 114.709C227.344 114.714 227.33 114.727 227.319 114.744C227.09 114.508 225.659 114.668 225.213 114.761C224.714 114.864 222.736 115.913 222.736 115.913L222.737 115.92L217.436 123.973L215.612 118.452L211.577 120.005ZM225.747 115.259C225.984 115.101 227.053 115.204 227.3 114.925C227.326 115.122 227.433 115.38 227.433 115.38C227.433 115.38 227.106 116.257 226.882 116.343C226.659 116.429 225.798 116.395 225.558 116.309C225.317 116.223 225.489 115.431 225.747 115.259Z" fill="#F7A491"/>
<path d="M202.697 134.068C202.697 134.068 200.302 132.775 197.02 131.74C192.625 130.354 186.69 129.384 183.264 132.142C181.249 133.763 201.76 136.303 201.76 136.303L202.697 134.068Z" fill="#13375B"/>
<path d="M224.916 133.909C224.916 133.909 223.01 131.006 217.978 130.985C216.018 130.978 213.296 131.32 210.812 131.767C206.382 132.564 202.193 133.96 202.193 133.96L201.76 136.303L224.916 133.909Z" fill="#13375B"/>
<path d="M196.231 137.497L205.095 142.005L212.186 136.535L209.979 131.474L197.29 132.05L196.231 137.497Z" fill="#13375B"/>
<path d="M198.732 105.736C197.767 103.679 197.78 99.8238 198.604 97.5746C199.27 95.7546 200.808 94.7373 202.769 94.5583C205.044 94.3506 206.483 94.8214 208.233 96.0078C210.054 97.2431 212.233 98.5856 214.341 99.1532C217.09 99.8935 219.931 100.453 222.434 101.808C224.087 102.703 225.616 104.016 226.252 105.784C227.162 108.315 226.02 111.191 224.222 113.191C221.511 116.209 217.274 117.779 213.25 117.257C210.12 116.85 207.188 115.187 205.17 112.769C204.26 111.679 203.57 110.867 202.477 109.978C201.077 108.84 199.51 107.392 198.732 105.736Z" fill="#184655"/>
<path d="M210.599 108.625C210.599 108.625 207.114 108.216 203.675 108.046C200.607 107.895 197.311 108.406 197.092 108.625C196.217 109.5 195.775 117.135 196.231 118.553C196.687 119.971 198.865 123.669 198.409 126.05C197.953 128.43 197.038 131.744 197.038 131.744C197.038 131.744 199.928 133.463 203.611 133.5C205.822 133.522 208.889 133.135 210.811 131.766C210.811 131.766 209.755 128.785 209.907 126.455C210.059 124.125 211.325 120.174 211.984 118.756C212.642 117.337 211.764 108.878 210.599 108.625Z" fill="#F47458"/>
<path d="M198.46 109.284L197.155 108.593C197.155 108.593 195.656 108.992 194.863 110.094C194.212 110.999 191.216 119.262 191.216 119.262C191.216 119.262 195.167 120.883 196.434 120.832L198.46 115.767V109.284Z" fill="#F47458"/>
<path d="M209.198 109.283L210.622 108.625C210.622 108.625 211.517 108.823 212.646 110.181C213.36 111.039 216.441 119.261 216.441 119.261C216.441 119.261 212.49 120.882 211.224 120.832L209.198 115.766L209.198 109.283Z" fill="#F47458"/>
<path d="M205.293 103.663C205.293 103.663 205.473 107.078 205.671 108.169C205.876 109.296 206.086 114.463 203.743 115.036C201.399 115.609 202.087 109.173 202.049 108.034C202.01 106.895 201.543 102.983 201.543 102.983L205.293 103.663Z" fill="#F7A491"/>
<path d="M201.543 102.983C201.543 102.983 201.638 103.773 201.745 104.745C202.607 105.421 203.799 105.606 205.182 104.82C205.241 104.786 205.298 104.75 205.355 104.714C205.316 104.102 205.293 103.663 205.293 103.663L201.543 102.983Z" fill="#F47458"/>
<path d="M204.336 95.665C204.336 95.665 205.709 96.0478 206.501 97.3997C207.293 98.7516 207.688 102.634 204.773 104.291C201.858 105.948 199.789 103.293 199.877 100.81C199.965 98.3268 200.663 95.0419 204.336 95.665Z" fill="#F7A491"/>
<path d="M199.27 100.001C199.481 100.612 199.94 101.008 200.296 100.885C200.652 100.762 200.769 100.167 200.558 99.5563C200.347 98.9454 199.888 98.5499 199.532 98.6728C199.176 98.7956 199.059 99.3905 199.27 100.001Z" fill="#F7A491"/>
<path d="M203.923 95.5635C203.923 95.5635 205.495 99.6244 207.033 100.057C208.571 100.49 208.448 102.488 208.448 102.488C208.448 102.488 208.645 97.8704 207.24 96.7385C205.835 95.6067 203.923 95.5635 203.923 95.5635Z" fill="#184655"/>
<path d="M206.373 100.852C206.136 101.486 206.292 102.131 206.721 102.291C207.15 102.451 207.69 102.067 207.927 101.432C208.164 100.797 208.009 100.153 207.58 99.9924C207.15 99.8321 206.61 100.217 206.373 100.852Z" fill="#F7A491"/>
<path d="M188.694 139.291C188.694 139.291 187.677 138.423 186.458 138.077C185.24 137.732 185.249 138.629 184.91 140.007C184.571 141.385 184.026 142.284 183.332 143.614C182.639 144.944 183.407 148.013 183.782 148.059C184.689 148.171 185.143 146.234 186.031 144.591C186.919 142.947 189.324 142.431 190.023 142.369C190.149 142.358 193.273 141.918 197.449 142.022C196.602 140.34 195.359 138.958 194.084 137.484C190.894 138.529 188.694 139.291 188.694 139.291Z" fill="#F7A491"/>
<path d="M225.56 135.454C225.171 133.293 223.381 132.383 221.297 132.401C216.492 132.442 202.899 135.302 194.795 137.691C195.247 139.434 194.858 140.561 195.402 142.356C203.947 142.049 219.991 140.996 224.668 138.407C225.397 138.004 225.748 136.499 225.56 135.454Z" fill="#355389"/>
<path d="M219.794 144.793C219.211 143.41 218.617 142.495 218.392 141.094C218.125 139.436 218.279 138.515 216.238 139.263C215.066 139.693 213.778 139.676 212.631 139.183C211.878 138.859 210.948 138.462 209.89 138.016C209.183 139.444 208.721 140.962 208.581 142.587C211.097 142.89 212.929 143.176 213.023 143.188C213.427 143.236 216.15 143.86 216.901 145.571C217.652 147.281 217.966 149.399 218.86 149.211C219.379 149.101 220.377 146.175 219.794 144.793Z" fill="#F7A491"/>
<path d="M188.113 131.067C186.224 130.982 182.952 131.282 182.427 133.407C182.173 134.434 182.235 135.889 182.64 136.871C183.144 138.097 184.343 138.78 185.535 139.316C187.807 140.326 201.957 142.075 209.247 142.954C210.136 141.408 210.879 139.685 210.852 138.166C203.85 135.212 191.73 131.23 188.113 131.067Z" fill="#86B1F2"/>
<path d="M148.235 179.661L148.197 179.459C148.107 179.03 148.268 178.573 148.614 178.29C148.614 178.29 148.623 178.288 148.621 178.279C148.928 178.041 149.106 177.675 149.09 177.289L149.091 177.09C149.075 176.703 148.876 176.351 148.568 176.125C148.559 176.126 148.557 176.117 148.548 176.119C148.187 175.864 148.008 175.413 148.077 174.973L148.105 174.769C148.165 174.33 148.464 173.951 148.894 173.814L148.903 173.812C149.269 173.687 149.567 173.403 149.688 173.038L149.747 172.847C149.868 172.483 149.811 172.076 149.592 171.766C149.581 171.758 149.581 171.758 149.579 171.749C149.32 171.38 149.305 170.899 149.517 170.508L149.616 170.328C149.827 169.937 150.236 169.689 150.685 169.7C150.694 169.698 150.694 169.698 150.703 169.697C151.085 169.71 151.453 169.547 151.7 169.244L151.822 169.088C152.06 168.787 152.136 168.384 152.038 168.013C152.037 168.004 152.037 168.004 152.035 167.995C151.927 167.569 152.077 167.104 152.411 166.814L152.557 166.682C152.89 166.382 153.365 166.283 153.777 166.453C153.786 166.451 153.786 166.451 153.797 166.459C154.156 166.6 154.558 166.572 154.881 166.369L155.06 166.26C155.382 166.057 155.593 165.713 155.625 165.328C155.633 165.317 155.633 165.317 155.631 165.307C155.671 164.863 155.97 164.485 156.386 164.321L156.571 164.248C156.987 164.085 157.465 164.157 157.797 164.455L157.807 164.463C158.093 164.722 158.484 164.829 158.86 164.759L159.06 164.712C159.443 164.63 159.757 164.381 159.918 164.028L159.926 164.017C160.116 163.612 160.523 163.355 160.977 163.346L161.174 163.337C161.619 163.33 162.043 163.563 162.258 163.95C162.259 163.959 162.259 163.959 162.261 163.968C162.447 164.304 162.777 164.545 163.157 164.597L163.353 164.627C163.744 164.687 164.117 164.55 164.398 164.279L164.406 164.268C164.726 163.952 165.192 163.855 165.616 163.994L165.809 164.062C166.234 164.2 166.548 164.559 166.612 165.003C166.614 165.012 166.614 165.012 166.616 165.021C166.677 165.398 166.902 165.736 167.24 165.919L167.42 166.018C167.758 166.202 168.168 166.21 168.516 166.04L168.525 166.039C168.935 165.848 169.414 165.919 169.76 166.196L169.916 166.319C170.271 166.594 170.442 167.046 170.354 167.489L170.356 167.498C170.274 167.874 170.368 168.274 170.63 168.557L170.764 168.713C171.017 168.997 171.396 169.145 171.778 169.111C171.787 169.109 171.797 169.107 171.797 169.107C172.245 169.07 172.669 169.304 172.9 169.679L173.008 169.848C173.242 170.231 173.256 170.713 173.015 171.1C173.015 171.1 173.015 171.1 173.008 171.111C172.812 171.432 172.765 171.839 172.909 172.202L172.982 172.387C173.125 172.75 173.432 173.015 173.802 173.116C173.811 173.114 173.811 173.114 173.82 173.113C174.251 173.231 174.576 173.597 174.666 174.027L174.703 174.228C174.745 174.448 174.731 174.679 174.655 174.883L172.418 175.303L151.657 179.227L148.301 179.857C148.27 179.797 148.247 179.725 148.235 179.661Z" fill="#3C8F7C"/>
<path d="M151.656 179.228C150.662 173.928 154.259 168.802 159.698 167.781C165.118 166.764 170.318 170.221 171.328 175.508L151.656 179.228Z" fill="#50BFA5"/>
<path d="M168.267 172.599C168.756 172.362 169.345 172.566 169.583 173.055C169.82 173.544 169.616 174.133 169.127 174.37C168.638 174.608 166.657 174.963 166.419 174.474C166.182 173.985 167.778 172.837 168.267 172.599Z" fill="#F7CC7F"/>
<path d="M164.098 170.557C164.218 170.027 164.745 169.694 165.276 169.815C165.806 169.935 166.139 170.462 166.019 170.992C165.899 171.522 164.939 173.292 164.408 173.172C163.878 173.051 163.978 171.088 164.098 170.557Z" fill="#F7CC7F"/>
<path d="M159.166 171.095C158.947 170.597 159.173 170.016 159.671 169.797C160.169 169.579 160.75 169.805 160.968 170.302C161.187 170.8 161.467 172.793 160.969 173.012C160.472 173.231 159.384 171.592 159.166 171.095Z" fill="#F7CC7F"/>
<path d="M155.573 173.701C155.171 173.334 155.142 172.712 155.508 172.31C155.874 171.908 156.497 171.879 156.899 172.245C157.301 172.611 158.366 174.319 158 174.721C157.634 175.123 155.975 174.067 155.573 173.701Z" fill="#F7CC7F"/>
<path d="M153.728 177.694C153.197 177.577 152.862 177.051 152.979 176.52C153.096 175.989 153.622 175.654 154.153 175.771C154.683 175.889 156.458 176.839 156.34 177.37C156.223 177.901 154.259 177.811 153.728 177.694Z" fill="#F7CC7F"/>
<path d="M175.498 168.682C141.312 154.684 129.795 112.14 151.98 82.7946C153.847 80.3249 157.378 80.0364 159.63 82.0387C159.654 82.0698 161.192 83.2715 161.41 85.4774C161.54 86.7905 161.173 88.0932 160.377 89.1458C142.293 113.072 151.882 147.635 179.487 158.939C189.494 163.036 200.13 163.397 209.957 160.407C210.457 160.255 210.974 160.178 211.494 160.178C214.992 160.178 216.26 163.244 216.267 163.252C217.613 166.136 216.09 169.546 213.043 170.472C201.05 174.115 187.815 173.725 175.498 168.682Z" fill="#F47458"/>
<path d="M218.927 163.047C210.317 161.321 209.436 165.318 198.199 165.099C188.707 164.914 187.484 169.271 187.333 170.629L187.35 170.633C187.158 171.463 186.841 172.075 186.841 172.075C186.286 173.324 185.143 177.702 193.431 182.332C203.242 187.814 201.986 191.71 210.29 194.564C217.538 197.055 224.606 193.13 228.219 186.772C232.114 179.919 230.998 170.1 224.295 165.345C222.693 164.208 220.851 163.433 218.927 163.047Z" fill="#F7CC7F"/>
<path d="M178.539 169.523L178.523 169.525C178.506 169.562 179.89 170.461 182.829 171.089C184.276 171.324 184.616 171.507 187.9 171.635L188.052 171.641C188.647 171.664 188.665 172.55 188.065 172.592C187.625 172.622 187.188 172.655 186.75 172.68C186.724 172.679 181.124 173.008 177.761 171.421C177.237 171.207 176.986 170.608 177.201 170.084C177.416 169.559 178.014 169.308 178.539 169.523Z" fill="#13375B"/>
<path d="M248.985 52.2352C249 52.0902 245.015 51.4496 245.015 51.4496C244.573 51.3943 242.163 50.5877 242.163 50.5877C242.163 50.5877 235.959 47.9747 235.597 47.8555L230.803 43.2451L228.029 45.7951C228.029 45.7951 233.891 50.93 234.258 51.1306C234.609 51.3223 243.592 52.5841 244.172 52.7846C244.172 52.7846 244.906 53.2304 245.376 53.4959C245.847 53.7613 246.41 53.8381 246.561 53.8691C246.909 53.9398 247.758 53.9016 247.758 53.9016C247.758 53.9016 248.976 52.33 248.985 52.2352Z" fill="#F8A492"/>
<path d="M248.684 52.0068C248.684 52.0068 247.909 53.4654 247.592 53.649C247.276 53.8326 246.725 53.7408 246.725 53.7408L248.684 52.0068Z" fill="#F47458"/>
<path d="M256.167 84.7453C255.043 84.8146 254.365 84.3578 253.244 84.6138C253.62 85.5758 254.225 91.6884 254.185 92.0305C254.025 93.4163 253.121 94.2691 253.121 94.2691C253.121 94.2691 259.173 97.5155 259.345 96.9258C259.516 96.3361 259.014 96.5334 258.271 94.9111C258.205 94.767 256.657 93.0685 256.548 90.1309C256.455 87.6143 256.465 86.1113 256.167 84.7453Z" fill="#F7A491"/>
<path d="M252.996 94.4111L259.657 97.4847C259.914 97.5763 260.066 97.4048 260.037 97.2425C259.978 96.9085 258.959 95.702 258.271 94.8961C256.665 94.3489 254.266 92.4829 254.186 92.0195C253.722 92.6597 252.873 94.318 252.996 94.4111Z" fill="#355389"/>
<path d="M229.74 57.2267C229.617 58.7796 222.766 57.6272 222.766 57.6272C222.504 57.5833 222.333 59.8172 222.33 59.9435C222.302 61.2816 221.681 64.2494 224.561 66.8482C226.234 68.3578 246.96 73.5394 247.42 73.7362C249.21 79.9708 251.26 84.6674 253.855 90.5938C253.855 90.5938 254.533 90.8054 255.406 90.7842C255.963 90.7705 257.092 90.621 257.092 90.621C257.092 90.621 254.527 70.5466 252.468 67.6642C251.593 66.4386 240.632 63.9712 234.026 60.8098C231.009 59.3658 229.742 57.2087 229.74 57.2267Z" fill="#F47458"/>
<path d="M217.308 32.299C214.539 33.0555 212.676 35.5292 212.924 38.308C211.492 39.0211 210.359 40.326 209.892 41.8166C208.971 44.7572 209.78 48.9241 212.967 49.109C214.993 50.4705 218.62 50.9116 220.409 49.2811C223.221 50.1666 225.664 47.6223 225.887 44.119C228.006 43.0884 229.511 40.8898 229.449 38.5593C229.435 37.9999 229.375 37.1434 229.422 37.0069C229.374 37.1796 232.706 33.5767 228.438 29.8665C224.083 26.081 218.217 27.914 217.308 32.299Z" fill="#13375B"/>
<path d="M230.337 48.977C231.537 48.7524 233.108 47.382 233.523 45.524C233.534 45.476 229.174 40.8095 227.906 40.1719C227.792 40.1148 227.639 40.0417 227.515 40.0494C228.182 41.9924 227.285 44.5401 227.707 46.5787C227.737 46.4927 230.186 49.0053 230.337 48.977Z" fill="#355389"/>
<path d="M223.105 40.1865C223.105 40.1865 220.701 40.6609 219.773 41.1359C217.626 42.2356 219.746 48.0427 219.937 48.5424C220.272 49.4205 223.317 55.5756 222.343 59.463C222.343 59.463 226.792 60.5078 230.086 59.4254C230.086 59.4254 230.385 50.0999 230.51 49.6783C230.634 49.2569 231.423 47.8716 230.523 45.8842C230.457 45.7392 228.709 41.7221 227.515 40.0501C225.228 40.0423 223.105 40.1865 223.105 40.1865Z" fill="#466EB6"/>
<path d="M223.234 36.543C223.234 36.543 223.185 39.2494 223.087 40.1974C222.986 41.1896 224.017 44.2098 226.082 44.4937C228.147 44.7777 226.106 41.09 226.035 40.0998C225.964 39.1094 226.172 35.6084 226.172 35.6084L223.234 36.543Z" fill="#F7A491"/>
<path d="M223.214 37.407C223.236 37.417 223.257 37.4282 223.279 37.438C224.458 37.9584 225.416 37.7558 226.09 37.1828C226.13 36.315 226.172 35.6084 226.172 35.6084L223.234 36.5431C223.234 36.5431 223.227 36.9036 223.214 37.407Z" fill="#F47458"/>
<path d="M223.105 29.5227C223.105 29.5227 221.961 29.9786 221.405 31.2215C220.848 32.4643 220.864 35.8635 223.518 37.0346C226.172 38.2058 227.707 35.7191 227.404 33.5759C227.102 31.4328 226.202 28.6505 223.105 29.5227Z" fill="#F7A491"/>
<path d="M227.86 32.5937C227.947 33.1499 227.757 33.6417 227.436 33.6921C227.114 33.7424 226.784 33.3325 226.697 32.7763C226.61 32.2201 226.8 31.7284 227.121 31.678C227.442 31.6276 227.773 32.0375 227.86 32.5937Z" fill="#F7A491"/>
<path d="M223.45 29.3965C223.45 29.3965 222.472 33.0566 221.191 33.5708C219.91 34.0851 220.198 35.8042 220.198 35.8042C220.198 35.8042 219.607 31.8224 220.71 30.7147C221.813 29.6071 223.45 29.3965 223.45 29.3965Z" fill="#13375B"/>
<path d="M221.83 34.1996C222.091 34.7279 222.017 35.3005 221.663 35.4782C221.309 35.6559 220.81 35.3716 220.549 34.8433C220.287 34.3149 220.362 33.7425 220.715 33.5647C221.069 33.3869 221.568 33.6712 221.83 34.1996Z" fill="#F7A491"/>
<path d="M127.408 184.721C126.368 184.612 125.363 184.502 124.392 184.388C115.659 183.377 109.813 182.196 107.795 180.92C107.819 180.917 107.832 180.915 107.832 180.915C107.832 180.915 107.817 180.915 107.789 180.915C107.079 180.921 97.839 180.915 97.635 177.194C97.4971 174.666 101.779 175.725 101.905 175.756C101.738 175.669 91.7679 170.486 93.5256 166.794C94.4721 164.808 103.899 169.04 104.019 169.094C103.967 169.024 101.47 165.618 104.145 164.702C106.848 163.778 114.355 167.852 118.154 170.398C119.559 171.34 120.563 172.764 122.379 175.705C124.381 178.947 126.301 182.567 127.408 184.721Z" fill="#50BFA5"/>
<path d="M107.795 180.92C107.819 180.917 107.832 180.916 107.832 180.916C107.832 180.916 107.817 180.916 107.788 180.916C107.078 180.921 95.8192 180.284 95.6152 176.563C95.4773 174.035 99.0158 174.448 99.1415 174.479C98.9742 174.391 91.7678 170.486 93.5255 166.794L112.154 177.413L124.392 184.389C115.659 183.377 109.813 182.196 107.795 180.92Z" fill="#3C8F7C"/>
<path d="M119.405 151.383C111.491 164.204 113.923 180.059 124.837 186.797C135.752 193.535 151.016 188.603 158.93 175.782C159.05 175.588 119.525 151.189 119.405 151.383Z" fill="#B75742"/>
<path d="M141.175 164.024L140.825 163.809L140.952 164.516L141.175 164.024Z" fill="#FFFC97"/>
<path d="M140.952 164.516L141.175 164.024L140.825 163.809L140.952 164.516Z" fill="#FFFFE9"/>
<path d="M142.219 165.858L145.75 185.651C150.672 183.715 154.941 180.163 157.892 175.533L142.219 165.858Z" fill="#F7CC7F"/>
<path d="M119.947 177.821C121.627 180.434 123.807 182.578 126.439 184.203C127.583 184.909 128.802 185.503 130.071 185.974L139.777 164.653L119.947 177.821Z" fill="#F7CC7F"/>
<path d="M116.457 163.649C116.15 168.017 117.016 172.357 118.931 176.065L137.559 163.695L116.457 163.649Z" fill="#F7CC7F"/>
<path d="M120.094 152.2C118.331 155.146 117.186 158.311 116.682 161.626L135.429 161.667L120.094 152.2Z" fill="#F7CC7F"/>
<path d="M132.015 186.588C135.822 187.588 139.862 187.497 143.813 186.319L140.526 167.894L132.015 186.588Z" fill="#F7CC7F"/>
<path d="M158.956 175.74C159.067 175.561 159.168 175.378 159.274 175.197L140.827 163.815L140.825 163.809C139.822 163.189 120.867 151.488 119.774 150.813C117.346 154.555 115.967 158.582 115.531 162.635C114.964 167.915 116.028 173.148 118.574 177.518C120.332 180.535 122.791 183.141 125.907 185.064C127.411 185.993 128.989 186.71 130.61 187.232C135.267 188.732 140.285 188.596 144.965 187.015C150.485 185.152 155.533 181.287 158.956 175.74ZM117.889 160.616C118.379 158.18 119.237 155.835 120.452 153.611L131.849 160.647L117.889 160.616ZM119.338 174.58C117.977 171.546 117.315 168.131 117.42 164.664L134.216 164.701L119.338 174.58ZM156.469 175.844C153.911 179.525 150.464 182.424 146.524 184.223L143.613 167.909L156.469 175.844ZM126.97 183.342C124.752 181.972 122.87 180.214 121.358 178.099L137.39 167.453L129.549 184.677C128.655 184.296 127.793 183.849 126.97 183.342ZM133.45 185.88L140.1 171.272L142.655 185.59C139.569 186.377 136.445 186.474 133.45 185.88Z" fill="#FAE0B2"/>
<path d="M306.591 174.34L300.906 177.105C305.125 177.982 307.435 178.932 307.435 179.926C307.435 184.305 262.569 187.854 207.224 187.854C153.242 187.854 109.23 184.477 107.095 180.248L94.4339 177.9C90.4674 179.312 88.3179 180.822 88.3179 182.393C88.3179 190.234 141.903 196.591 208.004 196.591C274.104 196.591 327.69 190.234 327.69 182.393C327.69 179.402 319.898 176.628 306.591 174.34Z" fill="#9BC1F9"/>
<path d="M116.822 183.264C116.476 183.044 107.209 180.473 107.095 180.248L96.5049 178.283C99.1144 180.408 116.207 183.269 116.822 183.264Z" fill="#3C8F7C"/>
<path d="M294.826 183.301C294.826 186.179 291.158 188.512 286.632 188.512C282.107 188.512 278.438 186.179 278.438 183.301C278.438 180.423 282.107 178.09 286.632 178.09C291.158 178.09 294.826 180.423 294.826 183.301Z" fill="#184655"/>
<path d="M272.518 177.297C272.518 177.297 272.512 189.161 261.522 192.13C250.532 195.099 232.46 188.527 230.661 186.072C229.187 184.061 229.172 181.857 229.409 179.485C229.614 177.431 230.133 178.638 237.074 176.099C244.015 173.56 244.869 175.732 251.586 171.857C258.303 167.982 272.235 169.291 272.518 177.297Z" fill="#184655"/>
<path d="M233.194 183.543C231.708 183.043 230.504 181.959 229.804 180.556C229.801 180.549 229.798 180.543 229.794 180.536C228.861 178.695 229.081 176.285 236.022 173.747C242.963 171.208 244.368 172.138 251.085 168.263C257.801 164.388 272.33 169.135 272.613 177.142C272.613 177.142 272.613 177.743 272.451 178.354C270.617 181.904 267.325 185.422 261.42 186.839C253.286 188.791 241.658 186.389 233.194 183.543Z" fill="#3C8F7C"/>
<path d="M270.189 179.915C271.374 178.274 271.498 176.085 270.453 174.352C267.279 169.083 256.772 166.27 251.642 169.229C247.301 171.734 245.104 172.294 242.323 173.004C239.542 173.713 228.284 176.038 230.804 180.741C232.165 183.279 236.852 183.558 239.327 184.205C241.751 184.839 244.204 185.369 246.68 185.758C249.14 186.144 252.2 186.812 254.685 186.431C256.456 186.159 265.061 187.015 270.189 179.915Z" fill="#F7CC7F"/>
<path d="M253.957 171.985C248.977 172.821 245.407 176.282 245.984 179.715C246.56 183.149 251.064 185.254 256.044 184.418C261.024 183.582 264.594 180.121 264.018 176.688C263.441 173.254 258.937 171.149 253.957 171.985Z" fill="#B75742"/>
<path d="M83.2269 120.937C82.0773 122.059 80.6877 121.623 79.0785 121.589C77.9983 121.565 76.9235 123.06 76.678 124.346C76.0561 127.601 74.082 125.568 71.7118 126.341C66.0028 128.203 68.1532 137.563 71.6543 138.451C72.8388 138.752 75.0195 139.734 75.5932 140.119C77.3224 141.281 80.6686 140.256 83.2283 138.856C85.788 137.456 84.2961 136.182 85.2059 134.904C86.1156 133.626 88.2486 134.814 89.4785 131.987C90.8088 128.93 91.0464 126.047 90.3018 124.146C89.0697 121.001 85.7045 119.895 84.2442 120.35C83.8089 120.486 83.4777 120.692 83.2269 120.937Z" fill="#F47458"/>
<path d="M94.4239 191.984C93.8541 194.561 92.9574 196.816 92.8364 197.08C92.7783 197.207 92.2473 197.662 92.1838 197.792C92.3508 200.964 94.3016 202.913 96.1478 204.317C95.7922 202.708 94.9416 200.846 95.0718 200.496C95.2791 199.938 96.0997 197.385 97.7696 194.198C96.2006 193.966 95.6728 192.989 94.4239 191.984Z" fill="#F7A491"/>
<path d="M87.2925 154.304L77.4561 161.775C77.4561 161.775 82.3264 166.461 84.1536 168.202C85.981 169.944 95.7455 177.261 95.9045 177.66C96.0226 177.956 94.1637 188.975 93.117 193.048C94.1567 194.112 96.4463 195.153 97.8023 195.497C100.42 188.921 103.723 177.988 103.723 176.48C103.723 174.767 87.2925 154.304 87.2925 154.304Z" fill="#B75742"/>
<path d="M59.6993 169.209C60.0207 169.522 62.1565 173.682 62.9688 175.908C64.1584 175.16 64.8776 174.267 66.2065 173.763C65.1582 172.246 63.1135 168.596 62.9454 167.727C62.5468 165.665 62.0787 165.361 62.0787 165.361C62.0787 165.361 55.1681 167.699 54.7077 168.354C54.2474 169.01 58.4072 167.949 59.6993 169.209Z" fill="#F7A491"/>
<path d="M63.0261 168.185C63.5622 168.186 62.9796 165.763 62.8568 165.205C62.7185 164.577 62.3548 164.389 62.2642 164.366C62.0192 164.306 54.3389 166.904 53.0414 167.837C52.9538 167.9 52.796 168.1 52.7718 168.145C52.061 169.471 58.3926 169.723 59.3038 169.144C60.1142 168.628 60.6144 168.178 63.0261 168.185Z" fill="#F47458"/>
<path d="M89.3732 156.54C89.3732 156.54 80.8088 153.042 80.8075 153.041C80.8417 153.056 80.7557 153.39 80.749 153.416C79.943 156.552 75.6464 155.342 73.8736 160.788C72.621 164.635 70.7861 179.025 70.7861 179.025C70.7861 179.025 69.4856 176.552 65.4461 172C65.1331 171.647 61.1531 174.381 61.1531 174.381C64.1128 182.227 71.3807 188.603 72.3647 188.152C79.0132 185.102 86.9989 161.034 86.9888 161.036C87.7444 159.564 89.3732 156.54 89.3732 156.54Z" fill="#F47458"/>
<path d="M88.9688 133.175C88.9688 133.175 89.6825 132.47 90.5735 131.414C92.7028 128.888 96.2566 124.484 96.4759 123.845C96.7456 123.059 96.1576 111.729 96.0912 111.011C96.0249 110.293 93.5908 108.331 93.9744 107.767C94.3582 107.202 97.7176 106.742 98.2813 106.852C98.8451 106.962 99.9418 106.862 100.39 107.316C100.448 107.375 99.1181 110.296 99.1415 110.708C99.3017 113.522 100.579 122.168 100.579 124.647C100.579 126.429 92.1239 136.112 92.1239 136.112L88.9688 133.175Z" fill="#F7A491"/>
<path d="M98.2813 106.852C97.7175 106.742 94.3581 107.202 93.9743 107.767C93.8593 107.936 93.9977 108.231 94.2499 108.581C95.3135 108.67 96.43 108.86 97.5347 108.86C98.3504 108.86 99.1418 108.712 99.9274 108.517C100.184 107.835 100.417 107.344 100.39 107.316C99.9417 106.862 98.845 106.962 98.2813 106.852Z" fill="#F47257"/>
<path d="M75.0872 134.896C75.0872 134.896 64.3145 135.164 61.9492 135.358C59.584 135.552 51.002 134.838 50.6694 134.799C50.3369 134.761 48.1384 131.038 47.7731 131.437C47.4077 131.837 48.9964 133.283 48.5051 133.659C48.0137 134.034 42.7353 133.193 42.8054 133.584C42.9364 134.314 46.016 134.221 46.0127 134.573C46.0096 134.926 42.7896 134.376 42.5714 134.961C42.353 135.546 45.6688 135.199 45.8012 135.46C45.9334 135.722 42.7258 136.2 43.054 136.744C43.2322 137.04 45.8961 136.25 45.883 136.653C45.87 137.056 43.9265 137.973 44.165 138.294C44.4033 138.615 45.6902 137.309 46.8179 137.293C47.9456 137.276 48.753 136.688 50.553 137.182C52.3532 137.676 58.4888 140.15 62.3292 139.968C66.1698 139.786 74.657 139.407 74.657 139.407L75.0872 134.896Z" fill="#F7A491"/>
<path d="M90.8999 145.129C91.0466 143.352 92.3815 141.7 91.1719 138.492C91.103 136.695 93.9161 134.533 94.3271 133.759C94.3271 133.759 92.3075 131.352 90.6755 130.903C90.6755 130.903 87.392 133.29 85.8348 134.103C85.812 134.097 85.2837 134.338 85.0515 134.336C83.5478 134.325 78.2935 134.166 77.3127 134.459L77.8167 141.566C78.0995 142.031 79.4689 142.686 79.884 153.751C79.9201 154.714 87.9818 157.441 89.3835 156.539C89.4165 156.518 89.8439 154.03 90.2064 151.058C90.4553 149.018 90.7791 146.591 90.8999 145.129Z" fill="#355389"/>
<path d="M80.0494 134.647C79.0801 134.184 71.9996 134.199 71.9996 134.199C71.9996 134.199 71.3946 139.222 72.1864 140.396C72.1864 140.396 78.0826 141.19 77.9041 141.705L80.0494 134.647Z" fill="#355389"/>
<path d="M92.8097 197.157C92.6287 196.652 90.5732 198.169 90.09 198.475C89.5465 198.818 89.4932 199.224 89.5029 199.317C89.5286 199.562 94.4034 206.008 95.8622 206.926C96 207.013 96.2957 207.025 96.3841 206.995C97.2222 206.705 96.0533 201.527 95.0025 200.477C94.3236 199.798 93.6237 199.427 92.8097 197.157Z" fill="#F47458"/>
<path d="M94.0325 107.856C93.7104 108.33 95.4581 109.83 95.9428 110.659L97.0402 109.164C96.4993 109.059 94.4007 107.315 94.0325 107.856Z" fill="#F7A491"/>
<path d="M84.1794 130.196C84.1794 130.196 83.5702 132.852 83.0487 133.775C82.5271 134.697 82.9255 138.467 84.9634 139.38C87.0012 140.294 85.7815 135.14 86.0075 134.11C86.2333 133.079 87.4825 130.132 87.4825 130.132L84.1794 130.196Z" fill="#F7A491"/>
<path d="M86.875 131.619C87.1975 130.804 87.4825 130.132 87.4825 130.132L84.1794 130.196C84.1794 130.196 84.0547 130.739 83.8701 131.419C84.9624 132.191 86.0274 132.131 86.875 131.619Z" fill="#F47458"/>
<path d="M86.1648 123.002C86.1648 123.002 84.8505 123.121 83.9033 124.219C82.9562 125.317 81.9467 128.786 84.3236 130.782C86.7003 132.778 89.0283 130.708 89.3634 128.432C89.6986 126.157 89.6129 123.049 86.1648 123.002Z" fill="#F7A491"/>
<path d="M90.0518 127.798C89.7576 128.318 89.273 128.602 88.9695 128.43C88.6662 128.259 88.6587 127.698 88.953 127.177C89.2472 126.656 89.7318 126.373 90.0351 126.544C90.3385 126.716 90.346 127.277 90.0518 127.798Z" fill="#F7A491"/>
<path d="M83.4424 127.383C83.5521 128 83.3026 128.561 82.8851 128.635C82.4678 128.709 82.0404 128.269 81.9306 127.651C81.821 127.034 82.0704 126.473 82.4879 126.399C82.9053 126.325 83.3326 126.765 83.4424 127.383Z" fill="#F7A491"/>
<path d="M97.773 108.603C107.339 108.603 115.093 103.608 115.093 97.4473C115.093 91.2864 107.339 86.292 97.773 86.292C88.2072 86.292 80.4526 91.2864 80.4526 97.4473C80.4526 103.608 88.2072 108.603 97.773 108.603Z" fill="#FAE0B2"/>
<path d="M94.7177 103.795C99.5855 103.795 103.532 100.72 103.532 96.9274C103.532 93.1344 99.5855 90.0596 94.7177 90.0596C89.8499 90.0596 85.9038 93.1344 85.9038 96.9274C85.9038 100.72 89.8499 103.795 94.7177 103.795Z" fill="#F7CC7F"/>
<path d="M94.0325 107.856C93.7104 108.33 95.4581 109.83 95.9428 110.659L97.0402 109.164C96.4993 109.059 94.4007 107.315 94.0325 107.856Z" fill="#F7A491"/>
<path d="M136.213 94.2029C135.522 96.5382 132.533 97.7126 129.538 96.8258C126.542 95.9391 124.674 93.3272 125.365 90.9918C126.056 88.6566 129.045 87.4823 132.041 88.369C135.036 89.2557 136.905 91.8677 136.213 94.2029Z" fill="#3C8F7C"/>
<path d="M135.692 93.7069C135.692 94.4059 135.126 94.9726 134.427 94.9726C133.728 94.9726 133.161 94.4059 133.161 93.7069C133.161 93.008 133.728 92.4414 134.427 92.4414C135.126 92.4414 135.692 93.0079 135.692 93.7069Z" fill="#184655"/>
<path d="M277.33 105.55C279.272 107.02 279.317 110.231 277.431 112.722C275.546 115.213 272.443 116.04 270.501 114.57C268.559 113.1 268.514 109.889 270.4 107.398C272.286 104.907 275.388 104.08 277.33 105.55Z" fill="#3C8F7C"/>
<path d="M276.682 105.863C277.336 106.109 277.667 106.839 277.42 107.493C277.174 108.147 276.444 108.478 275.79 108.231C275.136 107.985 274.805 107.255 275.052 106.601C275.298 105.947 276.028 105.616 276.682 105.863Z" fill="#184655"/>
<path d="M287.05 93.3513C287.05 94.1623 286.283 94.8198 285.337 94.8198C284.39 94.8198 283.624 94.1623 283.624 93.3513C283.624 92.5402 284.391 91.8828 285.337 91.8828C286.283 91.8828 287.05 92.5402 287.05 93.3513Z" fill="#184655"/>
<path d="M238.665 127.065C238.665 127.876 237.897 128.534 236.951 128.534C236.005 128.534 235.238 127.876 235.238 127.065C235.238 126.254 236.005 125.597 236.951 125.597C237.897 125.597 238.665 126.254 238.665 127.065Z" fill="#184655"/>
<path d="M149.958 157.007C149.958 158.088 149.081 158.965 148 158.965C146.919 158.965 146.042 158.088 146.042 157.007C146.042 155.925 146.919 155.049 148 155.049C149.081 155.049 149.958 155.925 149.958 157.007Z" fill="#184655"/>
<path d="M156.056 119.275C157.181 118.374 157.698 116.383 157.76 115.148C157.84 113.543 157.368 111.878 156.429 110.461C155.496 109.052 154.157 107.971 152.659 107.416C151.505 106.988 150.176 106.837 148.961 107.184C148.417 107.339 147.704 107.584 147.417 108.088C147.087 108.667 147.191 109.433 147.547 109.972C148.101 110.809 149.167 111.079 149.927 110.576C149.929 110.575 149.931 110.573 149.933 110.572L153.767 116.428C153.763 116.431 153.759 116.433 153.756 116.435C152.995 116.939 152.829 118.026 153.383 118.863C153.792 119.48 154.595 119.885 155.334 119.663C155.598 119.583 155.838 119.449 156.056 119.275Z" fill="#F7CC7F"/>
<path d="M153.615 118.709C153.147 118.002 153.278 117.088 153.907 116.669C153.912 116.666 153.915 116.664 153.919 116.661C153.981 116.621 154.025 116.558 154.04 116.485C154.055 116.413 154.041 116.337 154 116.275C154 116.275 150.165 110.418 150.165 110.418C150.123 110.355 150.058 110.312 149.984 110.298C149.909 110.284 149.832 110.301 149.771 110.345C149.14 110.761 148.247 110.525 147.779 109.818C147.454 109.327 147.405 108.672 147.659 108.226C147.889 107.822 148.516 107.6 149.038 107.451C150.101 107.148 151.353 107.228 152.563 107.677C154.006 108.211 155.297 109.255 156.197 110.614C157.103 111.983 157.56 113.588 157.482 115.134C157.427 116.24 156.955 118.198 155.882 119.058C155.685 119.216 155.473 119.33 155.254 119.396C154.606 119.591 153.939 119.198 153.615 118.709Z" fill="#FAE0B2"/>
<path d="M146.809 119.639C145.248 118.806 144.388 117.509 144.23 115.746C146.312 113.808 148.651 112.259 151.247 111.099C152.808 111.931 153.668 113.229 153.826 114.992C151.745 116.93 149.406 118.479 146.809 119.639Z" fill="#FAE0B2"/>
<path d="M151.862 112.248C151.862 112.248 149.896 108.78 149.734 108.862C149.164 109.152 151.862 112.248 151.862 112.248Z" fill="#F7CC7F"/>
<path d="M152.091 112.228C152.091 112.228 151.317 108.317 151.138 108.344C150.506 108.44 152.091 112.228 152.091 112.228Z" fill="#F7CC7F"/>
<path d="M152.357 112.306C152.357 112.306 153.068 108.383 152.891 108.342C152.268 108.2 152.357 112.306 152.357 112.306Z" fill="#F7CC7F"/>
<path d="M152.608 112.529C152.608 112.529 155.049 109.377 154.911 109.26C154.423 108.846 152.608 112.529 152.608 112.529Z" fill="#F7CC7F"/>
<path d="M152.71 112.76C152.71 112.76 156.024 110.544 155.93 110.389C155.599 109.841 152.71 112.76 152.71 112.76Z" fill="#F7CC7F"/>
<path d="M152.875 113.728C152.875 113.728 155.644 116.596 155.52 116.727C155.08 117.192 152.875 113.728 152.875 113.728Z" fill="#F7CC7F"/>
<path d="M152.963 113.466C152.963 113.466 156.59 115.122 156.522 115.289C156.284 115.883 152.963 113.466 152.963 113.466Z" fill="#F7CC7F"/>
<path d="M152.923 113.132C152.923 113.132 156.904 112.927 156.922 113.107C156.983 113.744 152.923 113.132 152.923 113.132Z" fill="#F7CC7F"/>
<path d="M152.792 112.916C152.792 112.916 156.503 111.461 156.577 111.626C156.837 112.211 152.792 112.916 152.792 112.916Z" fill="#F7CC7F"/>
<path d="M316.386 182.5C318.195 181.88 319.733 179.627 320.364 178.114C321.184 176.146 321.34 173.857 320.804 171.667C320.271 169.491 319.085 167.541 317.465 166.176C316.216 165.125 314.625 164.341 312.953 164.229C312.204 164.178 311.205 164.165 310.621 164.665C309.949 165.24 309.735 166.242 309.939 167.074C310.255 168.367 311.464 169.182 312.638 168.895C312.641 168.894 312.644 168.893 312.647 168.893L314.807 177.92C314.801 177.922 314.795 177.923 314.789 177.924C313.614 178.212 312.919 179.493 313.235 180.787C313.469 181.741 314.29 182.606 315.312 182.66C315.677 182.679 316.037 182.62 316.386 182.5Z" fill="#F7CC7F"/>
<path d="M313.594 180.699C313.326 179.607 313.9 178.524 314.873 178.284C314.88 178.282 314.885 178.281 314.891 178.28C314.987 178.257 315.069 178.198 315.121 178.114C315.172 178.031 315.188 177.93 315.165 177.835C315.165 177.835 313.006 168.805 313.005 168.805C312.982 168.707 312.919 168.624 312.833 168.574C312.746 168.523 312.643 168.51 312.546 168.538C311.573 168.773 310.564 168.078 310.297 166.986C310.111 166.228 310.343 165.388 310.861 164.945C311.328 164.544 312.212 164.548 312.928 164.597C314.391 164.695 315.917 165.356 317.227 166.459C318.788 167.773 319.931 169.654 320.445 171.754C320.963 173.869 320.813 176.077 320.023 177.972C319.458 179.328 317.991 181.56 316.266 182.151C315.949 182.26 315.634 182.308 315.331 182.292C314.435 182.245 313.779 181.455 313.594 180.699Z" fill="#FAE0B2"/>
<path d="M304.683 178.808C303.983 178.035 303.497 177.21 303.225 176.332C302.654 174.487 303.695 172.531 305.52 171.9C308.274 170.947 311.118 170.361 314.051 170.14C315.626 171.879 316.117 173.884 315.524 176.154C312.057 177.64 308.444 178.525 304.683 178.808Z" fill="#FAE0B2"/>
<path d="M314.302 171.85C314.302 171.85 313.404 166.64 313.166 166.67C312.324 166.776 314.302 171.85 314.302 171.85Z" fill="#F7CC7F"/>
<path d="M314.599 171.928C314.599 171.928 315.386 166.7 315.15 166.653C314.318 166.489 314.599 171.928 314.599 171.928Z" fill="#F7CC7F"/>
<path d="M314.895 172.143C314.895 172.143 317.541 167.566 317.339 167.437C316.624 166.979 314.895 172.143 314.895 172.143Z" fill="#F7CC7F"/>
<path d="M315.107 172.535C315.107 172.535 319.567 169.696 319.448 169.487C319.025 168.752 315.107 172.535 315.107 172.535Z" fill="#F7CC7F"/>
<path d="M315.132 172.869C315.132 172.869 320.261 171.588 320.214 171.353C320.046 170.522 315.132 172.869 315.132 172.869Z" fill="#F7CC7F"/>
<path d="M314.904 174.151C314.904 174.151 317.074 178.973 316.86 179.081C316.103 179.464 314.904 174.151 314.904 174.151Z" fill="#F7CC7F"/>
<path d="M315.132 173.863C315.132 173.863 318.916 177.556 318.756 177.735C318.191 178.368 315.132 173.863 315.132 173.863Z" fill="#F7CC7F"/>
<path d="M315.23 173.429C315.23 173.429 320.291 174.959 320.232 175.191C320.024 176.014 315.23 173.429 315.23 173.429Z" fill="#F7CC7F"/>
<path d="M315.163 173.1C315.163 173.1 320.448 172.948 320.466 173.188C320.529 174.034 315.163 173.1 315.163 173.1Z" fill="#F7CC7F"/>
<path d="M266.143 120.807C264.024 119.685 260.311 119.915 258.328 120.588C255.714 121.396 253.611 123.076 252.5 125.002C251.381 126.924 251.269 128.927 251.864 130.582C252.322 131.865 253.211 133.051 254.403 133.854C254.942 134.214 255.65 134.677 256.323 134.621C257.098 134.553 257.807 134.014 258.183 133.37C258.764 132.375 258.501 131.174 257.427 130.742C257.425 130.741 257.422 130.74 257.419 130.739C258.886 128.369 260.729 126.116 262.925 124.081C262.931 124.084 262.937 124.088 262.942 124.091C264.125 124.711 265.792 124.621 266.837 123.87C267.6 123.312 267.901 122.353 267.162 121.547C266.898 121.262 266.551 121.014 266.143 120.807Z" fill="#F7CC7F"/>
<path d="M266.488 123.637C265.61 124.282 264.193 124.371 263.208 123.85C263.201 123.846 263.195 123.843 263.19 123.84C263.094 123.787 262.973 123.763 262.855 123.772C262.737 123.782 262.632 123.824 262.563 123.889C262.565 123.882 260.901 125.433 259.558 127.129C258.164 128.802 257.092 130.62 257.093 130.612C257.046 130.689 257.038 130.777 257.07 130.856C257.102 130.934 257.17 130.996 257.26 131.027C258.143 131.38 258.37 132.386 257.885 133.233C257.547 133.824 256.914 134.258 256.309 134.311C255.763 134.356 255.132 133.945 254.618 133.596C253.578 132.882 252.697 131.796 252.231 130.446C251.677 128.843 251.809 126.914 252.901 125.074C253.985 123.229 256.009 121.632 258.512 120.867C260.275 120.269 263.866 119.988 265.879 121.045C266.248 121.231 266.547 121.446 266.767 121.681C267.417 122.379 267.09 123.188 266.488 123.637Z" fill="#FAE0B2"/>
<path d="M267.995 129.846C267.15 131.605 265.816 132.663 264.087 133.343C261.903 131.833 259.584 130.438 257.068 129.09C257.242 127.255 258.355 125.59 260.567 124.454C263.97 125.244 266.505 127.246 267.995 129.846Z" fill="#FAE0B2"/>
<path d="M258.25 127.924C258.137 127.879 255.311 131.877 255.622 132.002C256.213 132.303 258.152 127.906 258.25 127.924Z" fill="#F7CC7F"/>
<path d="M258.075 127.713C257.96 127.617 253.781 130.907 254.063 131.124C254.505 131.533 257.947 127.649 258.075 127.713Z" fill="#F7CC7F"/>
<path d="M258.002 127.414C258.005 127.413 256.596 127.792 255.27 128.339C253.932 128.862 252.677 129.554 252.727 129.641C252.894 129.955 254.118 129.281 255.403 128.655C256.671 128.01 258.001 127.414 258.002 127.414Z" fill="#F7CC7F"/>
<path d="M258.132 127.045C258.135 127.047 256.687 126.885 255.204 126.919C253.727 126.925 252.215 127.127 252.203 127.233C252.15 127.604 253.627 127.393 255.123 127.267C256.617 127.113 258.131 127.045 258.132 127.045Z" fill="#F7CC7F"/>
<path d="M258.372 126.818C258.374 126.821 257.094 126.306 255.714 125.955C254.347 125.582 252.881 125.374 252.819 125.478C252.595 125.838 254.043 126.019 255.482 126.277C256.931 126.509 258.371 126.817 258.372 126.818Z" fill="#F7CC7F"/>
<path d="M259.578 126.147C259.496 126.122 261.977 122.011 262.345 122.124C263.243 122.37 259.464 126.088 259.578 126.147Z" fill="#F7CC7F"/>
<path d="M259.163 126.192C259.156 126.193 259.123 121.749 259.443 121.731C260.498 121.675 259.108 126.188 259.163 126.192Z" fill="#F7CC7F"/>
<path d="M258.733 126.408C258.818 126.365 255.669 122.717 255.842 122.623C256.808 122.122 258.79 126.395 258.733 126.408Z" fill="#F7CC7F"/>
<path d="M258.528 126.652C258.63 126.553 253.909 124.058 253.982 123.973C254.697 123.228 258.632 126.588 258.528 126.652Z" fill="#F7CC7F"/>
<path d="M265.028 73.4809C265.028 74.5309 264.295 75.3821 263.392 75.3821C262.488 75.3821 261.756 74.5309 261.756 73.4809C261.756 72.4309 263.365 68.9111 263.365 68.9111C263.365 68.9111 265.028 72.4309 265.028 73.4809Z" fill="#F7CC7F"/>
<path d="M267.281 100.653C267.281 101.366 266.784 101.943 266.171 101.943C265.557 101.943 265.06 101.365 265.06 100.653C265.06 99.9405 266.153 97.5518 266.153 97.5518C266.153 97.5518 267.281 99.9405 267.281 100.653Z" fill="#F7CC7F"/>
<path d="M248.731 52.5985L228.855 66.3789C228.035 66.9471 226.93 66.8718 226.199 66.1935C226.188 66.1841 226.178 66.1746 226.168 66.165C225.327 65.3789 224.387 64.2554 223.52 63.001C222.653 61.7467 221.934 60.4695 221.496 59.4043C221.49 59.3893 221.484 59.3745 221.478 59.3597C221.103 58.438 221.421 57.3801 222.238 56.8132L242.118 43.0299C243.342 42.1812 245.028 42.4884 245.875 43.7148L245.875 43.7152C246.094 44.0314 246.541 44.0812 246.824 43.8208L250.666 40.2822L254.308 45.553L249.648 47.9091C249.305 48.0821 249.195 48.5189 249.413 48.8349C249.415 48.8379 249.416 48.8382 249.414 48.8356C250.261 50.0619 249.955 51.7499 248.731 52.5985Z" fill="#3C8F7C"/>
<path d="M252.488 42.9174C251.388 41.3246 250.985 40.1962 250.981 39.8369C251.316 39.9671 252.228 40.7417 253.329 42.3346C254.43 43.9275 254.832 45.0558 254.836 45.415C254.502 45.2848 253.589 44.5103 252.488 42.9174Z" fill="#3C8F7C"/>
<path d="M249.414 48.8359L249.414 48.8362C249.416 48.8388 249.416 48.8389 249.414 48.8359Z" fill="#F7CC7F"/>
<path d="M249.414 48.8364C249.414 48.8362 249.413 48.8358 249.413 48.8355C249.195 48.5195 249.305 48.0828 249.648 47.9097L254.308 45.5536L253.81 44.833C251.686 45.1872 248.271 47.0504 248.245 48.2112C248.215 49.5329 247.356 52.7555 242.564 52.6109C238.085 52.4757 231.003 51.4913 230.099 51.3638L222.238 56.8139C221.421 57.3808 221.103 58.4387 221.478 59.3604C221.484 59.3752 221.49 59.3901 221.496 59.4051C221.934 60.4702 222.653 61.7475 223.52 63.0017C224.387 64.256 225.327 65.3795 226.168 66.1658C226.178 66.1754 226.188 66.1848 226.199 66.1942C226.93 66.8727 228.035 66.9479 228.855 66.3796L248.731 52.5993C249.955 51.7505 250.261 50.0627 249.414 48.8364Z" fill="#F7CC7F"/>
<path d="M242.922 56.9535C242.942 56.9395 242.957 56.9181 242.969 56.8926L242.849 56.9761C242.877 56.9741 242.902 56.9676 242.922 56.9535Z" fill="#899DAD"/>
<path d="M236.001 46.9386C235.979 46.9543 235.962 46.978 235.95 47.008L236.084 46.915C236.052 46.9156 236.024 46.9228 236.001 46.9386Z" fill="#899DAD"/>
<path d="M231.296 62.6597C230.868 62.9559 229.339 61.484 227.88 59.372C226.42 57.26 225.583 55.3078 226.011 55.0115C226.438 54.7154 227.967 56.1873 229.427 58.2993C230.886 60.4113 231.723 62.3635 231.296 62.6597Z" fill="#EBECED"/>
<path d="M242.041 49.7278C240.498 47.4949 239.316 45.637 239.401 45.5781L225.504 55.2135C225.076 55.5097 225.981 57.56 227.524 59.793C229.067 62.0259 230.664 63.5959 231.091 63.2997L244.989 53.6643C244.904 53.7232 243.584 51.9608 242.041 49.7278Z" fill="#FAE0B2"/>
<path d="M253.598 42.1475C252.415 40.4356 251.117 39.283 250.698 39.573C250.28 39.8632 250.9 41.486 252.083 43.198C253.266 44.9099 254.564 46.0625 254.982 45.7724C255.401 45.4824 254.781 43.8594 253.598 42.1475ZM252.488 42.917C251.388 41.3242 250.985 40.1958 250.981 39.8365C251.316 39.9667 252.228 40.7413 253.329 42.3342C254.43 43.9271 254.832 45.0554 254.836 45.4146C254.502 45.2844 253.589 44.5099 252.488 42.917Z" fill="#184655"/>
<path d="M249.694 40.4468C249.671 40.5064 249.833 43.5205 253.032 46.1204C253.239 46.2883 253.518 46.3381 253.771 46.2564C254.225 46.1099 254.916 45.871 255.032 45.7375C255.209 45.5357 254.379 45.4134 254.379 45.4134L253.162 44.174L251.672 41.9035L250.868 40.1479L250.749 39.5381C250.749 39.5381 250.001 39.661 249.694 40.4468Z" fill="#184655"/>
<path d="M259.979 53.3282C258.435 49.8869 256.515 44.8997 254.607 44.7782C254.475 44.7698 254.331 44.7727 254.177 44.7857L254.67 45.6455C255.218 46.7733 255.646 47.489 256.28 49.3864C256.913 51.2825 257.087 53.2916 256.89 55.2812C256.837 55.8201 256.915 56.3954 257.282 56.8899C258.331 58.3028 261.523 56.7694 259.979 53.3282Z" fill="#F7CC7F"/>
<path d="M132.554 163.758C129.941 168.767 133.276 174.418 133.284 174.466C134.537 176.689 136.569 178.61 139.485 179.919C140.326 180.288 141.184 180.577 142.097 180.762L142.462 179.074C141.712 179.134 139.5 178.614 137.858 177.557C136.424 176.676 135.178 175.439 134.328 173.935C132.794 171.317 132.277 167.529 133.727 164.698C133.373 164.32 132.967 163.998 132.554 163.758Z" fill="#184655"/>
<path d="M204.879 177.976C204.879 169.92 196.437 163.391 186.023 163.391C178.448 163.391 171.921 166.847 168.922 171.83C153.363 172.503 141.352 176.865 141.352 182.149C141.352 184.616 143.797 186.348 145.72 187.421C149.272 189.404 153.363 190.439 157.332 191.186C162.272 192.116 167.27 192.716 172.284 193.054C177.099 193.378 182.018 193.631 186.833 193.227C190.675 192.905 194.484 191.979 197.857 190.063C200.659 188.471 202.946 186.081 204.05 183.019C204.632 181.405 204.879 179.687 204.879 177.976Z" fill="#355389"/>
<path d="M149.63 178.831C149.63 178.831 171.063 177.059 173.116 176.334C175.169 175.609 174.652 170.877 182.655 169.242C190.657 167.607 195.518 170.274 196.487 174.491C197.455 178.707 191.776 182.149 189.711 179.309C187.646 176.47 187.043 173.219 182.397 173.812C177.75 174.404 174.222 178.413 174.222 178.413L149.63 178.831Z" fill="#466EB6"/>
<path d="M150.986 178.132L149.556 178.87C149.364 178.969 149.331 179.229 149.492 179.373L150.565 180.33C150.743 180.487 150.682 180.778 150.456 180.852L149.074 181.3C148.831 181.378 148.784 181.7 148.994 181.845L150.888 183.154L150.966 183.206L148.66 184.516C148.474 184.621 148.45 184.88 148.614 185.018L150.076 186.247C150.249 186.393 150.211 186.669 150.005 186.763L147.993 187.674C147.862 187.733 147.79 187.874 147.819 188.015L148.039 189.096C148.081 189.306 147.901 189.495 147.69 189.461C140.944 188.368 139.444 183.167 139.354 182.83C139.351 182.819 139.348 182.808 139.346 182.797C139.23 182.06 139.21 181.379 139.272 180.759C139.844 174.933 147.566 173.989 150.479 173.84C150.793 173.824 150.926 174.235 150.661 174.406L150.351 174.606C150.131 174.747 150.176 175.079 150.425 175.158C150.658 175.231 150.717 175.533 150.528 175.688L149.851 176.247C149.698 176.373 149.703 176.609 149.861 176.729L151.031 177.614C151.211 177.751 151.187 178.029 150.986 178.132Z" fill="#3C8F7C"/>
<path d="M226.853 196.617C227.178 196.944 227.09 196.762 227.397 197.083C219.849 201.461 215.584 203.101 214.131 200.704C213.224 200.262 215.069 197.352 216.143 196.678C219.073 194.839 224.535 196.261 226.853 196.617Z" fill="#F47458"/>
<path d="M219.426 177.658C220.444 181.277 220.646 183.179 218.778 186.397C218.813 186.409 218.848 186.416 218.886 186.422C219.773 186.644 220.667 186.695 221.587 186.527C221.823 186.481 222.758 186.552 223.216 186.487C223.216 186.487 223.217 186.492 223.221 186.486C223.331 186.472 223.412 186.45 223.453 186.418C226.016 184.243 226.312 181.698 226.107 178.338C226.117 177.739 222.224 176.457 219.426 177.658Z" fill="#F47458"/>
<path d="M219.554 177.612C217.635 176.702 214.505 178.405 213.005 179.32C214.941 181.539 215.247 183.564 214.583 186.45C215.417 186.618 218.276 187.053 218.886 186.422C218.906 186.403 218.922 186.386 218.937 186.364C220.888 184.042 221.184 181.965 220.924 180.422C220.666 178.85 219.757 177.666 219.554 177.612Z" fill="#F47458"/>
<path d="M230.605 180.505C228.845 177.848 225.993 178.208 225.945 178.278C225.917 178.28 225.894 178.28 225.867 178.286C226.147 182.783 225.138 184.147 223.008 186.375C223.076 186.413 223.144 186.451 223.216 186.487C223.216 186.487 223.217 186.492 223.221 186.486C223.886 186.831 225.357 187.322 226.014 187.002C227.355 186.376 228.268 185.656 228.961 184.776C229.747 183.763 230.841 181.246 230.706 180.725C230.689 180.653 230.656 180.579 230.605 180.505Z" fill="#F47458"/>
<path d="M234.939 190.183C234.618 195.192 230.898 195.814 227.696 197.023C227.463 197.11 227.229 197.146 227.02 197.134C226.559 197.104 226.247 196.835 226.453 196.337C227.089 194.811 228.126 193.158 228.131 190.897C228.134 190.891 228.133 190.886 228.133 190.882C230.512 191.71 232.562 191.132 234.939 190.183Z" fill="#F47458"/>
<path d="M230.709 180.715C230.71 180.719 230.706 180.72 230.706 180.725C229.368 184.529 229.137 184.726 225.662 186.77C225.894 187.466 227.09 189.449 227.754 189.308C228.593 189.086 229.385 188.837 230.132 188.521C232.345 187.577 233.776 186.04 233.855 185.803L233.86 185.802C234.066 185.284 232.9 182.199 230.709 180.715Z" fill="#F47458"/>
<path d="M233.86 185.802L233.855 185.803C231.287 188.266 231.296 187.806 227.832 188.936C227.708 188.976 227.634 189.115 227.608 189.309C227.522 189.865 227.801 190.832 228.287 190.981C231.049 191.923 234.211 191.574 234.894 190.631C235.753 189.479 234.914 186.844 233.86 185.802Z" fill="#F47458"/>
<path d="M227.063 196.697C224.388 196.36 219.733 195.424 217.038 196.642C216.599 196.84 215.95 197.221 215.515 197.467C214.376 196.835 215.627 193.799 220.269 194.294C222.023 194.48 225.475 196.123 227.063 196.697Z" fill="#B75742"/>
<path d="M205.236 189.926C202.722 191.655 201.751 192.852 197.711 192.846C203.505 191.871 202.741 189.43 204.869 189.897C204.968 189.918 205.077 189.914 205.236 189.926Z" fill="#B75742"/>
<path d="M202.033 194.084C203.712 193.301 205.213 192.65 206.461 190.582C206.997 189.692 207.384 189.896 208.085 189.822C206.695 192.032 204.706 193.546 202.033 194.084Z" fill="#B75742"/>
<path d="M220.392 189.954C220.746 188.891 222.151 187.305 223.117 186.603C223.274 186.704 223.812 187.048 223.982 187.158C222.867 187.669 221.087 189.05 220.392 189.954Z" fill="#B75742"/>
<path d="M219.812 186.75C219.353 187.761 218.691 189.602 218.835 190.611C218.355 190.051 218.763 187.604 219.15 186.555C219.307 186.59 219.633 186.71 219.812 186.75Z" fill="#B75742"/>
<path d="M221.645 186.435C220.968 187.24 219.626 189.434 219.397 190.382C219.176 189.714 219.588 188.735 219.906 188.067C220.51 186.49 221.114 186.354 221.645 186.435Z" fill="#B75742"/>
<path d="M231.452 190.366C230.275 189.668 230.138 188.821 230.592 188.038L230.597 188.037C230.76 187.754 230.953 187.577 230.953 187.577C228.408 186.872 230.867 184.765 228.721 184.55C226.872 184.419 226.243 179.907 226.063 178.24C226.063 178.212 226.061 178.198 226.061 178.198C226.061 178.198 226.058 178.213 226.048 178.243C226.036 178.292 226.004 178.379 225.967 178.49C225.689 179.295 224.763 181.522 223.004 181.894C222.104 182.084 221.201 181.379 220.453 180.491C219.455 179.293 218.697 177.684 218.692 177.674C218.414 180.613 216.001 182.651 214.083 183.822L213.986 187.194C214.538 188.418 217.145 188.56 218.074 188.037C219.901 188.348 220.669 188.002 221.664 187.982C222.033 187.972 222.55 188.029 222.97 187.982C223.741 188.296 224.057 187.895 224.928 187.819C225.292 188.465 226.598 189.108 227.326 189.397C227.314 189.909 227.516 190.54 227.929 190.877C227.929 193.016 226.929 194.521 226.207 196.231C225.968 196.732 226.307 196.994 226.816 197.013C228.94 195.623 233.41 191.526 231.452 190.366Z" fill="#B75742"/>
<path d="M215.411 186.869C208.78 194.092 188.222 187.983 188.083 187.911C188.347 187.743 199.533 182.493 200.644 182.184C201.167 185.1 205.747 183.295 204.347 180.939C207.231 180.125 209.887 179.409 213.422 179.101C213.541 179.09 213.7 179.143 213.766 179.217C216.527 182.407 216.166 186.219 215.411 186.869Z" fill="#F47458"/>
<path d="M204.936 181.983C205.202 183.445 204.326 184.864 202.978 185.153C201.631 185.442 200.322 184.491 200.056 183.029C199.79 181.567 200.666 180.148 202.014 179.859C203.361 179.57 204.67 180.521 204.936 181.983Z" fill="#184655"/>
<path d="M182.058 187.922C184.701 185.306 188.775 182.312 192.129 183.71C194.109 184.517 195.276 186.869 195.268 186.859C195.443 187.17 195.818 187.268 196.105 187.078C196.396 186.885 196.491 186.462 196.289 186.141C194.718 183.662 192.729 182.104 189.947 182.395C186.322 182.781 182.422 186.441 180.142 189.467C179.998 189.658 180.257 189.899 180.409 189.716C180.409 189.716 181.473 188.505 182.058 187.922Z" fill="#F47458"/>
<path d="M313.265 123.333L313.342 123.419C313.51 123.599 313.565 123.865 313.482 124.101C313.482 124.101 313.478 124.104 313.481 124.108C313.404 124.311 313.424 124.539 313.544 124.719L313.601 124.815C313.721 124.996 313.919 125.107 314.132 125.126C314.136 125.122 314.14 125.126 314.144 125.123C314.391 125.14 314.608 125.304 314.702 125.535L314.748 125.642C314.847 125.869 314.813 126.138 314.647 126.329L314.643 126.332C314.504 126.498 314.444 126.721 314.491 126.931L314.519 127.04C314.566 127.25 314.712 127.428 314.907 127.513C314.915 127.513 314.915 127.513 314.918 127.517C315.15 127.619 315.296 127.845 315.308 128.094L315.313 128.209C315.325 128.458 315.201 128.696 314.983 128.821C314.979 128.824 314.979 128.824 314.975 128.828C314.788 128.932 314.659 129.117 314.629 129.334L314.615 129.445C314.588 129.658 314.669 129.873 314.824 130.023C314.827 130.027 314.827 130.027 314.831 130.03C315.006 130.203 315.069 130.469 314.993 130.706L314.961 130.812C314.889 131.052 314.69 131.237 314.443 131.275C314.439 131.279 314.439 131.279 314.432 131.278C314.219 131.315 314.034 131.445 313.938 131.636L313.884 131.741C313.788 131.932 313.787 132.157 313.884 132.352C313.883 132.359 313.883 132.359 313.887 132.363C313.996 132.587 313.963 132.856 313.811 133.055L313.743 133.144C313.592 133.343 313.341 133.447 313.096 133.4L313.088 133.4C312.876 133.359 312.658 133.421 312.498 133.564L312.416 133.644C312.256 133.794 312.177 134.005 312.202 134.221L312.202 134.229C312.229 134.478 312.108 134.72 311.893 134.856L311.801 134.917C311.59 135.05 311.319 135.061 311.103 134.938C311.1 134.934 311.1 134.934 311.096 134.93C310.91 134.824 310.681 134.804 310.484 134.889L310.382 134.931C310.177 135.016 310.038 135.19 309.982 135.402L309.981 135.409C309.919 135.654 309.724 135.836 309.48 135.892L309.368 135.916C309.124 135.973 308.869 135.892 308.71 135.698C308.706 135.694 308.706 135.694 308.703 135.69C308.564 135.527 308.358 135.43 308.143 135.441L308.027 135.445C307.812 135.455 307.613 135.57 307.496 135.753L307.492 135.756C307.351 135.967 307.1 136.072 306.854 136.039L306.744 136.026C306.494 135.997 306.281 135.83 306.194 135.592L306.19 135.588C306.12 135.384 305.959 135.22 305.751 135.16L305.642 135.124C305.438 135.061 305.214 135.1 305.04 135.228C305.036 135.231 305.033 135.235 305.033 135.235C304.828 135.383 304.557 135.394 304.337 135.281L304.236 135.231C304.013 135.115 303.867 134.889 303.87 134.633C303.87 134.633 303.87 134.633 303.87 134.626C303.871 134.415 303.775 134.206 303.601 134.074L303.512 134.006C303.338 133.874 303.114 133.836 302.907 133.895C302.903 133.898 302.903 133.898 302.899 133.902C302.659 133.97 302.396 133.889 302.229 133.709L302.152 133.623C302.068 133.53 302.008 133.415 301.985 133.296L302.936 132.445L311.75 124.535L313.177 123.259C313.209 123.278 313.241 123.306 313.265 123.333Z" fill="#3C8F7C"/>
<path d="M311.751 124.534C313.766 126.786 313.53 130.289 311.219 132.357C308.915 134.419 305.419 134.271 303.399 132.029L311.751 124.534Z" fill="#50BFA5"/>
<path d="M305.711 132.535C305.545 132.791 305.204 132.864 304.948 132.699C304.692 132.533 304.619 132.192 304.785 131.936C304.95 131.68 305.797 130.934 306.053 131.1C306.308 131.265 305.876 132.279 305.711 132.535Z" fill="#F7CC7F"/>
<path d="M308.302 132.304C308.399 132.593 308.243 132.905 307.953 133.002C307.664 133.098 307.352 132.942 307.256 132.653C307.159 132.364 307.106 131.237 307.395 131.141C307.684 131.044 308.206 132.015 308.302 132.304Z" fill="#F7CC7F"/>
<path d="M310.548 130.807C310.797 130.982 310.857 131.326 310.682 131.576C310.507 131.825 310.163 131.885 309.914 131.71C309.664 131.535 308.951 130.661 309.126 130.411C309.302 130.162 310.298 130.632 310.548 130.807Z" fill="#F7CC7F"/>
<path d="M311.478 128.322C311.777 128.381 311.971 128.671 311.913 128.97C311.854 129.269 311.564 129.464 311.265 129.405C310.966 129.346 309.959 128.836 310.018 128.537C310.077 128.238 311.179 128.263 311.478 128.322Z" fill="#F7CC7F"/>
<path d="M311.203 125.871C311.491 125.773 311.805 125.928 311.902 126.217C312 126.505 311.846 126.819 311.557 126.916C311.269 127.014 310.142 127.074 310.044 126.785C309.946 126.496 310.914 125.969 311.203 125.871Z" fill="#F7CC7F"/>
<path d="M314.741 176.98C315.499 180.226 311.975 183.822 306.87 185.013C301.766 186.203 297.015 184.536 296.258 181.29C295.501 178.044 299.025 174.448 304.129 173.257C309.233 172.067 313.985 173.734 314.741 176.98Z" fill="#184655"/>
<path d="M243.383 55.0707C243.142 54.8813 242.775 54.6546 242.665 54.4043C242.556 54.154 244.151 54.5503 244.063 54.3023C243.975 54.0544 243.165 53.7244 242.866 53.7244C242.567 53.7244 241.212 53.6875 241.212 53.6875L237.433 52.6578C237.433 52.6578 229.719 50.5375 229.24 50.3939L222.696 44.4072L219.513 46.8454C219.513 46.8454 226.641 53.4535 227.13 53.7052C227.541 53.9166 240.319 55.4548 240.319 55.4548C240.319 55.4548 241.683 56.893 242.472 56.9746C243.26 57.0562 244.648 55.4377 244.648 55.4377C244.648 55.4377 243.623 55.26 243.383 55.0707Z" fill="#F8A492"/>
<path d="M222.585 42.4234C221.901 41.4783 220.929 40.7631 219.688 41.1179C218.919 41.3377 218.306 41.9788 218.054 42.7297C217.755 43.6233 218.012 45.0319 218.498 45.7954C219.601 47.529 221.031 49.0144 222.428 50.5251C223.921 49.4099 225.834 47.8789 226.192 46.7039C226.185 46.6939 223.488 43.6723 222.585 42.4234Z" fill="#86B1F2"/>
<path d="M247.762 53.9006C247.762 53.9006 247.599 52.9238 247.735 52.6223C247.871 52.3207 247.936 52.4837 247.973 52.6049C248.009 52.724 248.072 53.1493 248.072 53.1493C248.072 53.1493 247.966 52.3538 248.046 52.1153C248.126 51.8767 248.335 51.8448 248.415 51.9195C248.496 51.9943 248.644 52.7255 248.644 52.7255C248.644 52.7255 248.35 51.5877 248.536 51.4291C248.722 51.2705 249.375 52.3298 249.234 52.8559C249.092 53.382 247.762 53.9006 247.762 53.9006Z" fill="#F8A492"/>
<path d="M313.01 109.598C311.008 111.84 307.172 111.491 304.022 109.388C300.89 107.258 299.126 103.834 300.452 101.137C301.761 98.4533 306.283 97.7778 310.105 100.359C313.933 102.932 315.005 107.376 313.01 109.598Z" fill="#3C8F7C"/>
<path d="M312.279 108.704C310.71 110.737 307.421 110.597 304.657 108.839C301.905 107.062 300.338 104.107 301.394 101.777C302.439 99.4599 306.168 98.8208 309.442 100.891C312.719 102.953 313.844 106.686 312.279 108.704Z" fill="#50BFA5"/>
<path d="M303.739 106.847C303.476 106.928 303.133 106.788 302.968 106.533C302.803 106.278 302.879 106 303.142 105.914C303.404 105.824 304.517 105.793 304.682 106.061C304.845 106.323 304 106.764 303.739 106.847Z" fill="#96D9C9"/>
<path d="M306.252 108.444C306.201 108.697 305.918 108.806 305.622 108.693C305.325 108.58 305.122 108.287 305.169 108.034C305.216 107.782 305.68 106.988 305.985 107.102C306.293 107.216 306.306 108.192 306.252 108.444Z" fill="#96D9C9"/>
<path d="M308.919 108.936C309.047 109.221 308.926 109.483 308.654 109.524C308.382 109.565 308.061 109.373 307.932 109.094C307.808 108.814 307.602 107.771 307.873 107.722C308.151 107.671 308.796 108.65 308.919 108.936Z" fill="#96D9C9"/>
<path d="M311.056 107.96C311.287 108.216 311.306 108.544 311.103 108.69C310.901 108.836 310.555 108.749 310.327 108.498C310.103 108.244 309.469 107.211 309.663 107.058C309.864 106.901 310.829 107.701 311.056 107.96Z" fill="#96D9C9"/>
<path d="M311.774 105.673C312.09 105.793 312.328 106.116 312.305 106.389C312.281 106.663 312.009 106.781 311.698 106.66C311.389 106.533 310.292 105.854 310.304 105.587C310.318 105.312 311.458 105.548 311.774 105.673Z" fill="#96D9C9"/>
<path d="M302.297 103.207C301.973 103.168 301.742 103.355 301.777 103.619C301.812 103.884 302.097 104.128 302.415 104.169C302.733 104.206 303.843 104.107 303.817 103.842C303.79 103.569 302.62 103.241 302.297 103.207Z" fill="#96D9C9"/>
<path d="M303.532 101.528C303.277 101.301 302.894 101.244 302.681 101.398C302.469 101.553 302.505 101.856 302.757 102.078C303.014 102.296 304.11 102.956 304.324 102.814C304.544 102.667 303.791 101.752 303.532 101.528Z" fill="#96D9C9"/>
<path d="M305.987 100.816C305.914 100.538 305.583 100.29 305.253 100.268C304.922 100.246 304.719 100.454 304.797 100.729C304.878 101.003 305.463 102.009 305.783 102.038C306.108 102.067 306.063 101.095 305.987 100.816Z" fill="#96D9C9"/>
<path d="M308.902 101.749C308.979 101.507 308.776 101.182 308.447 101.026C308.118 100.871 307.792 100.946 307.72 101.188C307.651 101.431 307.713 102.442 308.03 102.595C308.349 102.75 308.825 101.99 308.902 101.749Z" fill="#96D9C9"/>
<path d="M311.163 103.628C311.395 103.51 311.399 103.192 311.166 102.92C310.933 102.648 310.554 102.53 310.323 102.654C310.092 102.777 309.51 103.487 309.74 103.75C309.968 104.011 310.929 103.745 311.163 103.628Z" fill="#96D9C9"/>
</svg>
