<svg width="24" height="24" viewBox="0 0 24 24" fill="none" xmlns="http://www.w3.org/2000/svg">
<g id="heroicons:paper-airplane-solid">
<path id="Vector" d="M3.47803 2.4038C3.34807 2.36604 3.21031 2.36416 3.07936 2.39834C2.94841 2.43253 2.82915 2.50151 2.73423 2.59797C2.6393 2.69443 2.57224 2.81479 2.54017 2.94627C2.50809 3.07775 2.51219 3.21546 2.55203 3.3448L4.98403 11.2498H13.5C13.6989 11.2498 13.8897 11.3288 14.0304 11.4695C14.171 11.6101 14.25 11.8009 14.25 11.9998C14.25 12.1987 14.171 12.3895 14.0304 12.5301C13.8897 12.6708 13.6989 12.7498 13.5 12.7498H4.98403L2.55203 20.6548C2.51243 20.7841 2.50851 20.9217 2.54069 21.053C2.57287 21.1843 2.63995 21.3045 2.73484 21.4008C2.82973 21.4971 2.94889 21.566 3.07972 21.6002C3.21055 21.6343 3.34817 21.6325 3.47803 21.5948C10.0931 19.6715 16.3312 16.6324 21.923 12.6088C22.0197 12.5393 22.0984 12.4479 22.1527 12.342C22.207 12.2361 22.2353 12.1188 22.2353 11.9998C22.2353 11.8808 22.207 11.7635 22.1527 11.6576C22.0984 11.5517 22.0197 11.4603 21.923 11.3908C16.3312 7.36681 10.0932 4.32744 3.47803 2.4038Z" fill="white"/>
</g>
</svg>
