<svg width="18" height="18" viewBox="0 0 18 18" fill="none" xmlns="http://www.w3.org/2000/svg">
<path d="M9 0C4.02945 0 0 4.02945 0 9C0 13.9706 4.02945 18 9 18C13.9706 18 18 13.9706 18 9C18 4.02945 13.9706 0 9 0ZM14.5154 14.5154C13.1478 15.879 11.3215 16.6845 9.39246 16.775C7.46338 16.8656 5.56968 16.2347 4.08035 15.0053C2.59102 13.7759 1.61275 12.036 1.33616 10.1247C1.05957 8.21342 1.50447 6.2676 2.58417 4.66641C3.66387 3.06523 5.30103 1.92337 7.17664 1.46333C9.05226 1.0033 11.032 1.25804 12.73 2.17792C14.4281 3.09781 15.7228 4.61693 16.362 6.4393C17.0012 8.26167 16.939 10.2567 16.1875 12.0357C15.7959 12.9627 15.228 13.8049 14.5154 14.5154Z" fill="#65558F"/>
<path d="M8.99998 13.8C10.0343 13.8 11.0263 13.3891 11.7577 12.6577C12.4891 11.9263 12.9 10.9344 12.9 9.90001H5.09998C5.09998 10.9344 5.51087 11.9263 6.24226 12.6577C6.97366 13.3891 7.96564 13.8 8.99998 13.8ZM7.11587 7.96096L7.88409 7.03906L5.69998 5.21899L3.51587 7.03906L4.28409 7.96096L5.69998 6.78102L7.11587 7.96096ZM10.1159 7.03906L10.8841 7.96096L12.3 6.78102L13.7159 7.96096L14.4841 7.03906L12.3 5.21899L10.1159 7.03906Z" fill="#65558F"/>
</svg>
