<svg width="342" height="240" viewBox="0 0 342 240" fill="none" xmlns="http://www.w3.org/2000/svg">
<path d="M30.6369 200.376C30.6369 200.376 25.6876 162.62 49.0211 148.891C72.3546 135.162 55.3846 99.7186 66.6985 84.1237C78.0118 68.5289 102.052 60.0226 138.82 92.6306C175.587 125.238 191.143 82.7066 192.557 74.2003C193.97 65.694 213.061 29.5431 247.709 45.846C282.356 62.1494 244.175 111.769 265.387 125.237C286.599 138.705 329.731 145.084 310.64 200.375H30.6369V200.376Z" fill="#E0F9FE"/>
<path d="M136.476 131.487L136.69 132.391L139.028 131.744L138.754 130.856L136.476 131.487Z" fill="#FF5F80"/>
<path d="M133.013 132.17L133.15 133.087C133.155 133.138 135.531 132.65 135.533 132.643L135.334 131.732C135.334 131.732 133.02 132.217 133.013 132.17Z" fill="#FF5F80"/>
<path d="M129.498 132.486L129.542 133.42C129.542 133.42 130.153 133.394 130.759 133.362C131.362 133.318 131.969 133.231 131.969 133.231L131.861 132.309C131.861 132.309 131.276 132.391 130.686 132.437C130.094 132.463 129.498 132.486 129.498 132.486Z" fill="#FF5F80"/>
<path d="M125.987 132.477L125.93 133.408L128.359 133.478L128.35 132.542L125.987 132.477Z" fill="#FF5F80"/>
<path d="M122.494 132.038L122.331 132.955C122.331 132.955 122.926 133.083 123.536 133.156C124.135 133.222 124.742 133.283 124.742 133.283L124.831 132.363C124.831 132.363 124.245 132.302 123.659 132.238C123.076 132.165 122.494 132.038 122.494 132.038Z" fill="#FF5F80"/>
<path d="M119.068 131.237L118.799 132.121C118.799 132.121 119.392 132.284 119.978 132.442C120.57 132.609 121.159 132.737 121.159 132.737L121.359 131.828C121.359 131.828 120.784 131.697 120.204 131.538C119.645 131.38 119.068 131.237 119.068 131.237Z" fill="#FF5F80"/>
<path d="M115.786 130.002L115.41 130.853C115.41 130.853 115.957 131.109 116.525 131.335C117.097 131.539 117.678 131.744 117.678 131.744L117.979 130.861C117.979 130.861 117.423 130.667 116.869 130.471C116.319 130.253 115.786 130.002 115.786 130.002Z" fill="#FF5F80"/>
<path d="M112.658 128.404L112.177 129.203L114.319 130.368L114.731 129.526L112.658 128.404Z" fill="#FF5F80"/>
<path d="M109.787 126.379L109.2 127.112C109.2 127.112 109.687 127.481 110.175 127.853C110.661 128.221 111.181 128.545 111.181 128.545L111.689 127.773C111.689 127.773 111.189 127.455 110.718 127.104C110.247 126.746 109.787 126.379 109.787 126.379Z" fill="#FF5F80"/>
<path d="M107.193 124.021L106.522 124.669C106.47 124.709 108.281 126.355 108.281 126.355L108.891 125.653C108.891 125.653 107.148 124.063 107.193 124.021Z" fill="#FF5F80"/>
<path d="M104.938 121.323L104.188 121.871C104.188 121.871 105.661 123.826 105.705 123.786L106.415 123.168C106.368 123.211 104.936 121.329 104.938 121.323Z" fill="#FF5F80"/>
<path d="M103.11 118.338L102.284 118.768C102.284 118.768 102.572 119.312 102.863 119.849C103.192 120.363 103.522 120.882 103.522 120.882L104.295 120.373C104.295 120.373 103.982 119.872 103.658 119.381C103.375 118.864 103.11 118.338 103.11 118.338Z" fill="#FF5F80"/>
<path d="M101.698 115.123L100.816 115.438C100.77 115.459 101.739 117.705 101.739 117.705L102.576 117.314C102.576 117.314 101.645 115.145 101.698 115.123Z" fill="#FF5F80"/>
<path d="M100.776 111.737L99.8696 111.924C99.8702 111.922 100.4 114.308 100.458 114.294L101.348 114.024C101.29 114.038 100.791 111.737 100.776 111.737Z" fill="#FF5F80"/>
<path d="M100.349 108.259L99.4184 108.307C99.4184 108.307 99.4036 108.921 99.5119 109.522C99.5848 110.134 99.6658 110.739 99.6658 110.739L100.581 110.595C100.586 110.6 100.287 108.259 100.349 108.259Z" fill="#FF5F80"/>
<path d="M100.38 104.737L99.4501 104.668C99.4501 104.668 99.3054 107.113 99.3669 107.111L100.293 107.099C100.24 107.098 100.379 104.741 100.38 104.737Z" fill="#FF5F80"/>
<path d="M100.881 101.257L99.9706 101.069C99.9136 101.056 99.579 103.479 99.579 103.479L100.511 103.596C100.511 103.596 100.826 101.246 100.881 101.257Z" fill="#FF5F80"/>
<path d="M101.796 97.8586L100.915 97.5654C100.915 97.5654 100.174 99.8894 100.237 99.9071L101.145 100.131C101.08 100.117 101.796 97.8586 101.796 97.8586Z" fill="#FF5F80"/>
<path d="M103.048 94.5584L102.206 94.1738L101.294 96.4367L102.159 96.7595L103.048 94.5584Z" fill="#FF5F80"/>
<path d="M104.664 91.4109L103.849 90.9543C103.81 90.9303 102.736 93.1097 102.728 93.108L103.556 93.5149C103.556 93.5149 104.61 91.384 104.664 91.4109Z" fill="#FF5F80"/>
<path d="M106.543 88.413L105.774 87.8936C105.774 87.8936 105.423 88.3901 105.08 88.8901C104.769 89.4141 104.462 89.933 104.462 89.933L105.256 90.4158C105.256 90.4158 105.554 89.905 105.867 89.3964C106.202 88.9078 106.543 88.413 106.543 88.413Z" fill="#FF5F80"/>
<path d="M108.645 85.5697L107.918 84.9902C107.918 84.9902 107.549 85.4599 107.165 85.9337C106.776 86.4034 106.454 86.9188 106.454 86.9188L107.204 87.4588C107.204 87.4588 107.523 86.9577 107.902 86.4971C108.277 86.0365 108.645 85.5697 108.645 85.5697Z" fill="#FF5F80"/>
<path d="M110.947 82.8795L110.269 82.248C110.269 82.248 109.858 82.6943 109.454 83.1423C109.025 83.5818 108.659 84.0652 108.659 84.0652L109.373 84.6623C109.373 84.6623 109.738 84.188 110.15 83.7583C110.552 83.3189 110.947 82.8795 110.947 82.8795Z" fill="#FF5F80"/>
<path d="M113.45 80.3919L112.831 79.6953L111.077 81.3759L111.735 82.0296L113.45 80.3919Z" fill="#FF5F80"/>
<path d="M116.222 78.2273L115.705 77.457C115.705 77.457 115.194 77.805 114.694 78.1576C114.219 78.549 113.752 78.9313 113.752 78.9313L114.343 79.6542C114.343 79.6542 114.795 79.273 115.253 78.9005C115.733 78.5633 116.222 78.2273 116.222 78.2273Z" fill="#FF5F80"/>
<path d="M119.247 76.4907L118.859 75.6479C118.821 75.585 116.697 76.7987 116.697 76.7987L117.179 77.5924C117.179 77.5924 119.216 76.4284 119.247 76.4907Z" fill="#FF5F80"/>
<path d="M122.527 75.3954L122.334 74.4834C122.334 74.4834 121.711 74.5685 121.144 74.78C120.548 74.9674 119.959 75.1588 119.959 75.1588L120.293 76.0263C120.293 76.0263 120.843 75.8525 121.401 75.676C121.947 75.4703 122.527 75.3925 122.527 75.3954Z" fill="#FF5F80"/>
<path d="M125.934 75.1686L126.016 74.2464C126.016 74.2464 125.398 74.2218 124.77 74.1875C124.157 74.2441 123.531 74.2789 123.531 74.2789L123.637 75.2075C123.637 75.2075 124.212 75.1646 124.787 75.1241C125.355 75.1532 125.934 75.1686 125.934 75.1686Z" fill="#FF5F80"/>
<path d="M129.212 76.0554L129.599 75.2143C129.623 75.1525 127.255 74.328 127.233 74.4342L127.038 75.3451C127.073 75.244 129.229 75.9988 129.212 76.0554Z" fill="#FF5F80"/>
<path d="M131.985 77.9998L132.644 77.3421C132.684 77.2952 130.744 75.6992 130.678 75.7941L130.195 76.585C130.255 76.5004 132.017 77.9547 131.985 77.9998Z" fill="#FF5F80"/>
<path d="M133.882 80.7877L134.742 80.43C134.742 80.43 134.47 79.854 134.164 79.2957C134 79.0329 133.83 78.7729 133.694 78.5809C133.567 78.3809 133.456 78.2666 133.456 78.2666L132.722 78.8317C132.722 78.8317 132.829 78.9346 132.939 79.1186C133.057 79.3015 133.208 79.5369 133.373 79.774C133.64 80.2717 133.882 80.7877 133.882 80.7877Z" fill="#FF5F80"/>
<path d="M134.374 84.0323L135.295 84.162C135.295 84.162 135.313 83.9963 135.34 83.7632C135.368 83.514 135.351 83.1906 135.325 82.8712C135.317 82.2198 135.101 81.6146 135.124 81.6055L134.225 81.8352C134.197 81.8369 134.399 82.3798 134.398 82.9352C134.486 83.4946 134.355 84.0323 134.374 84.0323Z" fill="#FF5F80"/>
<path d="M132.846 86.7682L133.43 87.4957C133.408 87.4779 133.984 87.1196 134.335 86.5431C134.78 86.0442 134.952 85.3854 134.988 85.4031L134.12 85.0648C134.09 85.0488 133.958 85.5939 133.594 85.9928C133.313 86.4619 132.826 86.7471 132.846 86.7682Z" fill="#FF5F80"/>
<path d="M129.794 87.953L129.914 88.8798C129.914 88.8798 130.533 88.7507 131.159 88.6256C131.762 88.4136 132.357 88.1787 132.357 88.1787L131.954 87.3398C131.954 87.3398 131.438 87.5393 130.916 87.7267C130.361 87.8421 129.794 87.953 129.794 87.953Z" fill="#FF5F80"/>
<path d="M126.387 87.8584L126.228 88.7693C126.179 88.8447 128.723 89.0155 128.701 88.9515L128.684 88.019C128.647 88.075 126.408 87.9327 126.387 87.8584Z" fill="#FF5F80"/>
<path d="M123.195 86.7383L122.731 87.5406C122.731 87.5406 122.865 87.6194 123.075 87.7366C123.284 87.8434 123.545 88.0234 123.854 88.1114C124.458 88.3251 125.055 88.5417 125.055 88.5417L125.236 87.6303C125.236 87.6303 124.721 87.4377 124.206 87.2417C123.927 87.172 123.687 87.0091 123.504 86.9131C123.325 86.8086 123.195 86.7383 123.195 86.7383Z" fill="#FF5F80"/>
<path d="M120.615 84.5479L119.899 85.1353C119.899 85.1353 120.322 85.5896 120.753 86.0558C121.193 86.4993 121.707 86.8679 121.707 86.8679L122.268 86.1227C122.268 86.1227 121.797 85.793 121.397 85.3861C121.006 84.9661 120.615 84.5479 120.615 84.5479Z" fill="#FF5F80"/>
<path d="M118.844 81.5957L117.993 81.9694C117.993 81.9694 118.254 82.5357 118.55 83.0826C118.812 83.6426 119.186 84.1483 119.186 84.1483L119.954 83.6317C119.954 83.6317 119.61 83.1671 119.366 82.6334C119.096 82.1254 118.844 81.5957 118.844 81.5957Z" fill="#FF5F80"/>
<path d="M117.808 78.2803L116.9 78.4717C116.9 78.4717 117.028 79.0751 117.2 79.6677C117.28 79.9631 117.367 80.2637 117.427 80.4808C117.501 80.6991 117.556 80.8431 117.556 80.8431L118.435 80.5391C118.435 80.5391 118.386 80.4014 118.302 80.1928C118.25 79.99 118.17 79.6986 118.093 79.4168C117.931 78.858 117.808 78.2803 117.808 78.2803Z" fill="#FF5F80"/>
<path d="M117.36 74.8057L116.428 74.8554C116.428 74.8554 116.625 77.2948 116.687 77.2937L117.607 77.1525C117.551 77.1645 117.36 74.8057 117.36 74.8057Z" fill="#FF5F80"/>
<path d="M117.41 71.2872L116.487 71.2158C116.487 71.2158 116.456 71.8284 116.414 72.4392C116.365 73.0484 116.403 73.6592 116.403 73.6592L117.337 73.6478C117.337 73.6478 117.299 73.0593 117.348 72.4673C117.378 71.8804 117.41 71.2872 117.41 71.2872Z" fill="#FF5F80"/>
<path d="M117.874 67.791L116.967 67.6201C116.967 67.6201 116.834 68.2155 116.752 68.8201C116.677 69.4241 116.601 70.0293 116.601 70.0293L117.529 70.1333C117.529 70.1333 117.593 69.547 117.668 68.9584C117.752 68.3733 117.874 67.791 117.874 67.791Z" fill="#FF5F80"/>
<path d="M118.69 64.36L117.801 64.0908L117.193 66.4531L118.094 66.652L118.69 64.36Z" fill="#FF5F80"/>
<path d="M119.869 61.0284L119.012 60.6758C119.012 60.6758 118.784 61.2421 118.557 61.8124C118.361 62.3821 118.171 62.9672 118.171 62.9672L119.053 63.2569C119.053 63.2569 119.24 62.6884 119.426 62.1238C119.645 61.5798 119.869 61.0284 119.869 61.0284Z" fill="#FF5F80"/>
<path d="M121.328 57.8097L120.508 57.376L119.449 59.5743L120.308 59.9508L121.328 57.8097Z" fill="#FF5F80"/>
<path d="M123.12 54.7641L122.347 54.2578C122.347 54.2578 122.013 54.7698 121.686 55.2818C121.38 55.8132 121.084 56.3384 121.084 56.3384L121.891 56.7955C121.891 56.7955 122.186 56.2812 122.473 55.7624C122.804 55.263 123.12 54.7641 123.12 54.7641Z" fill="#FF5F80"/>
<path d="M125.169 51.8892L124.443 51.3086L122.995 53.2543L123.752 53.7915L125.169 51.8892Z" fill="#FF5F80"/>
<path d="M127.515 49.2527L126.85 48.6035C126.85 48.6035 126.412 49.0252 126.008 49.4778C125.612 49.9441 125.214 50.3961 125.214 50.3961L125.916 51.0052C125.916 51.0052 126.309 50.5584 126.691 50.1109C127.083 49.6612 127.515 49.2527 127.515 49.2527Z" fill="#FF5F80"/>
<path d="M130.109 46.8585L129.514 46.1465C129.514 46.1465 127.649 47.7185 127.693 47.7556L128.33 48.4316C128.301 48.3951 130.109 46.8585 130.109 46.8585Z" fill="#FF5F80"/>
<path d="M132.913 44.7443L132.413 43.9678C132.413 43.9701 131.896 44.3112 131.412 44.6798C130.932 45.0392 130.43 45.4003 130.43 45.4003L131.003 46.1358C131.003 46.1358 131.482 45.7855 131.954 45.4329C132.434 45.0746 132.913 44.7443 132.913 44.7443Z" fill="#FF5F80"/>
<path d="M135.959 42.9584L135.531 42.1367C135.531 42.1367 134.985 42.4156 134.449 42.7007C133.934 43.0201 133.416 43.3384 133.416 43.3384L133.906 44.1344C133.906 44.1344 134.401 43.8161 134.91 43.5064C135.429 43.2299 135.959 42.9584 135.959 42.9584Z" fill="#FF5F80"/>
<path d="M139.155 41.4843L138.81 40.6123C138.81 40.6123 136.564 41.5323 136.588 41.5923L136.986 42.4209C136.959 42.3677 139.155 41.4843 139.155 41.4843Z" fill="#FF5F80"/>
<path d="M142.487 40.3214L142.227 39.4316L139.914 40.1825L140.238 41.0568L142.487 40.3214Z" fill="#FF5F80"/>
<path d="M145.92 39.5203L145.743 38.6066C145.739 38.5483 143.374 39.1414 143.374 39.1414L143.611 40.0414C143.611 40.0414 145.909 39.4694 145.92 39.5203Z" fill="#FF5F80"/>
<path d="M149.413 39.0422L149.335 38.1113C149.327 38.1136 148.722 38.125 148.119 38.2399C147.522 38.3348 146.926 38.425 146.926 38.425L147.062 39.341C147.062 39.341 147.644 39.2536 148.239 39.1616C148.812 39.0559 149.415 39.037 149.413 39.0422Z" fill="#FF5F80"/>
<path d="M152.941 38.8493L152.93 37.9219C152.93 37.9219 152.318 37.9242 151.714 37.9224C151.109 37.9767 150.506 38.0224 150.506 38.0224L150.569 38.9567C150.569 38.9567 151.163 38.8996 151.757 38.8567C152.344 38.8487 152.941 38.8493 152.941 38.8493Z" fill="#FF5F80"/>
<path d="M156.472 38.9559L156.537 38.0217C156.537 38.0217 154.114 37.8571 154.114 37.9114L154.097 38.8405C154.104 38.7874 156.472 38.9559 156.472 38.9559Z" fill="#FF5F80"/>
<path d="M159.974 39.3651L160.122 38.4491L157.726 38.1143L157.623 39.0365L159.974 39.3651Z" fill="#FF5F80"/>
<path d="M163.41 40.1289L163.655 39.2306C163.655 39.2306 163.079 39.0364 162.478 38.9324C161.889 38.8066 161.294 38.6758 161.294 38.6758L161.113 39.5895C161.111 39.5929 163.428 40.0849 163.41 40.1289Z" fill="#FF5F80"/>
<path d="M166.77 41.2072L167.097 40.3289C167.097 40.3289 166.516 40.1312 165.949 39.9255C165.388 39.7021 164.796 39.5615 164.796 39.5615L164.526 40.4501C164.526 40.4501 165.105 40.5895 165.66 40.8067C166.217 41.0038 166.77 41.2072 166.77 41.2072Z" fill="#FF5F80"/>
<path d="M170.037 42.5509L170.435 41.7132L168.208 40.748L167.865 41.6098L170.037 42.5509Z" fill="#FF5F80"/>
<path d="M173.181 44.1786L173.634 43.366C173.634 43.366 173.106 43.0729 172.577 42.7758C172.044 42.5049 171.495 42.2363 171.495 42.2363L171.078 43.0712C171.078 43.0712 171.614 43.3335 172.145 43.602C172.664 43.894 173.181 44.1786 173.181 44.1786Z" fill="#FF5F80"/>
<path d="M176.218 46.0013L176.724 45.2156L174.671 43.9521L174.201 44.7539L176.218 46.0013Z" fill="#FF5F80"/>
<path d="M179.166 47.9949L179.705 47.2355C179.705 47.2355 179.217 46.8766 178.72 46.5412C178.216 46.2046 177.713 45.8721 177.713 45.8721L177.199 46.6384C177.199 46.6384 177.696 46.9744 178.191 47.3104C178.69 47.6384 179.166 47.9949 179.166 47.9949Z" fill="#FF5F80"/>
<path d="M182.032 50.1106L182.593 49.3683L180.664 47.9277L180.108 48.678L182.032 50.1106Z" fill="#FF5F80"/>
<path d="M184.841 52.3133L185.411 51.5865L183.53 50.0928L182.951 50.8288L184.841 52.3133Z" fill="#FF5F80"/>
<path d="M187.617 54.5511L188.201 53.8288L186.331 52.3174L185.753 53.0482L187.617 54.5511Z" fill="#FF5F80"/>
<path d="M190.402 56.8104L190.98 56.083L189.11 54.5732L188.529 55.295L190.402 56.8104Z" fill="#FF5F80"/>
<path d="M193.215 59.0225L193.781 58.2865L191.903 56.8076L191.324 57.5436L193.215 59.0225Z" fill="#FF5F80"/>
<path d="M196.1 61.1717L196.631 60.4163L194.713 59.0049L194.151 59.7443L196.1 61.1717Z" fill="#FF5F80"/>
<path d="M199.083 63.1846L199.585 62.4064C199.585 62.4064 199.074 62.0789 198.581 61.7607C198.086 61.4155 197.596 61.0801 197.596 61.0801L197.063 61.8475C197.063 61.8475 197.572 62.1864 198.07 62.5355C198.571 62.8549 199.083 63.1846 199.083 63.1846Z" fill="#FF5F80"/>
<path d="M202.187 65.0348L202.629 64.2108L200.564 63.0273L200.078 63.8222L202.187 65.0348Z" fill="#FF5F80"/>
<path d="M205.436 66.6043L205.812 65.7483C205.812 65.7483 205.269 65.5106 204.717 65.2678C204.194 65.0089 203.66 64.7363 203.66 64.7363L203.244 65.5678C203.244 65.5678 203.783 65.8449 204.33 66.118C204.887 66.3603 205.436 66.6043 205.436 66.6043Z" fill="#FF5F80"/>
<path d="M208.827 67.8828L209.11 67.0022L206.868 66.2119L206.533 67.0725L208.827 67.8828Z" fill="#FF5F80"/>
<path d="M212.352 68.7489L212.518 67.8398C212.518 67.8398 211.948 67.7255 211.358 67.6181C210.793 67.4581 210.219 67.3066 210.219 67.3066L209.975 68.2032C209.975 68.2032 210.558 68.3609 211.152 68.5209C211.745 68.6358 212.352 68.7489 212.352 68.7489Z" fill="#FF5F80"/>
<path d="M215.938 69.2375L216.001 68.3135L213.658 68.0547L213.521 68.9735L215.938 69.2375Z" fill="#FF5F80"/>
<path d="M219.566 69.2626L219.522 68.334C219.522 68.334 218.936 68.3991 218.345 68.378C217.752 68.3574 217.166 68.3471 217.166 68.3471L217.141 69.2843C217.141 69.2843 217.742 69.2928 218.354 69.306C218.96 69.3254 219.566 69.2626 219.566 69.2626Z" fill="#FF5F80"/>
<path d="M223.16 68.8906L223.04 67.9678C223.04 67.9678 220.685 68.3266 220.69 68.2649L220.755 69.1935C220.77 69.2575 223.16 68.8906 223.16 68.8906Z" fill="#FF5F80"/>
<path d="M226.72 68.3366L226.533 67.4258C226.533 67.4258 225.947 67.5378 225.361 67.6229C224.771 67.7104 224.185 67.7949 224.185 67.7949L224.335 68.7189C224.335 68.7189 224.93 68.6224 225.526 68.5338C226.128 68.4481 226.72 68.3366 226.72 68.3366Z" fill="#FF5F80"/>
<path d="M230.221 67.4181L229.952 66.5244L227.657 67.1273L227.872 68.0353L230.221 67.4181Z" fill="#FF5F80"/>
<path d="M233.622 66.1696L233.26 65.3193L231.06 66.1925L231.354 67.0753L233.622 66.1696Z" fill="#FF5F80"/>
<path d="M236.874 64.5762L236.416 63.7676C236.416 63.7676 235.9 64.0584 235.383 64.3499C235.128 64.491 234.87 64.6367 234.683 64.7476C234.479 64.8436 234.337 64.8841 234.337 64.8841L234.733 65.7281C234.758 65.8104 236.874 64.5762 236.874 64.5762Z" fill="#FF5F80"/>
<path d="M239.893 62.5452L239.316 61.8184C239.316 61.8184 237.473 63.2881 237.424 63.2006L237.913 63.9932C237.971 64.0755 239.893 62.5452 239.893 62.5452Z" fill="#FF5F80"/>
<path d="M242.559 60.0605L241.87 59.4434C241.87 59.4434 241.468 59.8611 241.062 60.2942C240.672 60.7371 240.248 61.1376 240.229 61.1159L240.845 61.8131C240.853 61.8336 241.308 61.4176 241.718 60.9536C242.14 60.5085 242.559 60.0605 242.559 60.0605Z" fill="#FF5F80"/>
<path d="M244.728 57.0952L243.913 56.6357L242.632 58.5872L243.36 59.1575L244.728 57.0952Z" fill="#FF5F80"/>
<path d="M246.096 53.6747L245.205 53.4307C245.18 53.4244 245.142 54.0187 244.866 54.5393C244.635 55.0776 244.402 55.6147 244.402 55.6147L245.244 55.9993C245.244 55.9993 245.493 55.4273 245.74 54.8587C245.863 54.5724 245.983 54.2879 246.015 54.0536C246.068 53.8239 246.096 53.6747 246.096 53.6747Z" fill="#FF5F80"/>
<path d="M246.515 49.998L245.594 50.0289C245.594 50.0289 245.582 52.3369 245.441 52.33L246.358 52.4769C246.358 52.4769 246.547 51.874 246.499 51.2432C246.513 50.6163 246.515 49.998 246.515 49.998Z" fill="#FF5F80"/>
<path d="M245.762 46.3574L244.902 46.6923C244.87 46.7088 245.198 47.2026 245.26 47.778C245.379 48.3449 245.486 48.9049 245.486 48.9049L246.403 48.7763C246.403 48.7763 246.284 48.1597 246.159 47.5483C246.087 46.914 245.732 46.3677 245.762 46.3574Z" fill="#FF5F80"/>
<path d="M243.841 43.165L243.146 43.7793C243.146 43.7793 243.49 44.2513 243.83 44.7005C243.995 44.9325 244.168 45.1662 244.296 45.3348C244.381 45.5405 244.447 45.6742 244.447 45.6742L245.263 45.2296C245.263 45.2296 245.195 45.0856 245.091 44.8708C244.963 44.681 244.782 44.4296 244.589 44.1736C244.222 43.6725 243.841 43.165 243.841 43.165Z" fill="#FF5F80"/>
<path d="M240.933 40.8662L240.474 41.6725C240.462 41.6936 241.017 41.8942 241.462 42.2611C241.899 42.6416 242.33 43.0108 242.33 43.0108L242.962 42.3108C242.962 42.3108 242.484 41.9159 242.008 41.5045C241.515 41.1085 240.92 40.8874 240.933 40.8662Z" fill="#FF5F80"/>
<path d="M237.506 39.5127L237.281 40.4167C237.281 40.4167 237.844 40.5756 238.394 40.7447C238.679 40.823 238.959 40.9093 239.159 40.9664C239.354 41.0721 239.478 41.1378 239.478 41.1378L239.858 40.2887C239.858 40.2887 239.724 40.2155 239.51 40.107C239.291 40.0407 238.99 39.9504 238.697 39.867C238.093 39.6893 237.506 39.5127 237.506 39.5127Z" fill="#FF5F80"/>
<path d="M233.838 39.1092L233.865 40.0361C233.865 40.0361 234.447 40.0384 235.031 40.0309C235.599 40.0967 236.18 40.1738 236.18 40.1738L236.318 39.2498C236.318 39.2498 235.7 39.1778 235.084 39.1035C234.456 39.1069 233.838 39.1092 233.838 39.1092Z" fill="#FF5F80"/>
<path d="M230.214 39.6503L230.444 40.5434C230.444 40.5434 231.016 40.4154 231.577 40.2805C232.159 40.1708 232.743 40.1194 232.743 40.1194L232.637 39.1914C232.637 39.1914 232.013 39.2605 231.414 39.3645C230.811 39.5074 230.214 39.6503 230.214 39.6503Z" fill="#FF5F80"/>
<path d="M226.781 40.9079L227.173 41.753C227.173 41.753 227.71 41.5107 228.246 41.2661C228.796 41.0501 229.354 40.8759 229.354 40.8759L229.058 39.9941C229.058 39.9941 228.476 40.1833 227.897 40.4056C227.342 40.6587 226.781 40.9079 226.781 40.9079Z" fill="#FF5F80"/>
<path d="M223.624 42.745L224.157 43.5147C224.157 43.5147 224.641 43.1839 225.129 42.8565C225.643 42.5639 226.15 42.2845 226.15 42.2845L225.716 41.457C225.716 41.457 225.177 41.7639 224.64 42.0582C224.142 42.4045 223.624 42.745 223.624 42.745Z" fill="#FF5F80"/>
<path d="M220.788 45.0261L221.427 45.7073C221.427 45.7073 221.839 45.2896 222.309 44.9238C222.759 44.5541 223.221 44.1867 223.221 44.1867L222.663 43.4473C222.663 43.4473 222.176 43.8267 221.704 44.2056C221.228 44.5896 220.788 45.0261 220.788 45.0261Z" fill="#FF5F80"/>
<path d="M218.309 47.6921L219.037 48.271C218.989 48.2361 220.588 46.5064 220.588 46.5064L219.924 45.8516C219.924 45.8516 218.251 47.6544 218.309 47.6921Z" fill="#FF5F80"/>
<path d="M216.218 50.6738L217.023 51.1441C217.023 51.1441 218.284 49.1641 218.324 49.1853L217.569 48.635C217.535 48.6104 216.218 50.6738 216.218 50.6738Z" fill="#FF5F80"/>
<path d="M214.603 53.9523L215.47 54.3026C215.47 54.3026 215.698 53.7528 215.938 53.2174C216.158 52.6751 216.462 52.1677 216.462 52.1677L215.643 51.7266C215.643 51.7266 215.325 52.25 215.097 52.8226C214.851 53.3888 214.603 53.9523 214.603 53.9523Z" fill="#FF5F80"/>
<path d="M213.524 57.4376L214.429 57.6473C214.429 57.6473 214.551 57.073 214.703 56.4981C214.888 55.9421 215.072 55.3798 215.072 55.3798L214.186 55.0781C214.186 55.0781 214 55.6616 213.804 56.245C213.645 56.8393 213.524 57.4376 213.524 57.4376Z" fill="#FF5F80"/>
<path d="M213.018 61.0609L213.946 61.1124C213.873 61.1049 214.188 58.7701 214.188 58.7701L213.276 58.6152C213.276 58.6152 212.945 61.0564 213.018 61.0609Z" fill="#FF5F80"/>
<path d="M213.141 64.7229L214.066 64.5989C214.066 64.5989 213.838 62.2635 213.912 62.2646L212.997 62.2652C212.915 62.2664 213.141 64.7229 213.141 64.7229Z" fill="#FF5F80"/>
<path d="M213.924 68.2887L214.822 68.0212C214.822 68.0212 214.64 67.4584 214.478 66.8955C214.364 66.3155 214.255 65.7344 214.255 65.7344L213.339 65.9001C213.339 65.9001 213.461 66.5087 213.577 67.1138C213.753 67.7007 213.924 68.2887 213.924 68.2887Z" fill="#FF5F80"/>
<path d="M215.242 71.6994L216.074 71.2931L215.144 69.1211L214.28 69.4394L215.242 71.6994Z" fill="#FF5F80"/>
<path d="M217.088 74.8348L217.858 74.3137C217.858 74.3137 217.495 73.8411 217.205 73.3337C216.923 72.8188 216.624 72.3057 216.624 72.3057L215.814 72.7491C215.814 72.7491 216.117 73.2891 216.406 73.8148C216.716 74.3491 217.088 74.8348 217.088 74.8348Z" fill="#FF5F80"/>
<path d="M219.31 77.7196L219.997 77.1087C219.997 77.1087 218.46 75.3093 218.519 75.2676L217.768 75.8224C217.714 75.8607 219.31 77.7196 219.31 77.7196Z" fill="#FF5F80"/>
<path d="M221.814 80.3298L222.437 79.6561L220.763 77.9795L220.081 78.6161L221.814 80.3298Z" fill="#FF5F80"/>
<path d="M224.542 82.6978L225.123 81.9566L223.306 80.4326L222.688 81.1292L224.542 82.6978Z" fill="#FF5F80"/>
<path d="M227.466 84.8199L227.988 84.0484L226.052 82.6553L225.502 83.4016L227.466 84.8199Z" fill="#FF5F80"/>
<path d="M230.519 86.7342L230.994 85.9296L228.966 84.6719L228.462 85.4536L230.519 86.7342Z" fill="#FF5F80"/>
<path d="M233.677 88.4608L234.106 87.6328L232.009 86.502L231.555 87.3128L233.677 88.4608Z" fill="#FF5F80"/>
<path d="M236.921 90.0284L237.3 89.1833L235.139 88.1787L234.727 89.013L236.921 90.0284Z" fill="#FF5F80"/>
<path d="M240.151 91.5246L240.562 90.6903C240.562 90.6903 240.021 90.4154 239.452 90.1663C238.912 89.9206 238.363 89.6777 238.363 89.6777L237.989 90.5252C237.989 90.5252 238.542 90.7794 239.092 91.02C239.622 91.2583 240.151 91.5246 240.151 91.5246Z" fill="#FF5F80"/>
<path d="M243.213 93.2625L243.71 92.4756C243.71 92.4756 243.203 92.1373 242.676 91.8419C242.146 91.543 241.616 91.2373 241.616 91.2373L241.177 92.059C241.177 92.059 241.69 92.3539 242.204 92.647C242.72 92.9356 243.216 93.2659 243.213 93.2625Z" fill="#FF5F80"/>
<path d="M246.109 95.286L246.669 94.5523C246.669 94.5523 246.181 94.1854 245.7 93.8203C245.225 93.4351 244.702 93.126 244.702 93.126L244.193 93.8986C244.193 93.8986 244.692 94.2037 245.156 94.5728C245.632 94.9317 246.109 95.286 246.109 95.286Z" fill="#FF5F80"/>
<path d="M248.801 97.5662L249.432 96.8896L247.611 95.2793L247.023 95.9964L248.801 97.5662Z" fill="#FF5F80"/>
<path d="M251.239 100.113L251.941 99.5058C251.941 99.5058 251.53 99.0607 251.12 98.6155C250.7 98.1778 250.275 97.7275 250.275 97.7275L249.617 98.3881C249.617 98.3881 250.026 98.8138 250.433 99.2447C250.833 99.6807 251.239 100.113 251.239 100.113Z" fill="#FF5F80"/>
<path d="M253.331 102.933L254.114 102.42C254.187 102.373 252.677 100.457 252.672 100.455L251.941 101.034C251.941 101.034 253.406 102.882 253.331 102.933Z" fill="#FF5F80"/>
<path d="M255.065 105.99L255.898 105.584C255.987 105.537 254.724 103.445 254.724 103.445L253.924 103.924C253.924 103.924 255.152 105.95 255.065 105.99Z" fill="#FF5F80"/>
<path d="M256.379 109.24L257.26 108.959C257.358 108.922 256.377 106.689 256.377 106.689L255.52 107.051C255.52 107.051 256.482 109.209 256.379 109.24Z" fill="#FF5F80"/>
<path d="M257.231 112.656L258.147 112.492C258.211 112.477 257.562 110.12 257.562 110.12L256.669 110.365C256.669 110.365 257.295 112.645 257.231 112.656Z" fill="#FF5F80"/>
<path d="M257.595 116.153L258.521 116.117L258.266 113.685L257.356 113.805L257.595 116.153Z" fill="#FF5F80"/>
<path d="M257.467 119.673L258.389 119.743L258.518 117.308L257.588 117.307L257.467 119.673Z" fill="#FF5F80"/>
<path d="M256.964 123.157L257.878 123.33C257.878 123.33 257.998 122.733 258.11 122.138C258.224 121.543 258.358 120.942 258.337 120.946L257.409 120.829C257.432 120.837 257.312 121.41 257.19 121.989C257.081 122.577 256.964 123.157 256.964 123.157Z" fill="#FF5F80"/>
<path d="M256.168 126.595L257.052 126.854C257.052 126.854 257.105 126.714 257.171 126.499C257.253 126.281 257.361 126 257.399 125.689C257.524 125.102 257.64 124.497 257.64 124.497L256.738 124.295C256.738 124.295 256.624 124.877 256.515 125.46C256.466 125.759 256.353 126.034 256.28 126.244C256.214 126.462 256.168 126.595 256.168 126.595Z" fill="#FF5F80"/>
<path d="M255.018 129.945L255.881 130.278L256.667 127.982L255.784 127.695L255.018 129.945Z" fill="#FF5F80"/>
<path d="M324.745 200.41C324.745 201.342 257.686 202.099 174.965 202.099C92.2408 202.099 25.1763 201.342 25.1763 200.41C25.1763 199.478 92.2408 198.723 174.965 198.723C257.686 198.723 324.745 199.478 324.745 200.41Z" fill="#C3E8ED"/>
<path d="M150.689 192.522C150.689 196.248 147.677 199.272 143.957 199.272H89.6764C85.9577 199.272 82.943 196.248 82.943 192.522V86.5694C82.943 82.8436 85.9571 79.8242 89.6764 79.8242H143.957C147.677 79.8242 150.689 82.8436 150.689 86.5694V192.522Z" fill="#1766E5"/>
<path d="M145.641 90.3867H87.751V183.18H145.641V90.3867Z" fill="#D3D5FD"/>
<path d="M121.16 190.71C121.16 193.181 119.155 195.185 116.697 195.185C114.224 195.185 112.23 193.181 112.23 190.71C112.23 188.238 114.224 186.231 116.697 186.231C119.155 186.231 121.16 188.238 121.16 190.71Z" fill="white"/>
<path d="M137.562 84.4829C137.562 85.1355 137.034 85.6623 136.386 85.6623H97.6797C97.0271 85.6623 96.4993 85.1355 96.4993 84.4829C96.4993 83.8303 97.0271 83.3018 97.6797 83.3018H136.386C137.034 83.3012 137.562 83.8303 137.562 84.4829Z" fill="white"/>
<path d="M100.732 95.3008C100.732 96.7951 99.5277 98.0071 98.0377 98.0071H61.5018C60.0141 98.0071 58.8052 96.7951 58.8052 95.3008V91.3922C58.8052 89.898 60.0141 88.6865 61.5018 88.6865H98.0377C99.5277 88.6865 100.732 89.898 100.732 91.3922V95.3008Z" fill="#BDBDFD"/>
<path d="M64.6192 90.0547L65.5968 92.0404L67.7827 92.3581L66.2021 93.9038L66.576 96.0861L64.6192 95.0564L62.6658 96.0861L63.0369 93.9038L61.4563 92.3581L63.6422 92.0404L64.6192 90.0547Z" fill="#A8A8EF"/>
<path d="M71.8166 90.0547L72.7936 92.0404L74.9795 92.3581L73.3995 93.9038L73.7734 96.0861L71.8166 95.0564L69.8609 96.0861L70.2366 93.9038L68.6537 92.3581L70.8396 92.0404L71.8166 90.0547Z" fill="#A8A8EF"/>
<path d="M79.0163 90.0547L79.991 92.0404L82.1792 92.3581L80.5969 93.9038L80.9702 96.0861L79.0163 95.0564L77.0595 96.0861L77.434 93.9038L75.8511 92.3581L78.037 92.0404L79.0163 90.0547Z" fill="#A8A8EF"/>
<path d="M86.2114 90.0547L87.186 92.0404L89.3766 92.3581L87.7942 93.9038L88.1676 96.0861L86.2114 95.0564L84.2568 96.0861L84.6285 93.9038L83.0479 92.3581L85.2361 92.0404L86.2114 90.0547Z" fill="#A8A8EF"/>
<path d="M93.4082 90.0547L94.3857 92.0404L96.5739 92.3581L94.9911 93.9038L95.365 96.0861L93.4082 95.0564L91.4542 96.0861L91.8259 93.9038L90.2452 92.3581L92.4312 92.0404L93.4082 90.0547Z" fill="#FEBD01"/>
<path d="M107.082 108.274C107.082 109.766 105.876 110.98 104.386 110.98H67.8499C66.3622 110.98 65.1549 109.766 65.1549 108.274V104.365C65.1549 102.871 66.3616 101.659 67.8499 101.659H104.386C105.876 101.659 107.082 102.871 107.082 104.365V108.274Z" fill="#BDBDFD"/>
<path d="M70.9677 103.027L71.9453 105.012L74.1335 105.331L72.5506 106.876L72.9246 109.059L70.9677 108.029L69.0138 109.059L69.3877 106.876L67.8048 105.331L69.9908 105.012L70.9677 103.027Z" fill="#A8A8EF"/>
<path d="M78.1651 103.027L79.1444 105.012L81.3303 105.331L79.7475 106.876L80.1236 109.059L78.1651 108.029L76.2089 109.059L76.5845 106.876L75.0022 105.331L77.1882 105.012L78.1651 103.027Z" fill="#A8A8EF"/>
<path d="M85.3648 103.027L86.3418 105.012L88.5277 105.331L86.9448 106.876L87.3187 109.059L85.3648 108.029L83.408 109.059L83.7819 106.876L82.1996 105.331L84.3855 105.012L85.3648 103.027Z" fill="#A8A8EF"/>
<path d="M92.5623 103.027L93.537 105.012L95.7269 105.331L94.1423 106.876L94.5157 109.059L92.5623 108.029L90.6055 109.059L90.9765 106.876L89.3965 105.331L91.5847 105.012L92.5623 103.027Z" fill="#A8A8EF"/>
<path d="M99.7568 103.027L100.734 105.012L102.923 105.331L101.34 106.876L101.713 109.059L99.7568 108.029L97.8028 109.059L98.1762 106.876L96.5939 105.331L98.7798 105.012L99.7568 103.027Z" fill="#FEBD01"/>
<path d="M188.31 170.424C188.31 172.511 186.537 174.199 184.341 174.199H97.1901C94.9979 174.199 93.2229 172.511 93.2229 170.424V118.466C93.2229 116.383 94.9979 114.694 97.1901 114.694H184.341C186.537 114.694 188.31 116.382 188.31 118.466V170.424Z" fill="#F5F5FF"/>
<path d="M184.341 114.695H97.1901C94.9979 114.695 93.2229 116.383 93.2229 118.467V125.475H188.31V118.467C188.31 116.383 186.537 114.695 184.341 114.695Z" fill="#A8A8EF"/>
<path d="M102.847 120.116C102.847 121.151 101.964 121.99 100.879 121.99C99.7847 121.99 98.9041 121.15 98.9041 120.116C98.9041 119.079 99.7847 118.242 100.879 118.242C101.964 118.242 102.847 119.079 102.847 120.116Z" fill="#F5F9FC"/>
<path d="M107.826 120.116C107.826 121.151 106.942 121.99 105.852 121.99C104.766 121.99 103.885 121.15 103.885 120.116C103.885 119.079 104.766 118.242 105.852 118.242C106.942 118.242 107.826 119.079 107.826 120.116Z" fill="#F5F9FC"/>
<path d="M112.631 120.116C112.631 121.151 111.75 121.99 110.66 121.99C109.574 121.99 108.692 121.15 108.692 120.116C108.692 119.079 109.574 118.242 110.66 118.242C111.75 118.242 112.631 119.079 112.631 120.116Z" fill="#F5F9FC"/>
<path d="M137.881 161.195H106.031V168.847H137.881V161.195Z" fill="#BDBDFD"/>
<path d="M173.923 161.195H142.074V168.847H173.923V161.195Z" fill="#BDBDFD"/>
<path d="M181.522 129.551H100.332V157.246H181.522V129.551Z" fill="#BDBDFD"/>
<path d="M220.275 130.741L217.005 134.811C217.005 134.811 227.9 148.258 245.509 143.822C250.2 142.641 255.614 138.415 261.725 132.255C268.831 125.094 274.774 127.047 278.829 134.812C281.443 139.821 283.911 153.346 304.515 151.647L308.474 145.728L292.066 129.282L274.838 120.964L264.322 119.376L250.164 127.756L220.275 130.741Z" fill="#FEAA3A"/>
<path d="M233.632 113.744C233.632 113.744 240.805 118.053 246.402 113.838C254.831 107.489 259.878 101.947 269.785 100.171C275.977 99.0593 286.809 99.233 296.707 115.363C299.571 120.031 307.078 134.096 323.295 125.524L320.13 129.968L311.56 134.812L294.68 128L281.187 107.997L268.71 105.964L257.246 118.284L237.577 126L231.238 116.823L233.632 113.744Z" fill="#FEAA3A"/>
<path d="M232.08 115.745C232.08 115.745 240.315 124.127 249.563 115.775C257.865 108.28 271.037 96.3442 286.62 109.012C300.921 120.64 297.704 136.953 320.13 129.968L306.952 148.004C306.952 148.004 290.309 153.847 284.151 137.588C278.449 122.538 269.249 124.108 266.476 124.92C257.101 127.664 253.554 141.015 239.777 141.494C227.9 141.908 218.842 132.56 218.842 132.56L232.08 115.745Z" fill="#FE4040"/>
<path d="M234.123 115.313C234.225 115.173 234.363 114.947 234.796 115.145C235.23 115.34 236.529 115.789 236.279 116.433C236.025 117.078 235.509 117.302 234.767 116.869C234.025 116.434 233.535 116.128 234.123 115.313Z" fill="white"/>
<path d="M237.683 116.795C237.746 116.633 237.82 116.383 238.29 116.463C238.759 116.542 240.13 116.645 240.049 117.332C239.969 118.019 239.526 118.369 238.698 118.137C237.871 117.905 237.321 117.734 237.683 116.795Z" fill="white"/>
<path d="M241.997 117.162C241.985 116.992 241.944 116.73 242.401 116.599C242.858 116.468 244.139 115.964 244.364 116.618C244.588 117.274 244.338 117.779 243.495 117.93C242.649 118.082 242.077 118.167 241.997 117.162Z" fill="white"/>
<path d="M245.667 115.98C245.61 115.817 245.505 115.576 245.915 115.332C246.324 115.089 247.436 114.277 247.818 114.852C248.201 115.429 248.087 115.981 247.309 116.344C246.527 116.704 245.997 116.932 245.667 115.98Z" fill="white"/>
<path d="M248.688 113.756C248.624 113.597 248.506 113.36 248.9 113.095C249.294 112.827 250.358 111.959 250.773 112.51C251.186 113.064 251.105 113.623 250.346 114.026C249.59 114.43 249.072 114.687 248.688 113.756Z" fill="white"/>
<path d="M251.816 111.5C251.713 111.362 251.54 111.166 251.853 110.808C252.167 110.45 252.979 109.334 253.518 109.764C254.059 110.197 254.12 110.757 253.489 111.341C252.859 111.923 252.423 112.304 251.816 111.5Z" fill="white"/>
<path d="M254.556 109.032C254.491 108.873 254.371 108.637 254.765 108.373C255.16 108.106 256.224 107.232 256.641 107.786C257.055 108.34 256.972 108.9 256.213 109.302C255.456 109.706 254.938 109.964 254.556 109.032Z" fill="white"/>
<path d="M257.771 106.926C257.7 106.767 257.572 106.538 257.956 106.257C258.341 105.975 259.373 105.061 259.806 105.599C260.243 106.135 260.181 106.698 259.439 107.132C258.697 107.564 258.19 107.841 257.771 106.926Z" fill="white"/>
<path d="M261.025 104.949C260.953 104.792 260.828 104.563 261.211 104.281C261.595 103.999 262.626 103.085 263.06 103.624C263.497 104.161 263.436 104.721 262.695 105.155C261.952 105.588 261.444 105.865 261.025 104.949Z" fill="white"/>
<path d="M264.791 103.124C264.767 102.953 264.71 102.696 265.158 102.537C265.606 102.378 266.859 101.8 267.119 102.44C267.382 103.082 267.164 103.602 266.33 103.801C265.492 104.002 264.928 104.122 264.791 103.124Z" fill="white"/>
<path d="M268.609 102.022C268.602 101.849 268.569 101.588 269.029 101.472C269.491 101.352 270.788 100.89 270.99 101.551C271.193 102.213 270.929 102.712 270.08 102.835C269.231 102.96 268.657 103.026 268.609 102.022Z" fill="white"/>
<path d="M273.044 101.518C273.062 101.347 273.071 101.084 273.543 101.039C274.018 100.996 275.37 100.743 275.467 101.429C275.566 102.111 275.227 102.564 274.368 102.554C273.51 102.543 272.933 102.519 273.044 101.518Z" fill="white"/>
<path d="M277.144 101.788C277.212 101.629 277.295 101.381 277.762 101.48C278.227 101.575 279.594 101.731 279.489 102.414C279.382 103.098 278.924 103.429 278.108 103.168C277.29 102.906 276.743 102.714 277.144 101.788Z" fill="white"/>
<path d="M281.334 103.218C281.432 103.074 281.564 102.849 282.002 103.038C282.438 103.225 283.747 103.652 283.508 104.299C283.266 104.949 282.755 105.182 282.005 104.761C281.257 104.342 280.759 104.045 281.334 103.218Z" fill="white"/>
<path d="M284.954 105.263C285.074 105.141 285.241 104.937 285.645 105.191C286.045 105.446 287.273 106.072 286.932 106.674C286.595 107.277 286.049 107.426 285.376 106.896C284.7 106.363 284.258 105.99 284.954 105.263Z" fill="white"/>
<path d="M288.069 107.546C288.203 107.435 288.393 107.257 288.76 107.561C289.126 107.864 290.265 108.643 289.852 109.195C289.437 109.751 288.881 109.83 288.279 109.215C287.678 108.602 287.286 108.175 288.069 107.546Z" fill="white"/>
<path d="M290.847 110.225C290.994 110.131 291.199 109.971 291.532 110.311C291.866 110.651 292.918 111.543 292.451 112.052C291.982 112.561 291.418 112.582 290.882 111.911C290.349 111.235 290.002 110.771 290.847 110.225Z" fill="white"/>
<path d="M293.357 113.158C293.512 113.085 293.739 112.953 294.026 113.334C294.313 113.711 295.242 114.731 294.713 115.176C294.184 115.621 293.626 115.57 293.181 114.834C292.735 114.099 292.451 113.594 293.357 113.158Z" fill="white"/>
<path d="M295.726 116.695C295.876 116.612 296.093 116.467 296.402 116.832C296.711 117.195 297.694 118.161 297.191 118.632C296.687 119.109 296.124 119.088 295.64 118.378C295.155 117.668 294.843 117.18 295.726 116.695Z" fill="white"/>
<path d="M298.015 119.804C298.176 119.741 298.411 119.627 298.669 120.026C298.929 120.427 299.782 121.512 299.222 121.916C298.663 122.32 298.108 122.23 297.717 121.464C297.328 120.697 297.079 120.172 298.015 119.804Z" fill="white"/>
<path d="M300.193 123.18C300.335 123.081 300.537 122.916 300.877 123.249C301.221 123.581 302.294 124.447 301.837 124.965C301.382 125.487 300.821 125.523 300.268 124.862C299.718 124.201 299.361 123.746 300.193 123.18Z" fill="white"/>
<path d="M302.933 126.228C303.059 126.113 303.237 125.921 303.624 126.2C304.01 126.478 305.196 127.179 304.819 127.76C304.443 128.34 303.893 128.455 303.254 127.883C302.614 127.311 302.192 126.912 302.933 126.228Z" fill="white"/>
<path d="M306.616 128.524C306.707 128.379 306.831 128.147 307.275 128.321C307.718 128.492 309.044 128.869 308.826 129.525C308.611 130.181 308.105 130.436 307.344 130.043C306.578 129.651 306.071 129.372 306.616 128.524Z" fill="white"/>
<path d="M310.774 129.605C310.811 129.438 310.849 129.177 311.324 129.189C311.799 129.199 313.174 129.104 313.192 129.795C313.209 130.489 312.821 130.896 311.97 130.788C311.117 130.678 310.547 130.588 310.774 129.605Z" fill="white"/>
<path d="M314.941 129.617C314.93 129.447 314.898 129.186 315.361 129.069C315.821 128.952 317.117 128.488 317.321 129.15C317.524 129.812 317.258 130.311 316.409 130.435C315.561 130.56 314.986 130.625 314.941 129.617Z" fill="white"/>
<path d="M219.267 134.875C219.399 134.762 219.587 134.578 219.959 134.875C220.331 135.171 221.485 135.924 221.083 136.489C220.681 137.051 220.125 137.142 219.514 136.54C218.899 135.938 218.497 135.522 219.267 134.875Z" fill="white"/>
<path d="M222.468 137.059C222.587 136.933 222.748 136.726 223.154 136.976C223.561 137.224 224.798 137.829 224.467 138.437C224.138 139.048 223.598 139.204 222.916 138.683C222.233 138.161 221.783 137.796 222.468 137.059Z" fill="white"/>
<path d="M225.622 139.206C225.72 139.062 225.849 138.833 226.289 139.014C226.728 139.197 228.043 139.604 227.813 140.257C227.583 140.908 227.072 141.15 226.317 140.74C225.561 140.329 225.061 140.04 225.622 139.206Z" fill="white"/>
<path d="M229.304 140.99C229.39 140.842 229.504 140.605 229.954 140.761C230.404 140.917 231.743 141.243 231.548 141.909C231.357 142.577 230.864 142.846 230.086 142.481C229.307 142.117 228.79 141.858 229.304 140.99Z" fill="white"/>
<path d="M233.046 142.07C233.114 141.911 233.2 141.664 233.665 141.765C234.13 141.863 235.499 142.024 235.388 142.708C235.279 143.393 234.82 143.721 234.004 143.455C233.188 143.189 232.642 142.994 233.046 142.07Z" fill="white"/>
<path d="M237.064 142.726C237.109 142.559 237.154 142.298 237.63 142.325C238.104 142.351 239.478 142.298 239.478 142.99C239.475 143.682 239.074 144.077 238.226 143.943C237.379 143.807 236.81 143.7 237.064 142.726Z" fill="white"/>
<path d="M241.475 142.83C241.462 142.659 241.424 142.399 241.883 142.27C242.342 142.142 243.627 141.65 243.847 142.306C244.065 142.962 243.811 143.465 242.966 143.609C242.12 143.754 241.547 143.835 241.475 142.83Z" fill="white"/>
<path d="M245.646 141.894C245.622 141.723 245.562 141.467 246.011 141.306C246.459 141.144 247.705 140.559 247.972 141.198C248.237 141.838 248.021 142.357 247.188 142.564C246.354 142.769 245.788 142.891 245.646 141.894Z" fill="white"/>
<path d="M249.75 140.273C249.672 140.12 249.536 139.896 249.908 139.599C250.28 139.302 251.272 138.347 251.731 138.867C252.186 139.386 252.15 139.951 251.425 140.412C250.701 140.875 250.206 141.172 249.75 140.273Z" fill="white"/>
<path d="M253.127 137.584C253.058 137.427 252.932 137.193 253.322 136.918C253.711 136.642 254.754 135.746 255.183 136.288C255.61 136.833 255.54 137.395 254.791 137.816C254.043 138.239 253.529 138.507 253.127 137.584Z" fill="white"/>
<path d="M256.651 134.922C256.535 134.796 256.342 134.614 256.621 134.23C256.902 133.844 257.605 132.657 258.184 133.035C258.761 133.414 258.878 133.967 258.302 134.604C257.727 135.248 257.328 135.667 256.651 134.922Z" fill="white"/>
<path d="M259.355 131.864C259.26 131.722 259.094 131.514 259.427 131.175C259.759 130.833 260.626 129.761 261.144 130.22C261.662 130.678 261.692 131.243 261.032 131.792C260.371 132.342 259.917 132.699 259.355 131.864Z" fill="white"/>
<path d="M262.407 128.917C262.316 128.773 262.161 128.56 262.508 128.234C262.854 127.904 263.761 126.868 264.262 127.347C264.76 127.827 264.773 128.392 264.088 128.912C263.407 129.435 262.938 129.775 262.407 128.917Z" fill="white"/>
<path d="M266.01 126.756C265.989 126.585 265.932 126.328 266.382 126.172C266.831 126.016 268.084 125.444 268.343 126.086C268.602 126.726 268.382 127.248 267.545 127.442C266.709 127.638 266.143 127.755 266.01 126.756Z" fill="white"/>
<path d="M269.795 125.906C269.832 125.738 269.864 125.475 270.339 125.475C270.817 125.478 272.186 125.352 272.221 126.044C272.252 126.736 271.874 127.152 271.021 127.061C270.166 126.969 269.592 126.892 269.795 125.906Z" fill="white"/>
<path d="M273.375 126.406C273.48 126.268 273.625 126.046 274.051 126.256C274.481 126.469 275.766 126.957 275.494 127.594C275.222 128.23 274.696 128.44 273.97 127.982C273.243 127.523 272.763 127.203 273.375 126.406Z" fill="white"/>
<path d="M276.249 128.288C276.378 128.174 276.561 127.983 276.941 128.27C277.324 128.557 278.491 129.28 278.108 129.855C277.72 130.427 277.166 130.534 276.539 129.947C275.91 129.36 275.497 128.953 276.249 128.288Z" fill="white"/>
<path d="M278.879 130.799C279.034 130.723 279.264 130.592 279.549 130.971C279.839 131.353 280.768 132.367 280.242 132.815C279.713 133.261 279.152 133.21 278.707 132.476C278.261 131.739 277.974 131.235 278.879 130.799Z" fill="white"/>
<path d="M280.544 133.895C280.698 133.818 280.926 133.686 281.214 134.066C281.502 134.446 282.431 135.462 281.904 135.911C281.376 136.354 280.813 136.306 280.371 135.569C279.922 134.834 279.637 134.33 280.544 133.895Z" fill="white"/>
<path d="M282.316 137.352C282.48 137.304 282.728 137.214 282.945 137.637C283.164 138.065 283.902 139.224 283.304 139.575C282.707 139.921 282.163 139.773 281.854 138.973C281.542 138.169 281.347 137.622 282.316 137.352Z" fill="white"/>
<path d="M283.891 140.963C284.049 140.899 284.285 140.779 284.548 141.174C284.814 141.573 285.68 142.642 285.126 143.058C284.573 143.469 284.016 143.388 283.617 142.625C283.215 141.863 282.961 141.343 283.891 140.963Z" fill="white"/>
<path d="M286.156 143.984C286.306 143.898 286.521 143.748 286.838 144.104C287.155 144.46 288.16 145.399 287.67 145.888C287.18 146.372 286.615 146.369 286.114 145.668C285.612 144.97 285.287 144.49 286.156 143.984Z" fill="white"/>
<path d="M288.814 146.59C288.925 146.459 289.076 146.246 289.494 146.47C289.914 146.699 291.177 147.24 290.882 147.866C290.583 148.489 290.05 148.678 289.343 148.189C288.635 147.702 288.166 147.36 288.814 146.59Z" fill="white"/>
<path d="M292.128 148.266C292.23 148.127 292.364 147.899 292.798 148.097C293.235 148.293 294.533 148.741 294.283 149.388C294.032 150.029 293.515 150.257 292.774 149.821C292.033 149.388 291.54 149.082 292.128 148.266Z" fill="white"/>
<path d="M295.729 149.424C295.795 149.264 295.874 149.014 296.34 149.101C296.81 149.189 298.176 149.316 298.086 150.006C297.991 150.688 297.541 151.03 296.72 150.784C295.896 150.538 295.347 150.356 295.729 149.424Z" fill="white"/>
<path d="M299.123 150.059C299.159 149.89 299.192 149.629 299.667 149.632C300.145 149.637 301.513 149.518 301.547 150.212C301.574 150.902 301.192 151.318 300.34 151.22C299.485 151.125 298.913 151.044 299.123 150.059Z" fill="white"/>
<path d="M302.527 150.059C302.561 149.89 302.596 149.629 303.071 149.632C303.547 149.637 304.917 149.518 304.951 150.212C304.977 150.902 304.595 151.318 303.743 151.22C302.889 151.125 302.315 151.044 302.527 150.059Z" fill="white"/>
<path d="M238.586 121.644L228.515 136.789L229.152 137.214L239.223 122.069L238.586 121.644Z" fill="#FFB829"/>
<path d="M254.321 116.501L248.294 135.382L249.023 135.616L255.05 116.735L254.321 116.501Z" fill="#FFB829"/>
<path d="M271.099 106.054L267.838 120.52L268.584 120.688L271.844 106.223L271.099 106.054Z" fill="#FFB829"/>
<path d="M290.626 116.753L281.307 128.886L281.912 129.353L291.232 117.22L290.626 116.753Z" fill="#FFB829"/>
<path d="M305.034 133.318L295.017 145.717L295.612 146.199L305.629 133.801L305.034 133.318Z" fill="#FFB829"/>
<g opacity="0.3">
<path d="M239.777 141.495C253.554 141.015 257.101 127.665 266.476 124.921C269.249 124.109 278.449 122.539 284.151 137.589C290.309 153.847 306.952 148.005 306.952 148.005L312.517 140.39C287.62 139.893 288.785 119.375 278.285 115.068C266.741 110.332 260.467 124.941 246.853 135.318C237.467 142.476 225.384 134.141 222.125 128.393L218.842 132.561C218.842 132.561 227.9 141.909 239.777 141.495Z" fill="black"/>
</g>
<path d="M176.946 101.311H121.727V135.951H176.946V101.311Z" fill="#FE4040"/>
<path d="M146.066 124.939V113.204L156.771 119.071L146.066 124.939Z" fill="#FFB829"/>
<path d="M176.946 138.856H121.727V140.555H176.946V138.856Z" fill="#FF6969"/>
<path d="M150.208 139.133C150.208 140.422 149.163 141.468 147.878 141.468C146.594 141.468 145.552 140.422 145.552 139.133C145.552 137.845 146.594 136.801 147.878 136.801C149.163 136.801 150.208 137.845 150.208 139.133Z" fill="#FFB829"/>
<path d="M307.297 196.795C307.297 198.173 306.182 199.291 304.807 199.291H253.537C252.163 199.291 251.047 198.173 251.047 196.795V167.871C251.047 166.492 252.163 165.374 253.537 165.374H304.807C306.182 165.374 307.297 166.492 307.297 167.871V196.795Z" fill="#3A7595"/>
<path d="M307.297 164.541H251.047V173.696H307.297V164.541Z" fill="#7AC5EE"/>
<path d="M251.047 164.541V173.696H251.418L258.401 164.541H251.047Z" fill="#2D647C"/>
<path d="M296.388 164.541L289.407 173.696H296.251L303.236 164.541H296.388Z" fill="#2D647C"/>
<path d="M266.5 164.541L259.517 173.696H266.363L273.346 164.541H266.5Z" fill="#2D647C"/>
<path d="M281.443 164.541L274.463 173.696H281.307L288.291 164.541H281.443Z" fill="#2D647C"/>
<path d="M307.297 169.835L304.351 173.697H307.297V169.835Z" fill="#2D647C"/>
<path d="M299.451 139.545L250.779 155.699C249.472 156.133 248.767 157.546 249.199 158.854L251.35 165.373L304.752 147.648L302.597 141.13C302.163 139.822 300.756 139.112 299.451 139.545Z" fill="#2D647C"/>
<path d="M260.954 152.322L256.746 163.583L263.375 161.383L267.582 150.124L260.954 152.322Z" fill="#7AC5EE"/>
<path d="M250.779 155.7C249.472 156.133 248.767 157.547 249.199 158.855L250.345 162.327L253.111 154.928L250.779 155.7Z" fill="#7AC5EE"/>
<path d="M275.424 147.52L271.216 158.78L277.847 156.581L282.055 145.318L275.424 147.52Z" fill="#7AC5EE"/>
<path d="M302.865 141.939L300.161 149.174L304.752 147.649L302.865 141.939Z" fill="#7AC5EE"/>
<path d="M289.897 142.715L285.689 153.976L292.319 151.776L296.529 140.515L289.897 142.715Z" fill="#7AC5EE"/>
<path d="M302.455 181.423C302.455 181.805 302.147 182.112 301.768 182.112H255.412C255.032 182.112 254.723 181.805 254.723 181.423C254.723 181.043 255.032 180.733 255.412 180.733H301.768C302.147 180.733 302.455 181.043 302.455 181.423Z" fill="#2D647C"/>
<path d="M302.455 186.417C302.455 186.798 302.147 187.107 301.768 187.107H255.412C255.032 187.107 254.723 186.798 254.723 186.417C254.723 186.037 255.032 185.729 255.412 185.729H301.768C302.147 185.729 302.455 186.037 302.455 186.417Z" fill="#2D647C"/>
<path d="M302.455 191.736C302.455 192.117 302.147 192.425 301.768 192.425H255.412C255.032 192.425 254.723 192.117 254.723 191.736C254.723 191.354 255.032 191.046 255.412 191.046H301.768C302.147 191.046 302.455 191.354 302.455 191.736Z" fill="#2D647C"/>
<path d="M282.112 189.345C282.732 192.355 284.357 196.288 284.446 198.355C284.463 198.682 284.417 198.803 283.337 199.064C282.262 199.323 283.252 199.991 285.083 200.056C286.916 200.12 286.333 191.349 285.634 187.216C285.027 183.601 281.394 185.849 282.112 189.345Z" fill="#FFA09A"/>
<path d="M283.983 172.483C283.983 172.483 283.151 174.191 282.815 175.823C281.681 181.359 281.712 182.034 281.695 183.595C281.66 186.255 281.554 191.426 283.642 195.954C283.846 196.391 286.558 196.425 286.659 195.837C287.402 191.534 286.838 191.067 287.289 186.099C287.409 184.752 288.006 182.405 288.498 180.875C289.903 176.53 289.677 175.825 288.963 173.626L283.983 172.483Z" fill="#FBAA19"/>
<path d="M281.695 183.595C281.695 183.595 281.65 179.722 282.329 178.414L283.633 178.78C283.633 178.78 282.052 181.504 281.695 183.595Z" fill="#1D1B3A"/>
<path d="M273.371 178.884C273.699 181.942 274.942 186.009 274.837 188.076C274.82 188.403 274.763 188.518 273.666 188.677C272.568 188.835 273.487 189.591 275.308 189.828C277.124 190.062 277.377 181.275 277.076 177.095C276.814 173.438 272.983 175.339 273.371 178.884Z" fill="#FFA09A"/>
<path d="M281.589 172.013C281.589 172.013 275.646 167.664 273.614 170.671C271.783 173.374 274.393 185.896 274.393 185.896C274.393 185.896 275.806 186.47 277.186 185.686C277.186 185.686 276.881 178.052 278.52 177.855C280.37 177.632 284.152 180.569 286.173 179.187C289.329 177.032 286.601 172.165 286.601 172.165L281.589 172.013Z" fill="#FBB433"/>
<path d="M275.404 186.104L275.609 186.082L275.591 185.895C274.43 175.646 274.896 173.13 275.275 172.54C275.441 172.285 275.629 172.141 275.845 172.102C276.366 172.005 277.042 172.512 277.823 173.093C278.56 173.644 279.396 174.267 280.303 174.521C282.617 175.162 283.328 173.219 283.332 173.199L283.134 173.13C283.112 173.202 282.481 174.91 280.359 174.321C279.49 174.076 278.67 173.465 277.949 172.927C277.127 172.316 276.423 171.783 275.808 171.896C275.529 171.946 275.299 172.12 275.101 172.427C274.409 173.499 274.507 178.166 275.382 185.92L275.404 186.104Z" fill="white"/>
<path d="M280.494 154.12C280.494 154.12 279.139 151.373 278.911 152.312C278.692 153.226 279.223 153.09 279.685 154.513L280.494 154.12Z" fill="#FFA09A"/>
<path d="M289.584 163.408C289.918 163.798 290.429 165.178 289.305 165.421C287.523 165.81 283.256 163.374 282.33 162.409C280.331 160.329 279.57 154.348 279.57 154.348C279.57 154.348 279.985 153.689 280.649 154.067L284.73 160.401C284.73 160.401 288.433 162.06 289.584 163.408Z" fill="#82A816"/>
<path d="M283.788 161.942C282.306 162.832 281.345 162.74 279.867 170.943C279.54 172.742 289.623 176.838 289.867 175.026C290.512 170.194 289.905 168.106 288.997 163.586C288.753 162.356 286.728 160.176 283.788 161.942Z" fill="#A0C125"/>
<path d="M273.806 155.327C273.806 155.327 273.528 152.768 272.963 153.449C272.402 154.132 272.524 154.478 273.09 155.767L273.806 155.327Z" fill="#FFA09A"/>
<path d="M283.124 163.175C283.471 163.503 284.721 165.621 283.695 165.949C282.063 166.472 278.203 165.379 275.934 163.428C272.802 160.733 272.963 155.623 272.963 155.623C272.963 155.623 273.292 154.973 273.946 155.266C273.946 155.266 277.054 159.542 278.495 160.56C279.591 161.33 281.931 162.021 283.124 163.175Z" fill="#82A816"/>
<path d="M285.683 154.09C284.525 154.117 283.007 154.901 282.767 157.145C282.527 159.386 282.462 159.424 281.615 160.167C279.447 162.08 283.321 163.257 281.494 165.072C274.535 171.978 289.357 174.77 289.009 171.003C288.555 166.097 291.569 168.566 291.352 165.56C291.26 164.367 293.117 163.252 291.012 161.53C290.316 160.961 291.944 158.468 290.185 157.759C288.429 157.05 290.159 153.987 285.683 154.09Z" fill="#1D1B3A"/>
<path d="M75.4771 178.388C75.4771 178.388 74.5098 195.408 56.345 195.569C38.2299 195.727 34.5089 195.581 34.5089 195.581V199.902H56.7309C56.7309 199.902 79.4278 201.502 80.016 180.131L75.4771 178.388Z" fill="#FEAA3A"/>
<path d="M65.5603 169.893C65.5603 180.72 74.3132 189.497 85.1159 189.497C95.9157 189.497 104.67 180.721 104.67 169.893C104.67 159.066 95.9162 150.287 85.1159 150.287C74.3132 150.287 65.5603 159.065 65.5603 169.893Z" fill="#FEAA3A"/>
<path d="M81.6189 169.893C81.6189 171.829 83.1836 173.397 85.1159 173.397C87.0447 173.397 88.6111 171.829 88.6111 169.893C88.6111 167.958 87.0447 166.389 85.1159 166.389C83.1836 166.389 81.6189 167.958 81.6189 169.893Z" fill="#FE4040"/>
<path d="M55.1823 169.893C55.1823 186.464 68.5858 199.902 85.1175 199.902C101.648 199.902 115.048 186.464 115.048 169.893C115.048 153.319 101.648 139.884 85.1175 139.884C68.5852 139.884 55.1823 153.319 55.1823 169.893ZM74.9151 162.518C74.9151 166.456 71.7322 169.647 67.8032 169.647C63.8776 169.647 60.693 166.456 60.693 162.518C60.693 158.583 63.8776 155.388 67.8032 155.388C71.7322 155.389 74.9151 158.583 74.9151 162.518ZM92.369 150.274C92.369 154.21 89.1845 157.403 85.2577 157.403C81.3333 157.403 78.1527 154.21 78.1527 150.274C78.1527 146.338 81.3333 143.147 85.2577 143.147C89.1845 143.147 92.369 146.338 92.369 150.274ZM95.3159 178.915C95.3159 174.976 98.4988 171.784 102.428 171.784C106.352 171.784 109.536 174.976 109.536 178.915C109.536 182.851 106.352 186.044 102.428 186.044C98.4988 186.043 95.3159 182.851 95.3159 178.915ZM95.3159 162.518C95.3159 158.58 98.4988 155.39 102.428 155.39C106.352 155.39 109.536 158.58 109.536 162.518C109.536 166.454 106.352 169.647 102.428 169.647C98.4988 169.647 95.3159 166.454 95.3159 162.518ZM78.2 189.512C78.2 185.574 81.384 182.383 85.3102 182.383C89.2392 182.383 92.4232 185.574 92.4232 189.512C92.4232 193.446 89.2386 196.637 85.3102 196.637C81.384 196.637 78.2 193.446 78.2 189.512ZM77.8255 169.632C77.8255 165.515 81.1554 162.176 85.2589 162.176C89.3652 162.176 92.6934 165.515 92.6934 169.632C92.6934 173.744 89.3652 177.084 85.2589 177.084C81.1554 177.084 77.8255 173.745 77.8255 169.632ZM61.0857 179.126C61.0857 175.192 64.2703 171.996 68.1988 171.996C72.1232 171.996 75.3055 175.192 75.3055 179.126C75.3055 183.063 72.1232 186.255 68.1988 186.255C64.2703 186.255 61.0857 183.063 61.0857 179.126Z" fill="#FE4040"/>
<g opacity="0.3">
<path d="M72.154 142.837C70.2987 146.7 69.1627 150.973 68.905 155.483C68.5425 155.428 68.1777 155.389 67.8027 155.389C63.8771 155.389 60.6925 158.583 60.6925 162.519C60.6925 166.456 63.8771 169.647 67.8027 169.647C68.8999 169.647 69.9316 169.392 70.8573 168.948C71.5082 170.749 72.3165 172.474 73.2519 174.116C71.9608 172.81 70.1756 171.996 68.1988 171.996C64.2698 171.996 61.0858 175.192 61.0858 179.126C61.0858 183.064 64.2704 186.256 68.1988 186.256C72.1233 186.256 75.3056 183.064 75.3056 179.126C75.3056 178.268 75.1471 177.449 74.8701 176.685C76.6776 179.292 78.8441 181.628 81.2963 183.627C79.4278 184.913 78.1995 187.068 78.1995 189.513C78.1995 193.447 81.3835 196.638 85.3096 196.638C89.201 196.638 92.3543 193.507 92.4141 189.623C95.5936 190.62 98.9731 191.16 102.478 191.16C103.83 191.16 105.159 191.069 106.466 190.916C101.037 196.456 93.4772 199.903 85.1164 199.903C68.5847 199.903 55.1812 186.465 55.1812 169.893C55.1823 157.976 62.1146 147.68 72.154 142.837Z" fill="black"/>
</g>
<path d="M73.2524 174.116C73.9615 174.84 74.515 175.716 74.8707 176.685C74.2916 175.856 73.7535 175 73.2524 174.116Z" fill="#FE4040"/>
<path d="M239.557 99.0322H197.72V199.729H239.557V99.0322Z" fill="#3A7595"/>
<path d="M233.787 99.0322H203.491V199.729H233.787V99.0322Z" fill="#7AC5EE"/>
<path d="M236.872 101.211C237.127 101.227 237.514 101.221 237.611 101.917C237.712 102.613 238.181 104.599 237.181 104.791C236.178 104.986 235.489 104.515 235.442 103.247C235.399 101.976 235.392 101.119 236.872 101.211Z" fill="white"/>
<path d="M236.872 106.997C237.127 107.012 237.514 107.006 237.611 107.703C237.712 108.399 238.181 110.384 237.181 110.577C236.178 110.771 235.489 110.302 235.442 109.035C235.399 107.762 235.392 106.904 236.872 106.997Z" fill="white"/>
<path d="M236.872 112.782C237.127 112.797 237.514 112.791 237.611 113.488C237.712 114.186 238.181 116.168 237.181 116.362C236.178 116.557 235.489 116.089 235.442 114.818C235.399 113.547 235.392 112.69 236.872 112.782Z" fill="white"/>
<path d="M236.872 118.567C237.127 118.582 237.514 118.577 237.611 119.273C237.712 119.969 238.181 121.955 237.181 122.147C236.178 122.342 235.489 121.873 235.442 120.604C235.399 119.333 235.392 118.475 236.872 118.567Z" fill="white"/>
<path d="M236.872 124.353C237.127 124.367 237.514 124.362 237.611 125.058C237.712 125.756 238.181 127.739 237.181 127.931C236.178 128.127 235.489 127.658 235.442 126.39C235.399 125.118 235.392 124.26 236.872 124.353Z" fill="white"/>
<path d="M236.872 130.14C237.127 130.154 237.514 130.148 237.611 130.842C237.712 131.539 238.181 133.525 237.181 133.716C236.178 133.912 235.489 133.444 235.442 132.175C235.399 130.903 235.392 130.047 236.872 130.14Z" fill="white"/>
<path d="M236.872 135.924C237.127 135.939 237.514 135.931 237.611 136.63C237.712 137.328 238.181 139.31 237.181 139.502C236.178 139.697 235.489 139.228 235.442 137.961C235.399 136.689 235.392 135.83 236.872 135.924Z" fill="white"/>
<path d="M236.872 141.709C237.127 141.725 237.514 141.718 237.611 142.415C237.712 143.112 238.181 145.095 237.181 145.286C236.178 145.484 235.489 145.014 235.442 143.745C235.399 142.474 235.392 141.615 236.872 141.709Z" fill="white"/>
<path d="M236.872 106.997C237.127 107.012 237.514 107.006 237.611 107.703C237.712 108.399 238.181 110.384 237.181 110.577C236.178 110.771 235.489 110.302 235.442 109.035C235.399 107.762 235.392 106.904 236.872 106.997Z" fill="white"/>
<path d="M236.872 112.782C237.127 112.797 237.514 112.791 237.611 113.488C237.712 114.186 238.181 116.168 237.181 116.362C236.178 116.557 235.489 116.089 235.442 114.818C235.399 113.547 235.392 112.69 236.872 112.782Z" fill="white"/>
<path d="M236.872 118.567C237.127 118.582 237.514 118.577 237.611 119.273C237.712 119.969 238.181 121.955 237.181 122.147C236.178 122.342 235.489 121.873 235.442 120.604C235.399 119.333 235.392 118.475 236.872 118.567Z" fill="white"/>
<path d="M236.872 124.353C237.127 124.367 237.514 124.362 237.611 125.058C237.712 125.756 238.181 127.739 237.181 127.931C236.178 128.127 235.489 127.658 235.442 126.39C235.399 125.118 235.392 124.26 236.872 124.353Z" fill="white"/>
<path d="M236.872 130.14C237.127 130.154 237.514 130.148 237.611 130.842C237.712 131.539 238.181 133.525 237.181 133.716C236.178 133.912 235.489 133.444 235.442 132.175C235.399 130.903 235.392 130.047 236.872 130.14Z" fill="white"/>
<path d="M236.872 135.924C237.127 135.939 237.514 135.931 237.611 136.63C237.712 137.328 238.181 139.31 237.181 139.502C236.178 139.697 235.489 139.228 235.442 137.961C235.399 136.689 235.392 135.83 236.872 135.924Z" fill="white"/>
<path d="M236.872 141.709C237.127 141.725 237.514 141.718 237.611 142.415C237.712 143.112 238.181 145.095 237.181 145.286C236.178 145.484 235.489 145.014 235.442 143.745C235.399 142.474 235.392 141.615 236.872 141.709Z" fill="white"/>
<path d="M236.872 148.204C237.127 148.221 237.514 148.212 237.611 148.909C237.712 149.608 238.181 151.591 237.181 151.784C236.178 151.979 235.489 151.508 235.442 150.24C235.399 148.968 235.392 148.114 236.872 148.204Z" fill="white"/>
<path d="M236.872 153.989C237.127 154.006 237.514 153.999 237.611 154.696C237.712 155.393 238.181 157.375 237.181 157.57C236.178 157.766 235.489 157.294 235.442 156.025C235.399 154.754 235.392 153.897 236.872 153.989Z" fill="white"/>
<path d="M236.872 159.774C237.127 159.791 237.514 159.784 237.611 160.481C237.712 161.178 238.181 163.162 237.181 163.355C236.178 163.551 235.489 163.079 235.442 161.81C235.399 160.539 235.392 159.684 236.872 159.774Z" fill="white"/>
<path d="M236.872 165.559C237.127 165.576 237.514 165.57 237.611 166.266C237.712 166.963 238.181 168.947 237.181 169.14C236.178 169.336 235.489 168.864 235.442 167.595C235.399 166.323 235.392 165.469 236.872 165.559Z" fill="white"/>
<path d="M236.872 171.348C237.127 171.362 237.514 171.355 237.611 172.051C237.712 172.748 238.181 174.733 237.181 174.925C236.178 175.12 235.489 174.649 235.442 173.38C235.399 172.11 235.392 171.254 236.872 171.348Z" fill="white"/>
<path d="M236.872 177.132C237.127 177.147 237.514 177.141 237.611 177.836C237.712 178.533 238.181 180.517 237.181 180.711C236.178 180.906 235.489 180.435 235.442 179.168C235.399 177.896 235.392 177.04 236.872 177.132Z" fill="white"/>
<path d="M236.872 182.917C237.127 182.932 237.514 182.926 237.611 183.621C237.712 184.319 238.181 186.304 237.181 186.496C236.178 186.691 235.489 186.22 235.442 184.953C235.399 183.683 235.392 182.825 236.872 182.917Z" fill="white"/>
<path d="M236.872 188.791C237.127 188.808 237.514 188.802 237.611 189.498C237.712 190.195 238.181 192.18 237.181 192.371C236.178 192.568 235.489 192.096 235.442 190.83C235.399 189.559 235.392 188.7 236.872 188.791Z" fill="white"/>
<path d="M236.872 194.578C237.127 194.593 237.514 194.587 237.611 195.284C237.712 195.981 238.181 197.964 237.181 198.157C236.178 198.353 235.489 197.883 235.442 196.616C235.399 195.343 235.392 194.487 236.872 194.578Z" fill="white"/>
<path d="M200.805 101.211C201.06 101.227 201.446 101.221 201.543 101.917C201.644 102.613 202.111 104.599 201.11 104.791C200.109 104.986 199.422 104.515 199.375 103.247C199.328 101.976 199.322 101.119 200.805 101.211Z" fill="white"/>
<path d="M200.805 106.997C201.06 107.012 201.446 107.006 201.543 107.703C201.644 108.399 202.111 110.384 201.11 110.577C200.109 110.771 199.422 110.302 199.375 109.035C199.328 107.762 199.322 106.904 200.805 106.997Z" fill="white"/>
<path d="M200.805 112.782C201.06 112.797 201.446 112.791 201.543 113.488C201.644 114.186 202.111 116.168 201.11 116.362C200.109 116.557 199.422 116.089 199.375 114.818C199.328 113.547 199.322 112.69 200.805 112.782Z" fill="white"/>
<path d="M200.805 118.567C201.06 118.582 201.446 118.577 201.543 119.273C201.644 119.969 202.111 121.955 201.11 122.147C200.109 122.342 199.422 121.873 199.375 120.604C199.328 119.333 199.322 118.475 200.805 118.567Z" fill="white"/>
<path d="M200.805 124.353C201.06 124.367 201.446 124.362 201.543 125.058C201.644 125.756 202.111 127.739 201.11 127.931C200.109 128.127 199.422 127.658 199.375 126.39C199.328 125.118 199.322 124.26 200.805 124.353Z" fill="white"/>
<path d="M200.805 130.14C201.06 130.154 201.446 130.148 201.543 130.842C201.644 131.539 202.111 133.525 201.11 133.716C200.109 133.912 199.422 133.444 199.375 132.175C199.328 130.903 199.322 130.047 200.805 130.14Z" fill="white"/>
<path d="M200.805 135.924C201.06 135.939 201.446 135.931 201.543 136.63C201.644 137.328 202.111 139.31 201.11 139.502C200.109 139.697 199.422 139.228 199.375 137.961C199.328 136.689 199.322 135.83 200.805 135.924Z" fill="white"/>
<path d="M200.805 141.709C201.06 141.725 201.446 141.718 201.543 142.415C201.644 143.112 202.111 145.095 201.11 145.286C200.109 145.484 199.422 145.014 199.375 143.745C199.328 142.474 199.322 141.615 200.805 141.709Z" fill="white"/>
<path d="M200.805 106.997C201.06 107.012 201.446 107.006 201.543 107.703C201.644 108.399 202.111 110.384 201.11 110.577C200.109 110.771 199.422 110.302 199.375 109.035C199.328 107.762 199.322 106.904 200.805 106.997Z" fill="white"/>
<path d="M200.805 112.782C201.06 112.797 201.446 112.791 201.543 113.488C201.644 114.186 202.111 116.168 201.11 116.362C200.109 116.557 199.422 116.089 199.375 114.818C199.328 113.547 199.322 112.69 200.805 112.782Z" fill="white"/>
<path d="M200.805 118.567C201.06 118.582 201.446 118.577 201.543 119.273C201.644 119.969 202.111 121.955 201.11 122.147C200.109 122.342 199.422 121.873 199.375 120.604C199.328 119.333 199.322 118.475 200.805 118.567Z" fill="white"/>
<path d="M200.805 124.353C201.06 124.367 201.446 124.362 201.543 125.058C201.644 125.756 202.111 127.739 201.11 127.931C200.109 128.127 199.422 127.658 199.375 126.39C199.328 125.118 199.322 124.26 200.805 124.353Z" fill="white"/>
<path d="M200.805 130.14C201.06 130.154 201.446 130.148 201.543 130.842C201.644 131.539 202.111 133.525 201.11 133.716C200.109 133.912 199.422 133.444 199.375 132.175C199.328 130.903 199.322 130.047 200.805 130.14Z" fill="white"/>
<path d="M200.805 135.924C201.06 135.939 201.446 135.931 201.543 136.63C201.644 137.328 202.111 139.31 201.11 139.502C200.109 139.697 199.422 139.228 199.375 137.961C199.328 136.689 199.322 135.83 200.805 135.924Z" fill="white"/>
<path d="M200.805 141.709C201.06 141.725 201.446 141.718 201.543 142.415C201.644 143.112 202.111 145.095 201.11 145.286C200.109 145.484 199.422 145.014 199.375 143.745C199.328 142.474 199.322 141.615 200.805 141.709Z" fill="white"/>
<path d="M200.805 148.204C201.06 148.221 201.446 148.212 201.543 148.909C201.644 149.608 202.111 151.591 201.11 151.784C200.109 151.979 199.422 151.508 199.375 150.24C199.328 148.968 199.322 148.114 200.805 148.204Z" fill="white"/>
<path d="M200.805 153.989C201.06 154.006 201.446 153.999 201.543 154.696C201.644 155.393 202.111 157.375 201.11 157.57C200.109 157.766 199.422 157.294 199.375 156.025C199.328 154.754 199.322 153.897 200.805 153.989Z" fill="white"/>
<path d="M200.805 159.774C201.06 159.791 201.446 159.784 201.543 160.481C201.644 161.178 202.111 163.162 201.11 163.355C200.109 163.551 199.422 163.079 199.375 161.81C199.328 160.539 199.322 159.684 200.805 159.774Z" fill="white"/>
<path d="M200.805 165.559C201.06 165.576 201.446 165.57 201.543 166.266C201.644 166.963 202.111 168.947 201.11 169.14C200.109 169.336 199.422 168.864 199.375 167.595C199.328 166.323 199.322 165.469 200.805 165.559Z" fill="white"/>
<path d="M200.805 171.348C201.06 171.362 201.446 171.355 201.543 172.051C201.644 172.748 202.111 174.733 201.11 174.925C200.109 175.12 199.422 174.649 199.375 173.38C199.328 172.11 199.322 171.254 200.805 171.348Z" fill="white"/>
<path d="M200.805 177.132C201.06 177.147 201.446 177.141 201.543 177.836C201.644 178.533 202.111 180.517 201.11 180.711C200.109 180.906 199.422 180.435 199.375 179.168C199.328 177.896 199.322 177.04 200.805 177.132Z" fill="white"/>
<path d="M200.805 182.917C201.06 182.932 201.446 182.926 201.543 183.621C201.644 184.319 202.111 186.304 201.11 186.496C200.109 186.691 199.422 186.22 199.375 184.953C199.328 183.683 199.322 182.825 200.805 182.917Z" fill="white"/>
<path d="M200.805 188.791C201.06 188.808 201.446 188.802 201.543 189.498C201.644 190.195 202.111 192.18 201.11 192.371C200.109 192.568 199.422 192.096 199.375 190.83C199.328 189.559 199.322 188.7 200.805 188.791Z" fill="white"/>
<path d="M200.805 194.578C201.06 194.593 201.446 194.587 201.543 195.284C201.644 195.981 202.111 197.964 201.11 198.157C200.109 198.353 199.422 197.883 199.375 196.616C199.328 195.343 199.322 194.487 200.805 194.578Z" fill="white"/>
<path d="M218.641 123.095C213.612 123.095 209.519 118.995 209.519 113.954C209.519 108.915 213.612 104.813 218.641 104.813C223.667 104.813 227.758 108.915 227.758 113.954C227.758 118.995 223.668 123.095 218.641 123.095ZM218.641 105.245C213.848 105.245 209.949 109.152 209.949 113.954C209.949 118.757 213.848 122.664 218.641 122.664C223.431 122.664 227.328 118.757 227.328 113.954C227.328 109.152 223.431 105.245 218.641 105.245Z" fill="white"/>
<path d="M218.09 111.047H218.063L216.549 111.864L216.324 110.968L218.221 109.95H219.222V118.656H218.091L218.09 111.047Z" fill="white"/>
<path d="M218.641 146.768C213.612 146.768 209.519 142.668 209.519 137.63C209.519 132.591 213.612 128.489 218.641 128.489C223.667 128.489 227.758 132.591 227.758 137.63C227.758 142.668 223.668 146.768 218.641 146.768ZM218.641 128.92C213.848 128.92 209.949 132.828 209.949 137.629C209.949 142.43 213.848 146.336 218.641 146.336C223.431 146.336 227.328 142.43 227.328 137.629C227.328 132.828 223.431 128.92 218.641 128.92Z" fill="white"/>
<path d="M215.535 142.329V141.606L216.459 140.708C218.674 138.593 219.675 137.466 219.692 136.153C219.692 135.271 219.263 134.453 217.966 134.453C217.18 134.453 216.523 134.856 216.123 135.191L215.75 134.36C216.352 133.85 217.204 133.476 218.209 133.476C220.078 133.476 220.867 134.763 220.867 136.006C220.867 137.614 219.705 138.912 217.872 140.683L217.18 141.324V141.353H221.081V142.329H215.535Z" fill="white"/>
<path d="M218.641 170.093C213.614 170.093 209.523 165.992 209.523 160.953C209.523 155.914 213.614 151.814 218.641 151.814C223.667 151.814 227.758 155.914 227.758 160.953C227.758 165.992 223.668 170.093 218.641 170.093ZM218.641 152.245C213.85 152.245 209.953 156.152 209.953 160.953C209.953 165.756 213.85 169.663 218.641 169.663C223.431 169.663 227.328 165.756 227.328 160.953C227.328 156.152 223.431 152.245 218.641 152.245Z" fill="white"/>
<path d="M215.814 164.301C216.149 164.516 216.921 164.849 217.741 164.849C219.248 164.849 219.718 163.886 219.704 163.164C219.692 161.943 218.594 161.421 217.459 161.421H216.805V160.535H217.459C218.315 160.535 219.395 160.094 219.395 159.064C219.395 158.367 218.956 157.751 217.872 157.751C217.18 157.751 216.512 158.058 216.136 158.327L215.827 157.469C216.284 157.135 217.164 156.799 218.1 156.799C219.812 156.799 220.584 157.819 220.584 158.875C220.584 159.774 220.049 160.535 218.983 160.925V160.953C220.049 161.168 220.919 161.97 220.919 163.188C220.919 164.582 219.838 165.802 217.753 165.802C216.776 165.802 215.92 165.492 215.493 165.213L215.814 164.301Z" fill="white"/>
<path d="M218.641 193.62C213.612 193.62 209.519 189.518 209.519 184.479C209.519 179.44 213.612 175.34 218.641 175.34C223.667 175.34 227.758 179.44 227.758 184.479C227.758 189.518 223.668 193.62 218.641 193.62ZM218.641 175.771C213.848 175.771 209.949 179.676 209.949 184.479C209.949 189.281 213.848 193.188 218.641 193.188C223.431 193.188 227.328 189.281 227.328 184.479C227.328 179.676 223.431 175.771 218.641 175.771Z" fill="white"/>
<path d="M219.171 189.18V186.809H215.137V186.032L219.01 180.473H220.279V185.886H221.495V186.809H220.279V189.181H219.171V189.18ZM219.171 185.885V182.98C219.171 182.521 219.184 182.068 219.208 181.614H219.171C218.902 182.121 218.687 182.496 218.449 182.898L216.324 185.858V185.885H219.171Z" fill="white"/>
<path d="M231.549 148.443H205.734V127.11H231.549V148.443ZM206.163 148.013H231.119V127.541H206.163V148.013Z" fill="white"/>
<path d="M231.549 171.621H205.734V150.286H231.549V171.621ZM206.163 171.19H231.119V150.718H206.163V171.19Z" fill="white"/>
<path d="M231.549 194.797H205.734V173.463H231.549V194.797ZM206.163 194.366H231.119V173.893H206.163V194.366Z" fill="white"/>
<path d="M231.549 124.623H205.734V103.29H231.549V124.623ZM206.163 124.192H231.119V103.72H206.163V124.192Z" fill="white"/>
<path d="M218.855 124.408H218.426V127.326H218.855V124.408Z" fill="white"/>
<path d="M218.855 148.202H218.426V150.501H218.855V148.202Z" fill="white"/>
<path d="M218.855 171.382H218.426V173.678H218.855V171.382Z" fill="white"/>
<path d="M231.333 113.74H227.543V114.171H231.333V113.74Z" fill="white"/>
<path d="M209.573 113.74H205.783V114.171H209.573V113.74Z" fill="white"/>
<path d="M231.333 138.281H227.543V138.713H231.333V138.281Z" fill="white"/>
<path d="M209.573 138.281H205.783V138.713H209.573V138.281Z" fill="white"/>
<path d="M231.333 161.458H227.543V161.888H231.333V161.458Z" fill="white"/>
<path d="M209.573 161.458H205.783V161.888H209.573V161.458Z" fill="white"/>
<path d="M231.333 185.997H227.543V186.427H231.333V185.997Z" fill="white"/>
<path d="M209.573 185.997H205.783V186.427H209.573V185.997Z" fill="white"/>
<g opacity="0.3">
<path d="M233.787 99.0322H218.641V199.729H233.787V99.0322Z" fill="black"/>
</g>
<path d="M183.014 179.699H181.723V199.487H183.014V179.699Z" fill="#3A7595"/>
<path d="M174.726 160.177H185.545C187.238 160.177 188.611 161.654 188.611 163.476V179.7H171.662V163.476C171.662 161.654 173.035 160.177 174.726 160.177Z" fill="#387BFF"/>
<path d="M171.662 180.028C171.662 180.699 172.166 181.24 172.785 181.24H196.391C197.009 181.24 197.514 180.699 197.514 180.028C197.514 179.366 197.009 178.826 196.391 178.826H172.785C172.166 178.826 171.662 179.366 171.662 180.028Z" fill="#48A2E5"/>
<path d="M190.064 198.826H175.156V200.367H190.064V198.826Z" fill="#3A7595"/>
<path d="M190.881 180.03C191.23 184.45 192.895 193.551 194.77 192.929C196.637 192.313 197.488 191.333 196.311 191.392C195.132 191.453 195.048 191.344 194.984 191.009C194.544 188.877 195.203 184.386 195.062 181.135C194.906 177.364 190.576 176.171 190.881 180.03Z" fill="#FFA09A"/>
<path d="M184.346 171.869C184.346 171.869 191.177 169.26 193.793 171.972C196.14 174.414 195.776 187.36 195.776 187.36C195.776 187.36 194.09 188.955 191.855 188.634C191.855 188.634 191.186 180.528 189.081 179.318C187.613 178.472 184.378 180.466 182.318 178.991C177.437 175.478 181.13 173.614 181.13 173.614L184.346 171.869Z" fill="#FE4040"/>
<path d="M180.083 183.13C177.858 186.96 174.062 195.39 175.953 195.949C177.842 196.511 179.099 196.189 178.095 195.567C177.087 194.947 177.087 194.81 177.221 194.495C178.072 192.489 181.162 189.173 182.894 186.423C184.905 183.233 182.022 179.778 180.083 183.13Z" fill="#FFA09A"/>
<path d="M179.344 172.687C179.344 172.687 186.265 174.474 187.051 178.162C188.212 183.594 179.944 191.945 179.944 191.945C179.944 191.945 177.654 192.294 175.993 190.756C175.993 190.756 180.046 183.711 179.006 181.516C178.281 179.983 174.487 179.773 173.632 177.386C171.616 171.713 175.708 172.287 175.708 172.287L179.344 172.687Z" fill="#FE4040"/>
<path d="M184.882 175.235C184.882 175.235 181.757 178.23 173.263 176.145C173.263 176.145 172.809 175.153 173.074 173.737C173.074 173.737 176.881 176.115 184.882 175.235Z" fill="#1D1B3A"/>
<path d="M177.207 191.637C177.273 191.591 178.786 190.517 181.123 185.377C183.024 181.203 180.8 180.055 178.833 179.043C178.267 178.75 177.733 178.473 177.28 178.134C175.299 176.646 176.207 175.054 176.217 175.041L175.944 174.879C175.936 174.897 174.885 176.729 177.091 178.389C177.565 178.743 178.138 179.038 178.69 179.324C180.706 180.364 182.611 181.35 180.839 185.244C178.547 190.277 177.048 191.363 177.032 191.375L177.207 191.637Z" fill="#E2E4EB"/>
<path d="M183.566 163.091C183.534 162.536 184.499 161.541 186.023 161.2C188.069 160.752 188.183 169.747 190.31 167.792C192.441 165.823 191.415 160.51 191.294 159.195C191.166 157.875 190.505 157.409 190.516 156.632C190.525 155.861 191.444 155.916 192.147 157.974C192.484 158.964 195.267 171.332 192.131 172.633C187.895 174.398 183.76 166.356 183.566 163.091Z" fill="#FFA09A"/>
<path d="M184.02 160.177C184.02 160.177 181.78 161.016 182.927 164.395C184.077 167.775 185.042 169.085 185.042 169.085C185.042 169.085 187.373 169.014 190.153 166.643C190.153 166.643 187.01 158.551 184.02 160.177Z" fill="#82A816"/>
<path d="M185.687 174.581C187.64 172.067 188.769 168.143 188.887 165.088C189.041 160.848 185.315 159.711 182.946 159.454C180.572 159.201 176.698 158.691 176.79 163.977C176.851 167.665 175.501 169.574 173.596 172.668C173.541 172.746 173.489 172.817 173.439 172.896C173.439 172.889 173.432 172.885 173.432 172.885C173.435 172.89 173.439 172.89 173.439 172.896C170.775 176.1 183.475 177.433 185.687 174.581Z" fill="#A0C125"/>
<path d="M184.695 157.007C184.695 157.007 184.952 158.973 183.463 159.509C181.926 160.051 185.917 164.132 186.116 163.092C186.371 161.752 185.961 160.774 187.055 159.491L184.695 157.007Z" fill="#FF8998"/>
<path d="M188.447 154.615C189.221 156.008 188.954 160.942 187.483 161.582C186.839 161.856 184.928 160.704 184.257 158.281C183.974 157.295 183.801 155.536 185.124 154.25C185.721 153.667 187.553 153.008 188.447 154.615Z" fill="#FFA09A"/>
<path d="M189.394 155.525C189.451 156.175 189.343 156.284 187.54 155.999C185.742 155.718 185.48 155.507 185.526 155.973C185.659 157.343 184.511 156.719 184.684 158.354C184.85 159.993 183.686 158.66 183.424 157.279C183.379 157.004 183.017 155.616 184.424 154.096C186.057 152.316 189.161 153.14 189.394 155.525Z" fill="#1D1B3A"/>
<path d="M177.93 162.323C178.126 161.809 179.406 161.285 180.939 161.592C182.991 162.008 179.472 170.287 182.211 169.359C184.948 168.419 186.145 163.142 186.565 161.887C186.98 160.63 186.56 159.932 186.886 159.228C187.206 158.53 188.022 158.949 187.836 161.119C187.751 162.159 184.172 175.033 180.778 174.96C176.194 174.861 176.789 165.392 177.93 162.323Z" fill="#FFA09A"/>
<path d="M179.958 160.082C179.958 160.082 177.588 159.758 177.002 163.274C176.411 166.795 176.634 168.407 176.634 168.407C176.634 168.407 178.721 169.454 182.291 168.691C182.291 168.691 183.356 160.071 179.958 160.082Z" fill="#82A816"/>
<path d="M202.025 174.032H175.439V175.573H202.025V174.032Z" fill="#FBAA19"/>
<path d="M185.794 175.566H204.721L207.508 162.064H189.531L185.794 175.566Z" fill="#FEAA3A"/>
<path d="M212.077 175.434H158.922V177.063H212.077V175.434Z" fill="#3A7595"/>
<path d="M211.485 200.56H213.479L205.95 175.601L203.95 175.991L211.485 200.56Z" fill="#3A7595"/>
<path d="M158.048 200.586H160.204L167.381 175.949L165.374 175.576L158.048 200.586Z" fill="#3A7595"/>
<path d="M50.0249 113.482L17.2599 126.74L28.7582 155.298L61.5232 142.039L50.0249 113.482Z" fill="#FEAA3A"/>
<path d="M52.8266 126.372L24.8398 137.7L30.5684 151.924L58.5551 140.596L52.8266 126.372Z" fill="#F5F9FC"/>
<path d="M31.0091 128.701C31.9496 131.031 30.8278 133.684 28.5011 134.624C26.1749 135.564 23.5307 134.44 22.593 132.109C21.6525 129.778 22.7771 127.127 25.101 126.187C27.4278 125.244 30.0748 126.371 31.0091 128.701Z" fill="#F5F9FC"/>
<path d="M50.1415 119.702L32.3209 126.918L32.8134 128.14L50.634 120.924L50.1415 119.702Z" fill="#F5F9FC"/>
<path d="M49.1563 117.238L31.3337 124.45L31.8251 125.671L49.6476 118.459L49.1563 117.238Z" fill="#F5F9FC"/>
<path d="M51.139 122.177L33.3143 129.392L33.8064 130.614L51.6311 123.399L51.139 122.177Z" fill="#F5F9FC"/>
<path d="M31.2462 150.315L56.6163 140.046L48.3246 131.943L45.2648 140.439L37.0294 134.448L34.5676 143.119L31.5181 142.119L31.2462 150.315Z" fill="#7AC5EE"/>
<path d="M50.0996 188.638C49.7131 192.742 49.765 201.389 51.5371 201.196C53.311 201.005 54.2247 200.28 53.1599 200.101C52.0974 199.923 52.0427 199.806 52.0342 199.482C51.9772 197.447 53.2762 193.477 53.6672 190.477C54.1238 187.004 50.4393 185.053 50.0996 188.638Z" fill="#FFA09A"/>
<path d="M61.0053 175.356C59.2172 179.066 56.2572 187.188 57.9911 187.629C59.7199 188.066 60.8257 187.712 59.8909 187.169C58.9561 186.628 58.9453 186.502 59.0479 186.197C59.7057 184.273 62.3015 181.001 63.7116 178.326C65.343 175.225 62.5659 172.111 61.0053 175.356Z" fill="#FFA09A"/>
<path d="M58.7664 169.083C58.7664 169.083 65.8241 165.709 66.5714 169.188C67.2531 172.321 61.3565 183.669 61.3565 183.669C61.3565 183.669 59.321 184.102 57.7529 182.732L59.3369 175.465L54.8989 175.361L55.9238 170.348L58.7664 169.083Z" fill="#A0C125"/>
<path d="M49.224 170.94L49.7837 197.31L52.8954 197.226L56.8985 170.008C56.8985 170.008 54.5512 171.275 49.224 170.94Z" fill="#A0C125"/>
<path d="M56.9287 162.892C56.9287 162.892 54.2982 162.132 54.293 158.813C54.2845 155.503 56.1951 147.921 56.1626 146.691C56.1005 144.452 52.7136 144.307 53.9966 144.193C55.6485 144.051 56.6813 143.267 57.0775 144.978C57.3522 146.163 58.657 157.508 58.5105 159.428C58.3588 161.352 58.7852 162.815 56.9287 162.892Z" fill="#FFA09A"/>
<path d="M59.5244 168.752C60.0032 165.93 59.236 162.336 58.027 159.87C56.3507 156.448 52.9204 157.126 50.934 157.936C48.9475 158.742 45.6643 159.995 47.9768 164.144C49.5939 167.037 49.3305 169.129 49.1345 172.388C49.1231 172.476 49.1157 172.555 49.1071 172.639C49.0986 172.636 49.094 172.634 49.094 172.634C49.0963 172.634 49.0991 172.636 49.1071 172.639C48.3541 176.312 58.9806 171.962 59.5244 168.752Z" fill="#FBB433"/>
<path d="M51.2817 164.306C51.2817 164.306 48.9333 165.717 46.504 163.472C44.0798 161.225 39.1681 154.784 38.8152 153.613C38.4613 152.44 34.7215 153.841 35.5372 152.841C36.3557 151.844 36.7575 151.135 38.2846 152.01C39.3368 152.615 48.5201 159.371 49.8219 160.788C51.1261 162.205 52.485 162.887 51.2817 164.306Z" fill="#FFA09A"/>
<path d="M48.2977 156.911C48.2977 156.911 50.1023 157.348 50.0642 158.838C50.0214 160.373 54.9291 158.245 54.0918 157.719C53.0048 157.045 52.013 157.078 51.26 155.675L48.2977 156.911Z" fill="#FF8998"/>
<path d="M47.4792 152.814C48.9469 152.607 53.1701 154.503 53.2333 156.013C53.2544 156.667 51.6026 157.958 49.265 157.732C48.3029 157.637 46.7131 157.201 46.0337 155.604C45.7265 154.879 45.7675 153.054 47.4792 152.814Z" fill="#FFA09A"/>
<path d="M48.5879 152.291C49.175 152.458 49.232 152.59 48.3787 154.075C47.5174 155.563 47.2507 155.718 47.6776 155.836C48.9145 156.184 47.9797 156.977 49.4691 157.383C50.9557 157.784 49.4013 158.354 48.1045 158.122C47.8463 158.07 46.5205 157.915 45.6644 156.166C44.6617 154.132 46.4276 151.689 48.5879 152.291Z" fill="#1D1B3A"/>
<path d="M45.6639 156.166C46.3872 157.857 47.8458 158.07 48.104 158.122C49.0662 158.291 50.1942 158.032 50.0637 157.71C49.9041 157.316 49.1238 158.076 48.5338 157.212C47.9496 156.354 47.3739 156.738 46.7942 156.073C46.2151 155.406 46.748 155.005 47.7124 153.332C48.104 152.648 47.9621 152.346 47.6611 152.224C45.9688 152.417 44.8949 154.394 45.6639 156.166Z" fill="#1D1B3A"/>
<path d="M59.3369 175.465L56.1056 175.389L56.3934 173.438C56.3934 173.438 56.3062 175.068 59.3369 175.465Z" fill="#1D1B3A"/>
<path d="M49.2782 173.61C49.2782 173.61 54.4424 173.822 57.6355 171.171C57.6355 171.171 53.5937 175.263 49.3164 175.312L49.2782 173.61Z" fill="#1D1B3A"/>
</svg>
