<svg width="15" height="11" viewBox="0 0 15 11" fill="none" xmlns="http://www.w3.org/2000/svg">
<path fill-rule="evenodd" clip-rule="evenodd" d="M14.0058 0.756633C14.17 0.920848 14.2622 1.14354 14.2622 1.37574C14.2622 1.60794 14.17 1.83063 14.0058 1.99485L5.68682 10.3139C5.5226 10.478 5.29991 10.5702 5.06771 10.5702C4.83551 10.5702 4.61282 10.478 4.4486 10.3139L0.508022 6.37327C0.348509 6.20812 0.260245 5.98692 0.26224 5.75731C0.264235 5.52771 0.35633 5.30808 0.518689 5.14572C0.681048 4.98336 0.900681 4.89127 1.13028 4.88927C1.35988 4.88728 1.58108 4.97554 1.74624 5.13505L5.06771 8.45652L12.7676 0.756633C12.9318 0.592467 13.1545 0.500244 13.3867 0.500244C13.6189 0.500244 13.8416 0.592467 14.0058 0.756633Z" fill="white"/>
</svg>
