<svg width="32" height="32" viewBox="0 0 32 32" fill="none" xmlns="http://www.w3.org/2000/svg">
<rect width="32" height="32" rx="4" fill="#65558F"/>
<path d="M8.14968 5.60793C8.41828 4.82191 9.50435 4.7981 9.82281 5.53651L9.84976 5.60838L10.2122 6.66839C10.2953 6.91149 10.4295 7.13395 10.6059 7.32076C10.7822 7.50757 10.9966 7.65439 11.2345 7.75131L11.332 7.78769L12.392 8.14971C13.178 8.41831 13.2018 9.50437 12.4639 9.82283L12.392 9.84978L11.332 10.2122C11.0888 10.2953 10.8663 10.4295 10.6794 10.6058C10.4925 10.7822 10.3456 10.9966 10.2486 11.2345L10.2122 11.3315L9.8502 12.392C9.58161 13.178 8.49554 13.2018 8.17753 12.4639L8.14968 12.392L7.78766 11.332C7.70465 11.0888 7.57043 10.8663 7.39408 10.6794C7.21772 10.4925 7.00333 10.3456 6.76537 10.2486L6.66835 10.2122L5.60833 9.85022C4.82185 9.58163 4.79805 8.49557 5.53647 8.17756L5.60833 8.14971L6.66835 7.78769C6.91145 7.70462 7.13391 7.57039 7.32072 7.39404C7.50753 7.21769 7.65435 7.00332 7.75128 6.76541L7.78766 6.66839L8.14968 5.60793Z" fill="white"/>
<path d="M17.9 11.8288L22.142 16.0708L12.242 25.9708H8V21.7278L17.9 11.8288ZM19.314 10.4138L21.435 8.29279C21.6225 8.10532 21.8768 8 22.142 8C22.4072 8 22.6615 8.10532 22.849 8.29279L25.678 11.1208C25.771 11.2137 25.8447 11.3239 25.8951 11.4453C25.9454 11.5667 25.9713 11.6969 25.9713 11.8283C25.9713 11.9597 25.9454 12.0898 25.8951 12.2112C25.8447 12.3326 25.771 12.4429 25.678 12.5358L23.556 14.6568L19.314 10.4138Z" fill="white"/>
</svg>
