<svg width="21" height="20" viewBox="0 0 21 20" fill="none" xmlns="http://www.w3.org/2000/svg">
<path d="M1.47803 0.404044C1.34807 0.366288 1.21031 0.364402 1.07936 0.398587C0.94841 0.432771 0.829151 0.501752 0.734225 0.598215C0.639299 0.694679 0.572244 0.815031 0.540168 0.946512C0.508092 1.07799 0.512191 1.2157 0.55203 1.34504L2.98403 9.25004H11.5C11.6989 9.25004 11.8897 9.32906 12.0304 9.46971C12.171 9.61037 12.25 9.80113 12.25 10C12.25 10.199 12.171 10.3897 12.0304 10.5304C11.8897 10.671 11.6989 10.75 11.5 10.75H2.98403L0.55203 18.655C0.512426 18.7843 0.508508 18.9219 0.540689 19.0532C0.57287 19.1846 0.639954 19.3047 0.734842 19.4011C0.82973 19.4974 0.948892 19.5663 1.07972 19.6004C1.21055 19.6346 1.34817 19.6327 1.47803 19.595C8.09313 17.6717 14.3312 14.6327 19.923 10.609C20.0197 10.5396 20.0984 10.4481 20.1527 10.3422C20.207 10.2363 20.2353 10.119 20.2353 10C20.2353 9.88104 20.207 9.76375 20.1527 9.65785C20.0984 9.55196 20.0197 9.4605 19.923 9.39104C14.3312 5.36705 8.0932 2.32769 1.47803 0.404044Z" fill="#333333"/>
</svg>
