<svg width="32" height="32" viewBox="0 0 32 32" fill="none" xmlns="http://www.w3.org/2000/svg">
<path d="M26 16C26 21.523 21.523 26 16 26C10.477 26 6 21.523 6 16C6 10.477 10.477 6 16 6V8C14.0845 8.00022 12.2327 8.6877 10.7812 9.93749C9.32958 11.1873 8.37462 12.9164 8.08983 14.8106C7.80504 16.7048 8.20934 18.6382 9.22923 20.2596C10.2491 21.881 11.8169 23.0826 13.6476 23.646C15.4783 24.2095 17.4505 24.0974 19.2055 23.3301C20.9606 22.5628 22.3821 21.1913 23.2117 19.4648C24.0413 17.7382 24.2239 15.7714 23.7262 13.9217C23.2286 12.072 22.0839 10.4622 20.5 9.385V12H18.5V6H24.5V8H22C23.2425 8.93093 24.251 10.1387 24.9453 11.5273C25.6397 12.916 26.0008 14.4474 26 16Z" fill="#65558F"/>
</svg>
