<svg width="880" height="300" viewBox="0 0 880 300" fill="none" xmlns="http://www.w3.org/2000/svg">
<rect x="0.5" y="0.5" width="879" height="299" rx="3.5" fill="white"/>
<rect x="0.5" y="0.5" width="879" height="299" rx="3.5" stroke="#EEEEEE"/>
<path d="M159 129.477C159.856 124.77 164.829 120.728 167.901 117.466C174.64 110.313 186.306 106.464 195.784 104.597C203.234 103.13 210.862 103.417 218.412 103.417C222.053 103.417 222.926 107.509 223.667 110.603C227.909 128.318 216.505 145.285 206.187 158.754C197.206 170.476 173.149 209.199 200.556 214.842C228.649 220.626 256.123 195.484 277.771 181.597C292.687 172.028 307.077 161.638 322.062 152.213C329.112 147.778 335.75 142.651 343.296 139.129C348.405 136.745 350.859 134.774 352.036 129.477C353.991 120.677 369.763 110.223 377.881 108.458C381.121 107.754 383.486 106.652 384.852 109.959C389.618 121.498 391.351 134.128 394.718 146.1C400.87 167.972 409.193 191.967 422.923 210.338C431.663 222.032 443.522 232.571 458.42 234.682C476.729 237.276 493.647 223.657 506.143 212.054C524.853 194.68 541.057 175.645 555.046 154.25C558.456 149.034 564.044 141.9 564.376 135.268C564.501 132.754 561.523 131.207 559.496 130.067C554.18 127.077 548.108 124.837 542.605 121.756C531.965 115.797 520.798 117.207 510.701 123.364C493.788 133.677 481.618 150.834 465.016 161.757C460.621 164.648 456.321 167.371 451.503 169.479C449.723 170.257 446.461 170.341 445.658 171.945" stroke="black" stroke-width="3" stroke-linecap="round"/>
<path d="M677.302 103.418C672.685 117.843 654.795 124.652 640.625 124.652C634.18 124.652 625.254 125.238 620.892 119.289C615.466 111.89 616.848 98.7891 617.568 90.3341C618.974 73.8057 647.309 53.3247 657.998 73.1753C662.497 81.531 664.018 96.8959 660.679 105.884C658.666 111.303 653.486 113.406 651.242 117.895" stroke="black" stroke-width="3" stroke-linecap="round"/>
<path d="M641.59 130.442C639.225 151.731 633.535 172.984 630.008 194.144" stroke="black" stroke-width="3" stroke-linecap="round"/>
<path d="M631.938 182.562C622.409 191.774 608.705 196.92 602.018 208.622" stroke="black" stroke-width="3" stroke-linecap="round"/>
<path d="M625.182 188.354C634.992 190.989 642.074 196.783 650.706 201.866C656.089 205.036 661.838 207.596 667.543 210.124C669.135 210.829 670.783 211.028 671.511 212.483" stroke="black" stroke-width="3" stroke-linecap="round"/>
<path d="M600.087 173.876C607.199 166.053 610.03 159.398 621.858 159.398C628.643 159.398 634.226 160.161 640.625 162.293" stroke="black" stroke-width="3" stroke-linecap="round"/>
<path d="M637.729 154.572C637.729 157.4 636.696 159.992 639.767 160.846C646.143 162.617 655.566 161.815 661.805 160.256C670.767 158.015 676.89 153.185 681.699 145.349C683.76 141.989 686.953 137.455 686.953 133.338" stroke="black" stroke-width="3" stroke-linecap="round"/>
<path d="M626.147 92.8008C626.147 95.2432 626.344 97.2513 627.112 99.557" stroke="black" stroke-width="3" stroke-linecap="round"/>
<path d="M647.381 85.0791C647.907 89.8087 649.576 96.081 651.242 100.522" stroke="black" stroke-width="3" stroke-linecap="round"/>
<path d="M630.008 117.895C630.008 112.835 637 105.931 640.41 103.203C642.063 101.881 658.002 111.146 658.963 113.07" stroke="black" stroke-width="3" stroke-linecap="round"/>
</svg>
