<svg width="360" height="240" viewBox="0 0 360 240" fill="none" xmlns="http://www.w3.org/2000/svg">
<path d="M297.18 223.826C271.693 227.201 245.434 225.795 191.781 222.263C161.653 220.28 101.077 223.566 70.8409 223.826C48.7972 224.016 30.9255 206.609 30.9255 185.371V120.59V52.9207C30.9255 31.6824 48.8345 13.216 70.8409 14.4653C91.2776 15.6254 121.337 20.2182 152.672 17.4061C189.941 14.0613 260.679 11.219 297.18 14.4653C319.132 16.4175 337.096 31.6824 337.096 52.9207V185.37C337.096 206.609 319.02 220.934 297.18 223.826Z" fill="#DAEBE8"/>
<path d="M144.42 124.612L144.005 124.597C144.008 124.534 144.196 118.1 141.558 108.828C139.123 100.272 133.714 87.4804 121.77 75.1252L122.068 74.8369C134.078 87.2603 139.515 100.127 141.962 108.732C144.615 118.063 144.422 124.547 144.42 124.612Z" fill="#ACC9C5"/>
<path d="M127.43 84.2013C123.223 84.4191 119.935 82.4776 119.897 82.4549L120.111 82.0996C120.153 82.1247 124.366 84.6066 129.297 83.5366L129.385 83.9419C128.718 84.0867 128.063 84.1686 127.43 84.2013Z" fill="#ACC9C5"/>
<path d="M121.374 72.8302C123.667 74.6933 123.911 75.7878 123.369 76.4544C122.828 77.1211 121.707 77.1072 119.413 75.2441C115.235 71.8502 114.196 69.0029 114.196 69.0029C114.196 69.0029 117.135 69.3868 121.374 72.8302Z" fill="#ACC9C5"/>
<path d="M120.939 81.0592C123.687 82.1441 124.249 83.1144 123.934 83.9133C123.619 84.7122 122.545 85.0371 119.797 83.9522C114.79 81.9759 112.941 79.5744 112.941 79.5744C112.941 79.5744 115.859 79.0542 120.939 81.0592Z" fill="#ACC9C5"/>
<path d="M131.324 77.3845C131.933 79.4891 131.446 80.3088 130.621 80.5478C129.796 80.7866 128.946 80.3542 128.337 78.2495C127.227 74.4155 128.184 72.1299 128.184 72.1299C128.184 72.1299 130.198 73.4945 131.324 77.3845Z" fill="#ACC9C5"/>
<path d="M184.233 204.989C252.991 204.989 308.731 197.259 308.731 187.724C308.731 178.188 252.991 170.458 184.233 170.458C115.474 170.458 59.7344 178.188 59.7344 187.724C59.7344 197.259 115.474 204.989 184.233 204.989Z" fill="#B8D5DC"/>
<g opacity="0.6">
<path d="M221.949 30.7259C221.949 30.7259 219.3 25.6309 212.596 26.2692C205.893 26.9076 206.691 32.0149 203.499 31.536C200.307 31.0572 195.838 31.536 194.881 34.728C193.923 37.92 189.614 36.1645 189.454 38.8777C189.294 41.591 194.402 43.5062 200.307 41.1122C206.212 38.7182 209.085 42.972 217.384 42.2017C225.684 41.4313 226.712 40.4737 231.624 40.9525C236.537 41.4313 236.42 38.0678 234.186 35.8333C231.951 33.5989 222.906 33.8117 221.949 30.7259Z" fill="white"/>
</g>
<g opacity="0.4">
<path d="M254.655 51.2383C254.655 51.2383 250.459 43.9706 242.783 45.1648C235.106 46.3589 242.612 49.6354 232.547 51.2383C222.482 52.8412 220.265 56.253 224.871 58.9825C229.477 61.712 236.982 54.0354 245.171 57.7884C253.359 61.5414 264.31 58.3354 254.655 51.2383Z" fill="white"/>
</g>
<g opacity="0.4">
<path d="M112.785 58.6217C112.785 58.6217 109.01 52.0842 102.105 53.1583C95.1996 54.2324 101.951 57.1797 92.8978 58.6217C83.8442 60.0636 81.8494 63.1326 85.9926 65.5878C90.1358 68.043 96.8876 61.1378 104.253 64.5137C111.619 67.8896 121.469 65.0057 112.785 58.6217Z" fill="white"/>
</g>
<path d="M160.424 144.213C160.424 144.213 145.02 84.5043 128.975 89.2929C112.93 94.0816 148.162 127.016 152.096 144.54L160.424 144.213Z" fill="#B6D3CE"/>
<path d="M157.796 146.953C157.796 146.953 129.969 95.4672 113.536 103.634C97.1034 111.801 141.33 133.953 148.862 149.2L157.796 146.953Z" fill="#92BCB5"/>
<path d="M152.81 148.255C147.799 137.63 138.744 127.898 132.031 121.606C124.752 114.784 118.585 110.424 118.523 110.381L118.793 109.997C118.855 110.041 125.049 114.419 132.352 121.263C139.095 127.584 148.192 137.363 153.234 148.054L152.81 148.255Z" fill="#68A1BF"/>
<path d="M110.532 168.613C121.913 170.825 120.393 188.014 133.235 184.559C146.078 181.098 144.991 180.294 151.319 185.771C151.319 185.771 153.851 191.139 159.005 191.932C179.338 195.058 206.404 164.513 184.92 148.45C183.368 147.29 181.137 146.878 178.669 146.545C165.283 144.745 161.256 150.957 150.414 135.457C139.567 119.952 125.779 142.801 116.815 142.197C107.851 141.593 99.9091 139.076 93.1379 148.704C86.3661 158.34 99.1507 166.408 110.532 168.613Z" fill="#CCD39C"/>
<path d="M178.926 170.383L179.338 169.742C179.056 169.56 150.368 151.557 91.5889 151.431L91.5872 152.193C150.146 152.319 178.645 170.203 178.926 170.383Z" fill="#C2C68E"/>
<path d="M141.892 148.472C149.493 141.333 150.739 135.767 150.788 135.534L150.042 135.376C150.031 135.431 148.776 140.96 141.369 147.916L141.892 148.472Z" fill="#C2C68E"/>
<path d="M140.724 156.725C142.819 152.842 142.496 147.317 139.789 140.748C137.761 135.828 135.082 131.993 135.055 131.955L134.431 132.393C134.536 132.543 144.871 147.434 140.053 156.364L140.724 156.725Z" fill="#C2C68E"/>
<path d="M125.234 155.728C126.14 154.937 126.628 154.425 126.65 154.401L126.093 153.88C125.991 153.989 115.706 164.765 100.186 164.627L100.179 165.389C112.685 165.5 121.859 158.677 125.234 155.728Z" fill="#C2C68E"/>
<path d="M117.99 173.519C121.445 169.494 122.371 165.527 122.54 162.907C122.723 160.055 122.088 158.175 122.061 158.097L121.34 158.345C121.365 158.417 123.738 165.654 117.411 173.022L117.99 173.519Z" fill="#C2C68E"/>
<path d="M88.5372 186.22C88.5372 186.22 83.0531 180.629 84.9401 177.444C86.8271 174.26 90.0114 184.285 90.0114 184.285C90.0114 184.285 88.3602 172.431 91.7805 172.225C95.2006 172.019 91.7805 184.285 91.7805 184.285C91.7805 184.285 93.0483 181.425 94.2866 181.248C95.525 181.071 95.1711 183.673 92.9599 186.22H88.5372Z" fill="#B8D5DC"/>
<path d="M88.9299 186.36C88.9143 186.344 87.345 184.736 86.0609 182.704C84.3086 179.932 83.8913 177.732 84.8204 176.164C85.1673 175.578 85.5843 175.308 86.0584 175.363C87.0044 175.471 88.1155 176.965 89.3607 179.803C89.7423 180.672 90.08 181.541 90.3438 182.259C90.2476 181.259 90.1453 179.936 90.1077 178.544C90.0021 174.628 90.4351 172.048 91.3947 170.876C91.7657 170.423 92.2182 170.177 92.7397 170.146C93.2477 170.115 93.6652 170.298 93.9801 170.687C95.516 172.588 94.1276 179.306 93.3648 182.449C93.9338 181.527 94.7412 180.499 95.566 180.382C95.9555 180.326 96.267 180.471 96.4415 180.792C96.9394 181.705 96.2523 184.035 94.2411 186.351L93.9381 186.088C95.9155 183.811 96.458 181.66 96.0892 180.984C95.9956 180.812 95.8475 180.747 95.6229 180.779C94.5618 180.93 93.3231 183.232 92.9353 184.106L92.5586 183.971C92.5662 183.944 93.3158 181.242 93.8187 178.284C94.4765 174.415 94.4243 171.876 93.668 170.939C93.4362 170.652 93.1406 170.525 92.7639 170.547C92.353 170.571 92.0067 170.762 91.7054 171.13C89.5484 173.764 90.9299 183.895 90.9441 183.997L90.5541 184.085C89.8385 181.833 87.6275 175.947 86.013 175.762C85.7056 175.728 85.4284 175.925 85.1658 176.368C83.1287 179.806 89.1553 186.017 89.2165 186.079L88.9299 186.36Z" fill="#444092"/>
<path d="M150.943 200.989C150.943 200.989 145.459 195.398 147.346 192.214C149.233 189.03 152.417 199.054 152.417 199.054C152.417 199.054 150.766 187.201 154.186 186.995C157.607 186.789 154.186 199.054 154.186 199.054C154.186 199.054 155.454 196.194 156.693 196.017C157.931 195.841 157.577 198.443 155.366 200.989H150.943Z" fill="#B8D5DC"/>
<path d="M151.336 201.13C151.32 201.114 149.751 199.505 148.467 197.474C146.715 194.702 146.297 192.501 147.226 190.933C147.573 190.348 147.99 190.08 148.464 190.133C149.41 190.241 150.521 191.735 151.767 194.573C152.148 195.442 152.486 196.311 152.75 197.028C152.653 196.028 152.551 194.706 152.514 193.314C152.408 189.397 152.841 186.817 153.801 185.646C154.172 185.193 154.624 184.947 155.146 184.916C155.654 184.884 156.071 185.067 156.386 185.457C157.922 187.358 156.534 194.075 155.771 197.218C156.34 196.296 157.147 195.269 157.972 195.151C158.361 195.096 158.673 195.241 158.847 195.561C159.345 196.475 158.658 198.804 156.647 201.121L156.344 200.857C158.321 198.58 158.864 196.43 158.495 195.753C158.402 195.581 158.253 195.516 158.029 195.548C156.967 195.7 155.729 198.002 155.341 198.876L154.965 198.74C154.972 198.713 155.722 196.011 156.225 193.053C156.883 189.185 156.83 186.645 156.074 185.709C155.842 185.422 155.546 185.294 155.17 185.316C154.759 185.341 154.413 185.532 154.111 185.9C151.954 188.534 153.336 198.665 153.35 198.767L152.96 198.855C152.245 196.602 150.034 190.716 148.419 190.532C148.111 190.496 147.835 190.695 147.572 191.138C145.535 194.576 151.561 200.786 151.622 200.849L151.336 201.13Z" fill="#444092"/>
<path d="M284.294 185.678C284.294 185.678 279.025 180.306 280.838 177.246C282.651 174.186 285.711 183.819 285.711 183.819C285.711 183.819 284.124 172.429 287.411 172.231C290.697 172.033 287.411 183.819 287.411 183.819C287.411 183.819 288.629 181.071 289.819 180.901C291.009 180.731 290.669 183.231 288.544 185.678H284.294Z" fill="#B8D5DC"/>
<path d="M284.672 185.813C284.657 185.797 283.149 184.252 281.915 182.3C280.231 179.637 279.83 177.523 280.723 176.016C281.056 175.454 281.455 175.194 281.913 175.247C282.822 175.351 283.889 176.786 285.086 179.513C285.452 180.348 285.777 181.183 286.03 181.872C285.938 180.911 285.84 179.641 285.804 178.303C285.702 174.54 286.118 172.061 287.04 170.935C287.397 170.5 287.831 170.264 288.332 170.234C288.82 170.204 289.222 170.379 289.524 170.754C291 172.58 289.666 179.035 288.933 182.055C289.48 181.169 290.256 180.182 291.048 180.069C291.423 180.015 291.722 180.155 291.889 180.463C292.368 181.341 291.708 183.579 289.775 185.804L289.484 185.551C291.384 183.363 291.905 181.297 291.551 180.647C291.461 180.482 291.319 180.42 291.103 180.45C290.082 180.596 288.893 182.807 288.52 183.647L288.158 183.517C288.166 183.492 288.886 180.895 289.369 178.053C290.001 174.336 289.951 171.896 289.224 170.996C289.001 170.72 288.717 170.597 288.356 170.619C287.961 170.642 287.628 170.826 287.339 171.179C285.266 173.71 286.593 183.445 286.607 183.543L286.232 183.628C285.545 181.463 283.42 175.807 281.869 175.63C281.574 175.596 281.308 175.787 281.055 176.212C279.098 179.516 284.888 185.483 284.947 185.543L284.672 185.813Z" fill="#444092"/>
<g opacity="0.6">
<path d="M203.871 144.561C203.871 144.561 228.892 83.019 245.337 90.4357C261.781 97.8525 219.433 127.959 212.717 146.105L203.871 144.561Z" fill="#ACC9C5"/>
</g>
<path d="M184.507 153.579C184.507 153.579 249.164 86.1278 270.995 105.664C292.826 125.2 215.363 140.549 197.305 160.825L184.507 153.579Z" fill="#CCD39C"/>
<path d="M191.63 157.695C203.847 143.465 221.909 132.325 234.91 125.485C249.005 118.07 260.346 113.974 260.459 113.934L260.206 113.229C260.093 113.269 248.702 117.382 234.561 124.822C221.502 131.692 203.355 142.887 191.062 157.207L191.63 157.695Z" fill="#C2C68E"/>
<path d="M252.323 162.752C243.079 165.223 245.311 179.288 234.54 177.177C225.43 175.386 224.633 174.592 221.641 177.336C220.615 178.276 219.745 179.371 219.023 180.56C218.157 181.986 216.455 184.106 213.744 184.718C197.181 188.452 173.153 164.848 189.925 150.396C191.136 149.353 192.95 148.886 194.963 148.471C205.881 146.225 209.552 151.11 217.594 137.729C225.64 124.345 238.296 142.37 245.642 141.361C252.988 140.352 259.383 137.827 265.508 145.368C271.634 152.915 261.568 160.288 252.323 162.752Z" fill="#ACC9C5"/>
<g opacity="0.5">
<path d="M196.112 168.112L195.736 167.608C195.958 167.442 218.551 150.982 266.939 147.523L266.984 148.151C218.777 151.597 196.333 167.947 196.112 168.112Z" fill="#68A1BF"/>
<path d="M225.354 147.958C218.688 142.514 217.345 138.003 217.291 137.813L217.896 137.641C217.909 137.685 219.257 142.166 225.753 147.47L225.354 147.958Z" fill="#68A1BF"/>
<path d="M226.786 154.687C224.839 151.609 224.79 147.042 226.645 141.478C228.033 137.312 230.02 134.002 230.04 133.969L230.579 134.294C230.501 134.423 222.842 147.274 227.318 154.351L226.786 154.687Z" fill="#68A1BF"/>
<path d="M239.483 152.982C238.692 152.382 238.261 151.988 238.242 151.97L238.67 151.509C238.76 151.593 247.843 159.878 260.614 158.879L260.663 159.506C250.373 160.311 242.43 155.217 239.483 152.982Z" fill="#68A1BF"/>
<path d="M246.463 167.216C243.388 164.1 242.399 160.886 242.111 158.739C241.797 156.401 242.213 154.817 242.23 154.751L242.838 154.914C242.822 154.975 241.281 161.069 246.911 166.774L246.463 167.216Z" fill="#68A1BF"/>
</g>
<path d="M220.93 86.7627C221.427 83.7711 222.819 83.088 224.353 83.3429C225.888 83.5977 226.984 84.6943 226.487 87.686C225.582 93.1357 222.366 95.3079 222.366 95.3079C222.366 95.3079 220.011 92.2917 220.93 86.7627Z" fill="#ACC9C5"/>
<path d="M253.941 88.3075C255.008 86.157 256.22 85.9609 257.323 86.5082C258.426 87.0555 259.003 88.1388 257.936 90.2893C255.992 94.2068 253.056 95.1091 253.056 95.1091C253.056 95.1091 251.969 92.2819 253.941 88.3075Z" fill="#ACC9C5"/>
<path d="M260.066 93.8175C262.341 93.0525 263.336 93.7712 263.729 94.9384C264.121 96.1056 263.762 97.2794 261.487 98.0444C257.342 99.4378 254.628 97.9979 254.628 97.9979C254.628 97.9979 255.861 95.2313 260.066 93.8175Z" fill="#ACC9C5"/>
<path d="M167.254 40.8517L169.675 49.7661L192.55 134.004L199.747 132.229L179.471 37.8945L167.254 40.8517Z" fill="#EF8062"/>
<path d="M169.675 49.7656L182.239 50.771L182.994 54.286L171.105 55.034L169.675 49.7656Z" fill="#DB634A"/>
<path d="M172.608 60.5664L184.53 61.4333L185.972 68.1405H174.664L172.608 60.5664Z" fill="#DB634A"/>
<path d="M176.502 74.9082L187.948 77.3351L189.487 84.4958L178.786 83.3182L176.502 74.9082Z" fill="#DB634A"/>
<path d="M180.411 89.3008H190.52L191.874 95.5999H182.121L180.411 89.3008Z" fill="#DB634A"/>
<path d="M183.758 101.628L193.368 102.551L195.372 111.875H186.142L183.758 101.628Z" fill="#DB634A"/>
<path d="M148.759 110.48L159.276 187.704C159.958 192.709 164.233 196.441 169.284 196.441H199.298C204.326 196.441 208.589 192.743 209.298 187.765L220.626 108.257L148.759 110.48Z" fill="#764678"/>
<path d="M156.069 134.142L162.713 182.924C163.303 187.252 166.999 190.48 171.368 190.48H197.323C201.671 190.48 205.357 187.282 205.97 182.977L214.456 125.597C214.696 123.971 212.144 122.85 210 122.924C200.177 123.263 199.893 126.97 193.883 126.103C185.934 124.956 180.329 119.843 166.381 122.998C155.624 125.431 156.069 134.142 156.069 134.142Z" fill="#EF8062"/>
<path d="M145.233 105.294L144.664 111.324C144.505 113.011 145.867 114.452 147.56 114.388L220.243 111.636C221.97 111.57 223.227 109.972 222.884 108.279L222.22 105.001C221.955 103.694 220.806 102.755 219.473 102.755H148.023C146.578 102.755 145.369 103.855 145.233 105.294Z" fill="#68A1BF"/>
<g opacity="0.6">
<path d="M218.872 102.755H148.759C148.759 102.755 146.276 80.663 172.377 74.3289C173.154 74.1402 173.962 74.4347 174.459 75.0624C175.799 76.7592 178.102 77.8873 180.71 77.7179C183.973 77.5072 186.094 76.4897 187.219 74.9318C187.969 73.8926 189.226 73.3407 190.487 73.5732C208.82 76.9533 218.21 93.1863 218.872 102.755Z" fill="#ACC9C5"/>
</g>
<path d="M240.686 157.348C237.971 159.739 236.24 162.215 228.178 164.886C221.056 167.246 217.678 173.837 221.229 180.987C224.624 187.824 236.47 194.213 242.032 194.233C248.997 194.259 256.33 186.586 257.893 184.118C261.241 178.831 262.831 169.412 255.598 158.953C251.411 152.899 244.57 153.926 240.686 157.348Z" fill="#FD8772"/>
<path d="M231.501 169.489C230.274 169.489 229.463 169.302 229.41 169.289C229.249 169.251 229.149 169.089 229.188 168.928C229.226 168.767 229.388 168.667 229.549 168.706C229.581 168.713 231.577 169.167 234.025 168.607C237.301 167.857 239.796 165.738 241.441 162.309C241.513 162.16 241.692 162.097 241.842 162.168C241.991 162.24 242.054 162.419 241.982 162.568C239.824 167.067 236.522 168.656 234.132 169.197C233.152 169.42 232.249 169.489 231.501 169.489Z" fill="#331832"/>
<path d="M236.06 168.432C235.806 168.432 235.563 168.289 235.448 168.044C233.563 164.03 233.54 159.4 235.383 154.655C236.762 151.103 238.674 148.76 238.755 148.662C238.992 148.374 239.417 148.333 239.706 148.57C239.993 148.807 240.035 149.233 239.798 149.521C239.779 149.543 237.925 151.822 236.628 155.182C234.913 159.622 234.927 163.757 236.671 167.469C236.83 167.807 236.685 168.209 236.347 168.368C236.254 168.412 236.156 168.432 236.06 168.432Z" fill="#331832"/>
<path d="M232.927 154.356C232.927 154.356 235.759 151.163 232.927 148.054C230.094 144.945 228.71 147.113 225.974 145.196C223.239 143.279 220.274 143.324 220.27 144.569C220.265 145.814 220.66 147.895 221.42 151.26C222.179 154.626 226.942 160.271 232.927 154.356Z" fill="#68A1BF"/>
<path d="M235.13 158.062C235.021 158.062 234.916 158.002 234.863 157.898C232.227 152.733 224.035 148.005 223.953 147.958C223.809 147.876 223.759 147.692 223.841 147.549C223.924 147.405 224.107 147.355 224.251 147.437C224.272 147.449 226.376 148.658 228.783 150.501C232.028 152.987 234.253 155.384 235.397 157.625C235.472 157.773 235.414 157.953 235.266 158.029C235.222 158.051 235.176 158.062 235.13 158.062Z" fill="#331832"/>
<path d="M257.936 114.115C257.936 114.115 257.728 116.476 260.764 117.045C263.8 117.614 263.193 119.322 262.586 120.233C261.979 121.144 266.04 119.36 269.797 122.738C273.554 126.115 267.975 129.417 264.939 129C261.903 128.582 250.389 126.039 249.827 125.167C249.265 124.294 248.49 121.901 250.024 121.575C252.77 120.992 249.416 118.86 251.2 117.896C252.985 116.931 257.936 114.115 257.936 114.115Z" fill="#331832"/>
<path d="M239.629 125.873C237.404 124.212 235.679 121.606 234.495 118.117C233.601 115.482 233.351 113.263 233.341 113.17L238.499 112.486L235.92 112.828L238.498 112.48C238.715 114.386 239.95 119.779 243.032 121.833C244.432 122.766 247.059 123.904 249.126 123.31L249.827 128.353C246.309 129.363 242.729 127.965 240.084 126.195C239.93 126.092 239.778 125.985 239.629 125.873Z" fill="#F4A575"/>
<path d="M233.542 111.278C233.248 111.322 232.972 111.118 232.927 110.824L232.313 106.736C232.269 106.442 232.474 106.165 232.767 106.121C233.061 106.077 233.338 106.281 233.382 106.575L233.996 110.663C234.04 110.957 233.836 111.234 233.542 111.278Z" fill="#F4A575"/>
<path d="M234.902 111.07C234.608 111.114 234.331 110.91 234.286 110.615L233.6 106.045C233.556 105.751 233.76 105.474 234.055 105.43C234.349 105.386 234.626 105.59 234.67 105.885L235.357 110.454C235.401 110.749 235.197 111.026 234.902 111.07Z" fill="#F4A575"/>
<path d="M236.273 110.864C235.978 110.908 235.701 110.703 235.657 110.409L234.889 105.298C234.845 105.004 235.05 104.727 235.344 104.683C235.639 104.639 235.916 104.843 235.96 105.138L236.728 110.248C236.772 110.542 236.567 110.82 236.273 110.864Z" fill="#F4A575"/>
<path d="M236.991 113.44L236.923 113.4C236.584 113.205 236.467 112.768 236.662 112.429L238.357 109.489C238.552 109.15 238.989 109.033 239.328 109.228L239.396 109.268C239.735 109.463 239.853 109.9 239.657 110.239L237.963 113.178C237.767 113.518 237.33 113.635 236.991 113.44Z" fill="#F4A575"/>
<path d="M237.643 110.657C237.348 110.702 237.071 110.497 237.027 110.203L236.412 106.106C236.368 105.812 236.572 105.535 236.867 105.49C237.161 105.446 237.438 105.651 237.482 105.945L238.098 110.042C238.142 110.336 237.937 110.613 237.643 110.657Z" fill="#F4A575"/>
<path d="M233.33 113.171C233.33 113.171 232.557 109.938 232.91 109.264C233.263 108.59 237.131 108.028 237.614 108.73C238.098 109.432 238.498 112.481 238.498 112.481L233.33 113.171Z" fill="#F4A575"/>
<path d="M235.845 113.142C235.81 113.142 235.778 113.118 235.77 113.082C235.768 113.073 235.59 112.225 236.295 111.803C236.941 111.415 237.576 110.618 237.583 110.61C237.609 110.577 237.658 110.571 237.69 110.597C237.724 110.624 237.729 110.672 237.703 110.705C237.676 110.739 237.044 111.532 236.374 111.934C235.765 112.299 235.913 113.019 235.92 113.049C235.929 113.09 235.903 113.131 235.861 113.14C235.856 113.141 235.85 113.142 235.845 113.142Z" fill="#EC865C"/>
<path d="M284.692 163.51C284.692 163.51 288.672 162.87 289.872 163.293C291.073 163.716 293.897 165.667 293.7 163.986C293.586 163.022 290.755 161.026 290.033 160.376C289.312 159.726 288.915 158.718 287.947 158.801C287.488 158.84 286.947 159.706 286.186 160.112C284.888 160.803 283.345 161.171 283.345 161.171C283.345 161.171 282.155 162.565 282.702 163.084C283.489 163.832 284.692 163.51 284.692 163.51Z" fill="#331832"/>
<path d="M257.11 186.089C257.11 186.089 258.261 193.422 256.98 194.046C255.7 194.67 251.289 195.62 252.783 196.784C253.64 197.452 257.456 196.765 258.541 196.702C259.626 196.638 260.742 197.114 261.436 196.278C261.766 195.881 261.046 194.42 260.932 193.461C260.581 190.496 260.88 187.623 260.88 187.623C260.88 187.623 259.851 184.319 259.008 184.347C257.793 184.386 257.11 186.089 257.11 186.089Z" fill="#331832"/>
<path d="M248.619 151.737C248.92 155.063 249.434 159.369 250.309 164.624C251.983 174.688 253.96 184.83 254.93 189.692C255.277 191.432 256.74 192.703 258.473 192.773L259.405 192.81C261.279 192.885 262.8 191.275 262.664 189.361L260.31 156.466L259.995 150.576C259.995 150.576 248.122 146.237 248.619 151.737Z" fill="#68A1BF"/>
<path d="M269.668 148.373C269.565 149.759 264.827 151.931 258.674 151.435C252.522 150.938 247.659 150.15 247.762 148.764C247.865 147.378 252.896 145.92 259.048 146.417C265.2 146.913 269.771 146.988 269.668 148.373Z" fill="#331832"/>
<path d="M253.055 149.605L261.605 168.141C262.935 171.023 266.014 172.673 269.15 172.184C270.907 171.91 272.083 170.231 271.742 168.487L268.011 149.425C267.907 148.956 266.255 148.74 265.786 148.701C261.894 148.377 252.814 147.869 253.055 149.605Z" fill="#68A1BF"/>
<path d="M262.265 125.965C262.265 125.965 259.459 121.594 253.475 123.22C250.648 123.988 247.146 123.885 246.902 129.234C246.683 134.037 246.259 139.636 247.762 148.764C247.762 148.764 257.433 144.991 269.668 148.373C269.628 147.848 269.029 134.299 266.149 126.99C265.321 124.889 263.204 127.355 262.265 125.965Z" fill="#EF8062"/>
<path d="M269.112 125.648L263.92 130.575C263.92 130.575 248.156 132.423 246.82 129.687C244.614 125.17 246.795 122.315 246.795 122.315C246.795 122.315 251.675 122.86 255.717 122.72C256.639 122.688 258.362 122.739 259.268 122.776C265.585 123.033 269.112 125.648 269.112 125.648Z" fill="#EF8062"/>
<path d="M269.112 125.649C269.567 126.156 269.462 127.852 267.695 129.341C265.929 130.829 264.48 131.326 263.92 130.575C263.499 130.01 264.013 127.759 265.702 126.376C267.442 124.952 268.788 125.286 269.112 125.649Z" fill="#331832"/>
<path d="M265.557 148.682C265.557 148.682 257.206 147.299 249.041 149.1C248.666 149.183 248.41 149.531 248.447 149.913L248.736 152.961L257.281 150.834L265.557 148.682Z" fill="#68A1BF"/>
<path d="M258.113 122.737C257.292 124.057 255.002 125.171 253.588 124.721C252.383 124.338 253.217 122.731 253.217 122.731C253.761 122.633 254.016 122.311 253.977 121.76L253.928 121.084L253.903 120.748L253.827 119.676L253.757 118.714L253.473 114.766L255.113 118.576L255.392 119.223L256.353 121.457C256.66 122.168 257.33 122.653 258.102 122.736C258.105 122.736 258.11 122.737 258.113 122.737Z" fill="#FFB27D"/>
<path d="M255.392 119.224C255.392 119.224 254.915 120.477 253.903 120.749L253.827 119.677C254.449 119.45 255.392 119.224 255.392 119.224Z" fill="#331832"/>
<path d="M257.935 114.115C257.935 114.115 257.783 114.763 258.155 116.091C258.7 118.035 256.479 118.846 255.911 118.291C255.841 118.223 255.934 114.917 255.934 114.917L256.644 114.496L257.935 114.115Z" fill="#331832"/>
<path d="M253.293 119.974C255.342 119.974 257.003 117.925 257.003 115.397C257.003 112.87 255.342 110.82 253.293 110.82C251.244 110.82 249.583 112.87 249.583 115.397C249.583 117.925 251.244 119.974 253.293 119.974Z" fill="#FFB27D"/>
<path d="M251.824 111.884C251.927 112.025 251.343 114.379 255.705 114.942C260.067 115.504 257.447 110.211 254.228 110.092C249.581 109.919 248.904 113.044 249.351 114.168C249.797 115.293 251.824 111.884 251.824 111.884Z" fill="#331832"/>
<path d="M255.224 114.191C255.224 114.191 257.007 116.071 256.389 117.992C256.389 117.992 257.423 116.862 257.446 116.441C257.469 116.019 257.194 114.496 257.194 114.496L255.224 114.191Z" fill="#331832"/>
<path d="M256.507 116.088C256.087 116.489 255.499 116.53 255.195 116.18C254.89 115.829 254.984 115.22 255.404 114.818C255.824 114.417 256.412 114.376 256.717 114.727C257.021 115.077 256.927 115.687 256.507 116.088Z" fill="#FFB27D"/>
<path d="M262.734 119.899L262.628 119.689C262.763 119.597 263.105 118.577 262.848 117.735C262.62 116.988 262.011 116.608 261.039 116.606C258.157 116.599 257.691 114.236 257.687 114.213L257.918 114.17C257.935 114.26 258.358 116.364 261.04 116.371C262.472 116.374 262.956 117.152 263.11 117.804C263.322 118.702 262.983 119.774 262.734 119.899Z" fill="#331832"/>
<path d="M268.187 172.268C271.695 172.18 280.016 168.772 284.636 166.762C286.432 165.981 287.259 163.896 286.487 162.096L286.39 161.869C285.749 160.373 284.186 159.49 282.574 159.712L266.672 161.9C266.672 161.9 261.656 172.433 268.187 172.268Z" fill="#68A1BF"/>
<path d="M260.785 166.626C260.76 166.556 258.184 159.605 257.37 157.423C256.568 155.273 254.071 153.546 254.046 153.529L254.17 153.348C254.275 153.419 256.75 155.132 257.576 157.346C258.39 159.529 260.966 166.479 260.992 166.549L260.785 166.626Z" fill="#020202"/>
<path d="M251.384 118.15C251.384 118.15 251.729 118.927 252.459 118.93C253.357 118.933 253.534 117.995 253.534 117.995C253.534 117.995 252.437 118.363 251.384 118.15Z" fill="white"/>
<path d="M274.286 133.865C277.045 133.557 279.851 132.182 282.637 129.77C284.741 127.949 286.079 126.161 286.135 126.086L282.031 122.887L284.083 124.487L282.034 122.883C280.884 124.417 277.09 128.445 273.393 128.658C271.805 128.749 270.344 128.119 268.936 126.734C268.726 126.527 268.432 126.431 268.141 126.472C267.576 126.552 266.597 126.92 265.281 128.277C264.362 129.225 265.015 130.151 265.015 130.151C267.54 132.801 270.553 134.102 273.73 133.912C273.915 133.901 274.1 133.885 274.286 133.865Z" fill="#F4A575"/>
<path d="M286.918 124.353C287.149 124.539 287.491 124.503 287.678 124.272L290.275 121.056C290.462 120.825 290.425 120.483 290.194 120.296C289.963 120.109 289.621 120.146 289.434 120.377L286.837 123.593C286.65 123.824 286.687 124.166 286.918 124.353Z" fill="#F4A575"/>
<path d="M285.85 123.484C286.082 123.671 286.424 123.635 286.611 123.403L289.515 119.809C289.702 119.577 289.665 119.234 289.434 119.047C289.202 118.86 288.859 118.897 288.672 119.128L285.769 122.723C285.582 122.955 285.618 123.297 285.85 123.484Z" fill="#F4A575"/>
<path d="M284.772 122.614C285.004 122.801 285.346 122.765 285.533 122.533L288.78 118.513C288.967 118.281 288.931 117.938 288.699 117.751C288.468 117.564 288.125 117.601 287.938 117.832L284.691 121.853C284.504 122.084 284.54 122.427 284.772 122.614Z" fill="#F4A575"/>
<path d="M282.849 124.473L282.928 124.473C283.319 124.476 283.642 124.158 283.644 123.767L283.669 120.374C283.672 119.983 283.354 119.661 282.963 119.658L282.884 119.657C282.493 119.654 282.17 119.972 282.167 120.363L282.143 123.756C282.14 124.147 282.458 124.47 282.849 124.473Z" fill="#F4A575"/>
<path d="M283.694 121.743C283.926 121.93 284.268 121.894 284.455 121.662L287.058 118.439C287.245 118.208 287.209 117.865 286.977 117.678C286.745 117.491 286.403 117.528 286.216 117.759L283.613 120.982C283.426 121.214 283.462 121.556 283.694 121.743Z" fill="#F4A575"/>
<path d="M286.143 126.093C286.143 126.093 288.446 123.695 288.482 122.935C288.517 122.175 285.466 119.734 284.694 120.095C283.922 120.456 282.034 122.884 282.034 122.884L286.143 126.093Z" fill="#F4A575"/>
<path d="M284.027 124.807C284.009 124.807 283.99 124.8 283.975 124.786C283.944 124.758 283.942 124.709 283.971 124.678C283.992 124.655 284.484 124.11 284.143 123.487C283.768 122.801 283.624 121.797 283.618 121.755C283.612 121.713 283.642 121.674 283.683 121.668C283.726 121.661 283.764 121.691 283.77 121.733C283.771 121.743 283.916 122.753 284.278 123.413C284.672 124.134 284.089 124.776 284.083 124.783C284.068 124.798 284.048 124.807 284.027 124.807Z" fill="#EC865C"/>
<path d="M107.203 182.689L143.264 160.395C144.815 159.436 146.846 160.056 147.617 161.709C152.581 172.342 150.715 188.393 135.607 195.151C125.335 199.746 113.683 195.716 106.475 187.222C105.278 185.811 105.63 183.662 107.203 182.689Z" fill="#EF8062"/>
<path d="M127.132 177.582L129.921 192.826C130.173 194.099 131.429 194.597 132.519 194.331C135.746 193.543 139.129 191.685 141.11 189.488C141.871 188.642 142.076 187.362 141.053 186.518L129.597 176.478C128.337 175.438 126.818 175.997 127.132 177.582Z" fill="#FC927F"/>
<path d="M130.181 175.555L141.864 185.245C142.893 186 144.247 185.584 144.971 184.725C147.118 182.183 147.78 179.865 147.992 177.082C148.074 176.011 148.34 173.889 146.955 173.915L131.261 172.978C129.554 173.009 128.901 174.616 130.181 175.555Z" fill="#FC927F"/>
<path d="M124.056 178.257L119.435 191.508C119.022 192.692 120.018 193.618 120.791 193.933C123.08 194.866 125.476 195.092 127.641 194.238C128.474 193.909 129.165 192.944 128.923 191.739L126.233 178.289C125.936 176.804 124.57 176.783 124.056 178.257Z" fill="#FC927F"/>
<path d="M121.579 176.18L108.919 183.713C107.788 184.386 107.527 185.758 108.078 186.633C108.843 187.851 112.455 190.59 114.926 191.659C115.877 192.071 117.605 192.025 118.17 190.789L123.489 178.021C124.185 176.498 122.987 175.342 121.579 176.18Z" fill="#FC927F"/>
<path d="M131.099 171.852L145.759 172.916C147.069 173.011 147.988 172.026 148.118 170.998C148.501 167.954 147.914 164.505 146.506 162.209C145.965 161.326 144.81 160.826 143.64 161.518L130.593 169.244C129.151 170.097 129.469 171.734 131.099 171.852Z" fill="#FC927F"/>
<path d="M203.413 173.676C202.43 173.101 199.666 172.511 197.501 171.942C196.947 171.794 197.061 171.169 196.56 171.048C195.862 170.763 195.159 169.836 194.186 169.546C193.438 168.548 194.089 167.292 194.766 165.305C195.415 163.399 195.323 160.927 196.687 160.096C197.617 160.347 198.21 160.108 198.933 160.262C199.654 160.576 200.147 159.343 200.945 159.591C203.781 160.478 207.02 161.393 207.02 161.393C208.671 161.709 206.176 165.669 205.356 168.034C204.536 170.4 204.996 174.599 203.413 173.676Z" fill="#B6D3CE"/>
<path d="M197.887 171.81C197.707 171.98 197.472 171.999 197.155 171.814C196.932 171.684 196.637 171.547 196.29 171.405C195.591 171.12 194.681 170.819 193.708 170.529C191.727 169.94 189.487 169.397 188.274 169.141C186.168 168.698 187.676 165.883 188.508 163.445C189.339 161.007 188.548 155.161 191.778 156.878C193.097 157.579 194.838 158.15 196.437 158.581C197.368 158.832 198.252 159.036 198.974 159.189C200.044 159.415 200.762 159.533 200.762 159.533C201.061 159.59 201.225 159.767 201.287 160.034C201.562 161.232 199.769 164.237 199.098 166.174C198.442 168.067 198.606 171.133 197.887 171.81Z" fill="#DAEBE8"/>
<path d="M196.795 159.285C196.795 159.285 193.368 158.577 192.147 157.817C190.926 157.058 190.273 158.054 190.1 159.145C189.928 160.236 190.942 160.212 191.428 159.578C191.915 158.944 198.194 160.744 196.795 159.285Z" fill="#B6D3CE"/>
<path d="M173.144 143.743L200.29 174.575C201.457 175.901 201.194 177.942 199.741 178.947C190.387 185.414 174.752 186.234 165.846 172.898C159.791 163.83 161.75 152.045 168.696 143.782C169.849 142.41 171.96 142.397 173.144 143.743Z" fill="#C2C68E"/>
<path d="M181.254 161.952L167.144 167.088C165.969 167.535 165.697 168.816 166.128 169.814C167.404 172.769 169.727 175.7 172.148 177.235C173.079 177.826 174.335 177.813 174.975 176.7L182.709 164.128C183.497 162.755 182.717 161.395 181.254 161.952Z" fill="#CCD39C"/>
<path d="M183.685 164.535L176.323 177.268C175.769 178.373 176.386 179.599 177.323 180.152C180.1 181.79 182.422 182.047 185.115 181.799C186.151 181.703 188.221 181.612 187.972 180.294L186.322 165.15C186.015 163.524 184.374 163.16 183.685 164.535Z" fill="#CCD39C"/>
<path d="M180.111 159.123L166.703 156.857C165.505 156.655 164.782 157.756 164.606 158.546C164.086 160.884 164.259 163.21 165.426 165.139C165.875 165.881 166.909 166.385 168.021 165.959L180.433 161.208C181.804 160.683 181.602 159.375 180.111 159.123Z" fill="#CCD39C"/>
<path d="M181.693 156.42L172.444 145.548C171.617 144.577 170.265 144.55 169.518 145.217C168.479 146.146 166.448 150.04 165.827 152.575C165.588 153.549 165.913 155.193 167.185 155.532L180.244 158.543C181.812 158.961 182.722 157.629 181.693 156.42Z" fill="#CCD39C"/>
<path d="M187.372 164.812L188.733 178.989C188.854 180.255 189.944 180.975 190.947 180.931C193.918 180.804 197.117 179.684 199.082 177.966C199.838 177.306 200.128 176.121 199.277 175.117L189.781 163.905C188.732 162.667 187.22 163.236 187.372 164.812Z" fill="#CCD39C"/>
<path d="M184.059 187.56C182.93 187.413 180.155 187.943 177.938 188.259C177.37 188.338 177.232 187.718 176.724 187.801C175.97 187.81 174.962 187.229 173.953 187.339C172.876 186.71 172.987 185.3 172.84 183.206C172.697 181.198 171.652 178.955 172.586 177.66C173.541 177.53 173.994 177.08 174.719 176.941C175.506 176.95 175.481 175.622 176.313 175.541C179.271 175.257 182.611 174.841 182.611 174.841C184.255 174.49 183.494 179.109 183.658 181.607C183.822 184.106 185.877 187.796 184.059 187.56Z" fill="#B6D3CE"/>
<path d="M178.242 187.987C178.142 188.214 177.933 188.323 177.57 188.276C177.314 188.242 176.988 188.23 176.613 188.235C175.859 188.243 174.903 188.32 173.894 188.43C171.839 188.657 169.565 189.027 168.348 189.263C166.235 189.673 166.532 186.493 166.351 183.923C166.169 181.354 163.17 176.274 166.813 176.602C168.3 176.735 170.126 176.585 171.768 176.361C172.723 176.231 173.616 176.075 174.341 175.936C175.415 175.728 176.122 175.558 176.122 175.558C176.42 175.494 176.64 175.594 176.8 175.815C177.52 176.813 177.035 180.279 177.169 182.324C177.3 184.323 178.641 187.084 178.242 187.987Z" fill="#DAEBE8"/>
<path d="M172.371 176.871C172.371 176.871 168.938 177.551 167.517 177.325C166.097 177.099 165.882 178.271 166.147 179.343C166.412 180.415 167.337 180 167.539 179.227C167.741 178.453 174.226 177.673 172.371 176.871Z" fill="#B6D3CE"/>
<path d="M198.781 190.029C198.121 189.561 196.199 188.97 194.701 188.431C194.317 188.292 194.437 187.856 194.09 187.739C193.613 187.493 193.172 186.793 192.501 186.526C192.034 185.772 192.573 184.923 193.177 183.558C193.756 182.247 193.846 180.489 194.864 179.986C195.507 180.222 195.943 180.09 196.445 180.244C196.936 180.512 197.363 179.668 197.913 179.894C199.867 180.7 202.105 181.551 202.105 181.551C203.255 181.878 201.239 184.528 200.511 186.153C199.782 187.778 199.846 190.782 198.781 190.029Z" fill="#B6D3CE"/>
<path d="M194.982 188.362C194.844 188.471 194.676 188.471 194.463 188.32C194.313 188.214 194.113 188.098 193.876 187.976C193.399 187.73 192.772 187.46 192.101 187.193C190.734 186.652 189.18 186.127 188.337 185.87C186.872 185.425 188.117 183.525 188.859 181.849C189.6 180.173 189.405 175.981 191.586 177.399C192.477 177.979 193.675 178.492 194.782 178.897C195.426 179.134 196.039 179.333 196.541 179.487C197.285 179.714 197.787 179.842 197.787 179.842C197.995 179.901 198.1 180.037 198.127 180.23C198.248 181.096 196.789 183.114 196.192 184.444C195.609 185.745 195.534 187.927 194.982 188.362Z" fill="#DAEBE8"/>
<path d="M194.991 179.419C194.991 179.419 192.607 178.704 191.789 178.089C190.971 177.474 190.446 178.139 190.256 178.902C190.065 179.664 190.785 179.711 191.17 179.292C191.554 178.873 195.891 180.541 194.991 179.419Z" fill="#B6D3CE"/>
<path d="M183.196 146.878C183.196 146.878 185.829 143.374 183.971 140.716C182.113 138.057 177.813 134.721 177.243 135.542C176.673 136.363 176.174 141.068 178.123 143.182C180.073 145.297 183.196 146.878 183.196 146.878Z" fill="#CCD39C"/>
<path d="M183.356 148.437C183.351 148.437 183.346 148.437 183.341 148.436C183.245 148.428 183.174 148.344 183.182 148.247C183.185 148.208 183.439 144.182 177.818 136.69C177.76 136.612 177.776 136.502 177.853 136.444C177.93 136.386 178.04 136.402 178.098 136.479C183.814 144.099 183.545 148.11 183.531 148.277C183.523 148.368 183.446 148.437 183.356 148.437Z" fill="#C2C68E"/>
<path d="M180.567 140.642C180.549 140.642 180.53 140.64 180.512 140.634L177.553 139.657C177.462 139.626 177.412 139.527 177.442 139.436C177.472 139.344 177.572 139.294 177.663 139.324L180.622 140.301C180.714 140.331 180.764 140.43 180.733 140.522C180.709 140.596 180.641 140.642 180.567 140.642Z" fill="#C2C68E"/>
<path d="M182.35 144.203C182.312 144.203 182.274 144.191 182.241 144.166C182.166 144.106 182.153 143.996 182.212 143.92C182.918 143.025 182.492 140.8 182.487 140.777C182.469 140.682 182.531 140.59 182.626 140.572C182.72 140.553 182.813 140.615 182.831 140.71C182.85 140.807 183.293 143.116 182.487 144.137C182.453 144.181 182.402 144.203 182.35 144.203Z" fill="#C2C68E"/>
<path d="M196.805 165.396C196.805 165.396 200.671 167.462 203.013 165.218C205.356 162.975 207.995 158.216 207.096 157.778C206.198 157.34 201.472 157.567 199.68 159.817C197.889 162.067 196.805 165.396 196.805 165.396Z" fill="#CCD39C"/>
<path d="M195.462 165.941C195.371 165.941 195.294 165.87 195.288 165.777C195.281 165.681 195.354 165.598 195.45 165.591C195.492 165.588 199.509 165.22 206.05 158.521C206.118 158.452 206.229 158.451 206.298 158.518C206.367 158.586 206.369 158.697 206.301 158.766C199.646 165.581 195.641 165.929 195.474 165.94C195.47 165.941 195.466 165.941 195.462 165.941Z" fill="#C2C68E"/>
<path d="M202.738 161.992C202.728 161.992 202.718 161.991 202.709 161.99C202.613 161.974 202.549 161.883 202.565 161.788L203.077 158.715C203.093 158.619 203.184 158.556 203.279 158.571C203.374 158.586 203.439 158.677 203.423 158.772L202.91 161.846C202.896 161.931 202.822 161.992 202.738 161.992Z" fill="#C2C68E"/>
<path d="M200.568 164.525C200.142 164.525 199.729 164.459 199.405 164.276C199.321 164.228 199.291 164.121 199.339 164.037C199.386 163.952 199.493 163.923 199.577 163.97C200.57 164.531 202.704 163.769 202.725 163.761C202.816 163.729 202.916 163.776 202.949 163.867C202.982 163.957 202.935 164.058 202.844 164.091C202.777 164.115 201.631 164.525 200.568 164.525Z" fill="#C2C68E"/>
<path d="M197.912 136.615C197.912 136.615 201.649 138.905 204.12 136.804C206.591 134.704 209.506 130.109 208.635 129.618C207.764 129.128 203.033 129.075 201.112 131.216C199.19 133.356 197.912 136.615 197.912 136.615Z" fill="#CCD39C"/>
<path d="M196.549 137.079C196.453 137.079 196.375 137.002 196.374 136.906C196.373 136.809 196.451 136.73 196.548 136.729C196.6 136.728 200.63 136.591 207.548 130.298C207.619 130.233 207.73 130.239 207.795 130.31C207.86 130.382 207.855 130.493 207.783 130.558C200.737 136.967 196.719 137.078 196.551 137.079C196.55 137.079 196.55 137.079 196.549 137.079Z" fill="#C2C68E"/>
<path d="M204.045 133.568C204.033 133.568 204.019 133.566 204.006 133.563C203.912 133.542 203.853 133.448 203.875 133.354L204.568 130.316C204.589 130.222 204.683 130.162 204.777 130.184C204.872 130.206 204.931 130.3 204.909 130.394L204.216 133.432C204.198 133.513 204.125 133.568 204.045 133.568Z" fill="#C2C68E"/>
<path d="M201.989 135.975C201.47 135.975 200.952 135.895 200.573 135.65C200.492 135.598 200.469 135.489 200.521 135.408C200.574 135.327 200.682 135.304 200.763 135.356C201.721 135.974 203.896 135.34 203.918 135.333C204.011 135.306 204.108 135.359 204.136 135.452C204.163 135.544 204.11 135.642 204.017 135.669C203.955 135.688 202.969 135.975 201.989 135.975Z" fill="#C2C68E"/>
<path d="M188.018 151.714C188.018 151.714 188.122 145.9 192.235 144.635C196.348 143.37 203.568 143.386 203.496 144.71C203.423 146.034 200.106 151.364 196.341 151.986C192.576 152.609 188.018 151.714 188.018 151.714Z" fill="#ACC9C5"/>
<path d="M186.646 153.25C186.629 153.244 186.611 153.236 186.595 153.225C186.488 153.155 186.458 153.012 186.528 152.904C186.649 152.718 189.639 148.302 201.836 144.993C201.96 144.96 202.088 145.033 202.121 145.157C202.155 145.281 202.082 145.408 201.958 145.442C189.965 148.695 186.946 153.114 186.917 153.158C186.857 153.249 186.744 153.285 186.646 153.25Z" fill="#92BCB5"/>
<path d="M199.815 148.764C199.814 148.764 199.814 148.764 199.813 148.763L195.921 147.371C195.8 147.328 195.737 147.195 195.78 147.074C195.823 146.954 195.956 146.891 196.076 146.933C196.076 146.933 196.077 146.933 196.078 146.934L199.97 148.326C200.091 148.369 200.154 148.502 200.11 148.623C200.068 148.743 199.935 148.806 199.815 148.764Z" fill="#92BCB5"/>
<path d="M191.152 149.643C191.062 149.611 190.997 149.526 190.996 149.425C190.986 147.7 193.332 145.645 193.432 145.559C193.529 145.475 193.676 145.485 193.76 145.582C193.844 145.679 193.834 145.826 193.737 145.91C193.714 145.93 191.452 147.91 191.461 149.422C191.462 149.551 191.358 149.655 191.23 149.656C191.202 149.656 191.176 149.651 191.152 149.643Z" fill="#92BCB5"/>
<path d="M131.967 70.4202C131.967 70.4202 129.041 69.8781 128.209 68.621C127.524 67.5845 127.724 65.4668 129.427 64.3696C130.299 63.8079 132.673 63.7988 133.226 63.7477C134.795 63.6022 136.305 67.0357 136.305 67.0357L131.967 70.4202Z" fill="#FFB27D"/>
<path d="M159.509 74.0387L156.172 68.6477L157.841 71.3432L156.175 68.6456C153.978 69.9984 147.326 73.3166 142.991 72.4378C139.617 71.7538 136.835 67.7471 136.126 66.3975L130.512 69.3444C130.618 69.5458 131.596 71.3704 133.354 73.3726C135.855 76.2223 138.752 78.0478 141.731 78.6518C145.061 79.3269 149.098 78.7331 153.73 76.8866C157.002 75.5824 159.409 74.1011 159.509 74.0387Z" fill="#FFB27D"/>
<path d="M141.84 123.804C141.84 123.804 141.347 127.022 140.034 128.662C139.169 129.744 136.782 131.885 138.479 132.599C139.835 133.169 142.446 130.631 143.293 130C144.14 129.369 145.418 128.174 145.135 127.156C144.548 125.048 144.741 122.396 144.741 122.396L141.84 123.804Z" fill="#331832"/>
<path d="M148.395 121.309C148.395 121.309 149.051 124.498 148.39 126.492C147.955 127.807 146.462 130.644 148.301 130.723C149.77 130.786 151.336 127.5 151.911 126.613C152.486 125.727 153.269 124.163 152.649 123.307C151.366 121.533 150.625 118.98 150.625 118.98L148.395 121.309Z" fill="#331832"/>
<path d="M147.475 123.562C129.877 111.824 130.747 101.541 133.185 97.5194C136.018 92.849 140.502 89.1561 147.375 87.5087C149.207 87.0695 150.951 86.8154 152.408 86.6693C154.519 86.4577 156.337 88.1431 156.281 90.2633L156.123 96.2521L156.136 96.2524C153.2 96.191 144.293 97.0861 141.959 101.833C141.473 102.82 153.319 116.732 152.877 119.229C152.377 122.053 149.196 124.71 147.475 123.562Z" fill="#366F90"/>
<path d="M140.652 125.321C138.628 125.331 137.014 123.631 137.133 121.611C137.399 117.119 138.233 109.475 140.849 103.7C142.332 100.425 144.69 97.4464 147.858 94.8483C150.247 92.8892 153.105 91.1384 156.355 89.6442C161.759 87.1592 165.652 87.5057 165.652 87.5057L171.17 92.2131C171.131 92.2211 172.082 98.8061 165.217 102.635C158.186 106.556 152.819 103.641 149.969 109.217C147.935 113.198 147.158 118.476 146.9 122.164C146.776 123.929 145.311 125.297 143.542 125.306L140.652 125.321Z" fill="#366F90"/>
<path d="M137.802 115.416L137.693 115.408C137.696 115.368 137.976 111.349 139.219 106.803C140.367 102.604 142.594 97.0829 146.689 94.6328L146.744 94.7259C142.681 97.1576 140.466 102.651 139.324 106.832C138.084 111.367 137.804 115.376 137.802 115.416Z" fill="#020202"/>
<path d="M146.771 123.05L146.662 123.049C146.706 116.795 148.752 111.967 148.773 111.919L148.873 111.962C148.852 112.01 146.815 116.819 146.771 123.05Z" fill="#020202"/>
<path d="M168.684 70.9688C168.684 70.9688 166.836 66.0645 159.972 66.4328C153.109 66.8012 148.371 68.3539 147.375 87.509C147.375 87.509 153.151 93.2191 167.433 94.09C169.545 94.2187 172.103 94.9469 172.219 92.8342C172.452 88.6266 171.586 80.5908 168.684 70.9688Z" fill="#92A5E6"/>
<path d="M173.57 72.615L168.683 73.7189C168.683 73.7189 156.197 75.1805 152.868 74.6468C149.539 74.1131 148.588 71.4811 148.588 71.4811C148.588 71.4811 152.064 67.442 158.058 66.2714C158.621 66.1607 159.205 66.0762 159.812 66.0222C160.83 65.9323 161.809 65.8391 162.808 65.9438C172.573 66.9676 173.57 72.615 173.57 72.615Z" fill="#92A5E6"/>
<path d="M161.049 65.0973L160.016 63.2743L159.715 62.7436L157.946 59.623L158.538 62.9825L158.893 64.9989L159.006 65.6373C159.082 66.0706 158.84 66.2181 158.603 66.6609C158.507 66.8403 157.882 67.9377 158.909 68.1468C160.19 68.4074 162.202 67.1487 162.808 65.9439C162.802 65.9439 161.383 65.6864 161.049 65.0973Z" fill="#FFB27D"/>
<path d="M155.002 58.9492C155.002 58.9492 154.968 59.8057 155.402 60.7753C155.835 61.745 156.322 59.0219 156.322 59.0219L155.002 58.9492Z" fill="#5C305D"/>
<path d="M158.688 64.4908C160.364 64.3483 161.583 62.5949 161.412 60.5743C161.24 58.5538 159.742 57.0313 158.067 57.1737C156.391 57.3162 155.172 59.0696 155.343 61.0902C155.515 63.1107 157.013 64.6332 158.688 64.4908Z" fill="#FFB27D"/>
<path d="M161.261 59.5365L159.788 59.702C159.465 59.7384 159.138 59.6317 158.908 59.401C158.512 59.0037 158.105 58.8443 156.773 59.1885C155.086 59.6243 153.741 58.856 153.363 58.0062C152.977 57.139 153.712 56.3329 154.661 56.5792C155.61 56.8254 155.011 55.8435 155.808 55.5511C157.297 55.0047 157.843 56.1251 159.092 55.8118C160.729 55.4009 163.955 56.0076 163.189 59.2147L161.261 59.5365Z" fill="#331832"/>
<path d="M163.189 59.2149C163.189 59.2149 162.664 61.5782 161.288 62.044C161.288 62.044 162.071 60.1594 159.45 59.6882C159.45 59.6882 161.58 58.8585 163.189 59.2149Z" fill="#5C305D"/>
<path d="M161.46 60.8332C161.201 61.0911 160.803 61.112 160.573 60.8801C160.343 60.648 160.366 60.251 160.626 59.9931C160.885 59.7352 161.283 59.7144 161.513 59.9463C161.743 60.1783 161.72 60.5755 161.46 60.8332Z" fill="#FFB27D"/>
<path d="M159.45 59.6878C159.45 59.6878 160.036 61.4465 159.744 61.867C159.452 62.2875 157.064 62.9633 155.839 62.7739C156.073 63.9345 157.112 64.7773 158.294 64.7194C158.685 64.7002 159.076 64.6153 159.449 64.4627C160.209 64.1516 160.906 63.6564 161.072 62.8517C161.122 62.6068 160.533 61.2969 160.533 61.2969C160.533 61.2969 160.249 60.5148 160.626 59.9931C160.626 59.9931 159.978 59.6252 159.45 59.6878Z" fill="#5C305D"/>
<path d="M156.577 63.293C156.577 63.293 157.559 63.3412 158.551 63.0215C158.551 63.0215 158.607 63.9922 157.541 64.0295C156.921 64.0511 156.577 63.293 156.577 63.293Z" fill="white"/>
<path d="M154.788 56.4027L154.773 56.321C155.167 56.2475 155.134 55.9261 155.132 55.9125L155.215 55.9023C155.215 55.9064 155.261 56.3145 154.788 56.4027Z" fill="#331832"/>
<path d="M156.186 58.8174C156.181 58.817 155.689 58.7824 155.168 58.6329C154.473 58.4339 154.043 58.1219 153.924 57.7306C153.841 57.4582 153.849 57.2615 153.949 57.1294C154.107 56.9189 154.462 56.9234 154.774 56.9281C154.82 56.9288 154.866 56.9296 154.909 56.9293L154.909 56.9708C154.866 56.9714 154.82 56.9703 154.774 56.9696C154.471 56.9656 154.128 56.9606 153.982 57.1542C153.891 57.275 153.885 57.4594 153.964 57.7183C154.243 58.6337 156.17 58.7743 156.189 58.7756L156.186 58.8174Z" fill="white"/>
<path d="M158.576 56.2331C158.264 56.2331 158.003 56.1892 157.798 56.1354C157.315 56.008 157.05 55.805 157.039 55.7965L157.065 55.7637C157.067 55.7658 157.335 55.9707 157.811 56.0958C158.251 56.2111 158.962 56.2801 159.858 55.9532L159.872 55.9922C159.381 56.1717 158.944 56.2331 158.576 56.2331Z" fill="white"/>
<path d="M136.401 66.8782L135.457 66.7428C135.086 66.9714 134.602 66.8659 134.382 66.5082C134.382 66.5082 133.398 64.1174 132.352 62.7931C130.977 61.0527 132.493 60.9422 133.606 61.9595C136.616 64.7101 136.157 65.7389 136.401 66.8782Z" fill="#FFB27D"/>
<path d="M154.033 94.3584C154.033 94.3584 150.107 94.5122 148.646 96.2884C147.185 98.0647 146.661 101.438 147.801 100.53C148.94 99.6211 150.075 98.0577 150.075 98.0577C150.075 98.0577 147.807 101.512 148.844 101.692C149.882 101.873 151.826 98.8502 151.826 98.8502C151.826 98.8502 149.454 103.175 150.489 103.029C151.525 102.882 153.304 99.5836 153.304 99.5836C153.304 99.5836 151.257 103.696 152.456 103.497C153.655 103.299 154.125 100.088 155.163 100.269C156.2 100.449 160.383 100.816 161.237 97.9936L154.033 94.3584Z" fill="#FFB27D"/>
<path d="M150.153 98.093L149.999 98.022C150.02 97.9762 150.524 96.9007 151.27 96.7773L151.298 96.9449C150.64 97.0535 150.158 98.0826 150.153 98.093Z" fill="#E9845C"/>
<path d="M151.904 98.8838L151.748 98.8156C151.768 98.7711 152.238 97.7207 153.239 97.3418L153.299 97.5005C152.367 97.8538 151.908 98.8735 151.904 98.8838Z" fill="#E9845C"/>
<path d="M153.381 99.6189L153.227 99.5481C153.251 99.4939 153.845 98.2214 154.652 98.1572L154.666 98.3264C153.957 98.3829 153.386 99.6066 153.381 99.6189Z" fill="#E9845C"/>
<path d="M164.558 73.8626C164.647 74.5001 166.735 74.7376 169.224 74.3931C171.712 74.0486 173.658 73.2526 173.57 72.6151C173.481 71.9777 171.393 71.7403 168.904 72.0848C166.416 72.4293 164.47 73.2253 164.558 73.8626Z" fill="#331832"/>
<path d="M161.237 97.994C168.616 93.8924 171.444 88.3336 172.473 83.6352C173.805 77.555 172.595 73.2209 172.535 73.0032C172.535 73.0032 172.024 72.3725 168.882 72.9458C166.082 73.4567 165.921 74.119 165.921 74.119C165.932 74.159 167.101 77.929 166.045 82.4604C164.696 88.2474 160.866 92.0984 154.033 94.359C154.033 94.359 159.636 98.8835 161.237 97.994Z" fill="#FFB27D"/>
<path d="M164.558 73.9032C164.54 73.9032 164.523 73.8904 164.518 73.8714C164.513 73.8509 164.037 71.8052 164.283 70.3264C164.287 70.3039 164.308 70.289 164.331 70.2925C164.353 70.2963 164.368 70.3175 164.365 70.3401C164.121 71.8023 164.594 73.8322 164.599 73.8526C164.604 73.8748 164.59 73.8971 164.568 73.9023C164.565 73.9029 164.561 73.9032 164.558 73.9032Z" fill="#331832"/>
<path d="M168.974 88.8663C168.908 88.8663 168.847 88.8507 168.792 88.8194C168.487 88.6434 168.528 88.0222 168.884 87.4051C169.048 87.1205 169.255 86.8811 169.465 86.7315C169.695 86.5685 169.907 86.5283 170.063 86.6182C170.219 86.7082 170.29 86.912 170.264 87.1923C170.239 87.4494 170.135 87.7479 169.971 88.0325C169.807 88.3172 169.6 88.5564 169.39 88.706C169.24 88.8122 169.098 88.8663 168.974 88.8663ZM169.031 87.4899C168.707 88.0519 168.689 88.564 168.877 88.6723C168.971 88.7264 169.122 88.6882 169.291 88.5675C169.482 88.4317 169.671 88.2114 169.824 87.9474C169.976 87.6834 170.072 87.4095 170.094 87.176C170.114 86.9689 170.072 86.819 169.978 86.765C169.884 86.7109 169.733 86.7491 169.564 86.8698C169.373 87.0057 169.184 87.226 169.031 87.4899Z" fill="#E9845C"/>
<path d="M141.163 51.5956C140.343 50.9631 139.695 50.1963 139.262 49.3269C138.264 47.3185 135.826 43.8095 131.475 45.4016C125.517 47.5816 130.827 52.5094 128.821 56.214C126.815 59.9185 124.368 70.5462 137.346 67.8352C149.68 65.2587 149.437 57.9729 141.163 51.5956Z" fill="#92BCB5"/>
<path d="M132.59 47.6629C132.47 47.6629 132.365 47.5741 132.349 47.4517C131.966 44.6191 127.891 43.4061 127.85 43.3943C127.721 43.3567 127.647 43.2216 127.684 43.0922C127.721 42.9629 127.857 42.8879 127.986 42.9259C128.031 42.9388 129.097 43.2521 130.229 43.9484C131.755 44.8867 132.655 46.0756 132.832 47.3865C132.85 47.5199 132.756 47.6428 132.623 47.6608C132.612 47.6622 132.601 47.6629 132.59 47.6629Z" fill="#331832"/>
<path d="M131.93 47.8112C131.238 47.8112 130.75 47.568 130.741 47.5633C130.688 47.536 130.667 47.4708 130.694 47.4176C130.721 47.3645 130.786 47.3435 130.839 47.3705C130.909 47.4058 132.553 48.2173 134.054 46.5944C134.094 46.5504 134.163 46.5477 134.207 46.5884C134.25 46.629 134.253 46.6974 134.213 46.7414C133.426 47.592 132.587 47.8112 131.93 47.8112Z" fill="#331832"/>
<path d="M130.726 42.7527C130.726 42.7527 129.4 41.9677 130.031 40.5866C130.661 39.2054 131.376 39.798 132.105 38.8372C132.834 37.8764 133.857 37.5649 133.996 37.9924C134.135 38.4198 134.229 39.1784 134.34 40.4188C134.45 41.6593 133.436 44.125 130.726 42.7527Z" fill="#CCD39C"/>
<path d="M130.345 44.2742C130.339 44.2742 130.333 44.2736 130.327 44.2727C130.268 44.2631 130.228 44.2075 130.238 44.1484C130.584 42.0183 132.848 39.5223 132.944 39.417C132.985 39.3728 133.053 39.3699 133.097 39.4102C133.142 39.4507 133.145 39.5192 133.104 39.5632C133.081 39.5885 130.788 42.1173 130.452 44.1834C130.443 44.2365 130.397 44.2742 130.345 44.2742Z" fill="#331832"/>
<path d="M134.817 65.9877C134.817 65.9877 130.018 66.8429 129.464 64.6898C128.909 62.5366 130.313 61.5712 131.905 61.8316C133.497 62.092 137.571 65.1719 134.817 65.9877Z" fill="#B6D3CE"/>
<path d="M127.196 67.3223C127.196 67.3223 127.435 69.0603 129.02 68.8311C131.039 68.5391 134.904 65.2824 129.817 66.4746C129.69 66.5043 132.986 65.4089 132.378 64.6995C131.77 63.99 128.965 65.1037 128.965 65.1037C128.965 65.1037 132.355 63.6628 131.564 63.1785C130.773 62.6942 128.51 63.3632 128.51 63.3632C128.51 63.3632 131.415 62.2883 130.483 61.7473C129.551 61.2063 127.8 62.454 126.938 62.8131C126.122 63.1525 126.077 63.7877 126.461 64.5505C126.461 64.5505 126.402 65.5319 126.778 65.9669C126.923 66.1337 126.819 66.4023 126.861 66.5518C126.942 66.8379 127.196 67.3223 127.196 67.3223Z" fill="#FFB27D"/>
<path d="M128.741 68.9538C128.626 68.9538 128.507 68.9483 128.384 68.9366L128.4 68.7675C130.013 68.9212 130.981 67.9145 130.99 67.9043L131.114 68.0206C131.075 68.0616 130.217 68.9538 128.741 68.9538Z" fill="#E9845C"/>
<path d="M81.0959 142.908C81.0959 142.908 77.5765 141.598 76.5911 142.216C75.6056 142.834 73.4794 145.142 73.3174 143.604C73.2245 142.721 75.3485 140.372 75.8609 139.647C76.3734 138.922 76.5386 138.018 77.4046 137.823C78.3573 137.607 82.4404 141.255 82.4404 141.255C82.4404 141.255 82.0508 141.627 81.6677 142.2C81.1157 143.026 81.0959 142.908 81.0959 142.908Z" fill="#331832"/>
<path d="M106.59 159.673C103.93 159.674 97.9797 156.737 92.4102 153.196C87.4157 150.021 82.7303 146.36 81.0057 143.898C80.1479 142.674 82.1125 140.666 83.0457 140.243C85.6752 139.05 89.8246 142.157 95.0438 144.292C99.5543 146.139 103.304 148.065 103.304 148.065L106.59 159.673Z" fill="#331832"/>
<path d="M106.59 159.672C103.93 159.674 97.9796 156.736 92.4102 153.196L95.0436 144.292C99.5541 146.138 103.304 148.064 103.304 148.064L106.59 159.672Z" fill="#764678"/>
<path d="M71.8806 149.489C71.8806 149.489 68.2051 148.719 67.323 149.477C66.4408 150.236 64.6827 152.835 64.2931 151.338C64.0695 150.479 65.8192 147.839 66.2177 147.046C66.6163 146.253 66.6447 145.334 67.4718 145.012C68.3817 144.657 72.9633 147.654 72.9633 147.654C72.9633 147.654 72.6337 148.08 72.3404 148.704C71.9177 149.603 71.8806 149.489 71.8806 149.489Z" fill="#331832"/>
<path d="M72.4222 146.614C70.979 147.125 69.6781 149.25 70.4466 150.32C73.5744 154.677 87.9133 161.806 92.8588 161.058L93.5809 151.098C93.5809 151.098 75.113 145.662 72.4222 146.614Z" fill="#764678"/>
<path d="M104.429 83.5032C104.704 83.4736 104.905 83.2244 104.875 82.9498L104.415 78.6849C104.386 78.4101 104.136 78.2096 103.862 78.2392C103.587 78.2688 103.386 78.518 103.416 78.7927L103.876 83.0575C103.906 83.3322 104.155 83.5328 104.429 83.5032Z" fill="#FFB27D"/>
<path d="M103.151 83.6408C103.426 83.6112 103.626 83.362 103.596 83.0873L103.082 78.3177C103.052 78.043 102.803 77.8424 102.528 77.872C102.254 77.9016 102.053 78.1508 102.083 78.4255L102.597 83.1951C102.627 83.4699 102.876 83.6705 103.151 83.6408Z" fill="#FFB27D"/>
<path d="M103.112 86.1226L103.164 86.0712C103.422 85.8158 103.425 85.3957 103.17 85.1373L100.956 82.8975C100.7 82.6392 100.28 82.6367 100.022 82.892L99.9697 82.9434C99.7115 83.1986 99.709 83.6189 99.9643 83.8773L102.178 86.1173C102.434 86.3755 102.854 86.378 103.112 86.1226Z" fill="#FFB27D"/>
<path d="M101.872 83.7785C102.147 83.7488 102.347 83.4997 102.318 83.225L101.905 79.4017C101.875 79.1269 101.626 78.9264 101.352 78.956C101.077 78.9856 100.876 79.2348 100.906 79.5095L101.318 83.3326C101.348 83.6076 101.597 83.8081 101.872 83.7785Z" fill="#FFB27D"/>
<path d="M105.559 85.8386C105.559 85.8386 106.74 83.2207 105.793 81.4132C105.466 80.7877 101.712 81.2973 101.443 82.0414C101.175 82.7855 101.705 85.3406 101.705 85.3406L105.559 85.8386Z" fill="#FFB27D"/>
<path d="M105.7 83.37C105.974 83.3404 106.174 83.0919 106.145 82.8177L105.733 79.0024C105.703 78.7282 105.455 78.528 105.181 78.5576C104.907 78.5872 104.706 78.8357 104.736 79.1099L105.148 82.9252C105.177 83.1995 105.426 83.3996 105.7 83.37Z" fill="#FFB27D"/>
<path d="M80.994 113.755C80.994 113.755 81.1903 109.457 89.3347 107.274C95.6074 105.592 100.835 106.4 103.483 111.442C105.793 115.841 106.537 119.879 107.883 131.119C107.883 131.119 89.7963 131.264 85.0603 135.987C85.0603 135.987 85.2899 126.055 81.3471 116.398C80.9472 115.418 80.9017 114.606 80.994 113.755Z" fill="#EF8062"/>
<path d="M69.2612 95.8154C72.0701 101.222 84.5631 108.044 88.0191 107.552C88.7625 107.446 81.9463 117.814 81.7579 117.458C80.8143 115.678 80.0899 114.958 78.572 113.813C73.6031 110.067 66.8361 105.062 64.8555 99.6753L69.2612 95.8154Z" fill="#EF8062"/>
<path d="M90.7661 106.669C90.7661 106.669 102.063 99.6188 101.367 86.7325C101.325 85.9481 101.962 85.2951 102.748 85.319L105.225 85.394C105.677 85.4077 106.061 85.7284 106.152 86.171C106.642 88.5293 107.736 96.2561 104.104 107.077C103.731 108.188 102.905 109.953 104.284 113.083L90.7661 106.669Z" fill="#EF8062"/>
<path d="M85.0602 135.986C85.274 137.087 90.5127 136.708 96.8529 135.439C103.193 134.17 108.097 132.219 107.883 131.119C107.669 130.018 102.052 129.118 95.7113 130.387C89.3711 131.657 84.8465 134.886 85.0602 135.986Z" fill="#331832"/>
<path d="M99.3263 152.874C101.122 146.906 96.4121 140.413 96.4718 136.402C96.4718 136.402 96.3718 132.625 98.0649 132.418C103.615 131.739 107.656 131.656 107.656 131.656C107.778 131.813 115.115 143.544 110.165 157.038C107.526 164.229 98.8037 154.609 99.3263 152.874Z" fill="#764678"/>
<path d="M86.7189 152.36C90.0319 147.082 85.1838 140.425 86.304 136.573C86.304 136.573 88.0972 134.287 94.8012 132.583C103.627 130.34 107.655 131.656 107.655 131.656C107.726 131.826 104.84 145.118 97.8283 156.373C97.2497 157.301 96.7029 158.356 96.0666 159.247C91.6179 165.483 85.7554 153.896 86.7189 152.36Z" fill="#764678"/>
<path d="M97.8282 156.443C97.8165 156.443 97.8045 156.44 97.7935 156.433C97.7595 156.414 97.7475 156.371 97.7668 156.337C97.8077 156.265 101.859 148.976 101.991 137.812C101.991 137.773 102.021 137.742 102.062 137.742C102.101 137.743 102.132 137.775 102.132 137.814C102.063 143.667 100.914 148.409 99.9623 151.357C98.9304 154.552 97.9004 156.388 97.8901 156.407C97.8769 156.43 97.8529 156.443 97.8282 156.443Z" fill="#331832"/>
<path d="M92.6637 107.124C91.7234 108.107 89.2528 108.224 88.019 107.552C88.0249 107.548 89.0856 106.486 89.0225 105.783L88.883 104.241L88.8743 104.137L88.8259 103.609L88.7687 102.977L88.4298 99.2549L89.9174 102.482L90.384 103.495L90.8109 104.419L90.8447 104.492L91.0926 105.032C91.2847 105.449 91.6428 105.871 92.1078 106.11C92.2969 106.207 93.4206 106.335 92.6637 107.124Z" fill="#FFB27D"/>
<path d="M90.8445 104.492C89.9335 104.784 89.1544 104.402 88.883 104.241L88.8743 104.137L90.3838 103.494L90.8107 104.418L90.8445 104.492Z" fill="#331832"/>
<path d="M90.5505 96.9316C90.5505 96.9316 91.0882 97.6445 91.2924 98.7319C91.4967 99.8193 89.4636 97.7774 89.4636 97.7774L90.5505 96.9316Z" fill="#5C305D"/>
<path d="M90.6848 103.867C92.2038 102.995 92.5823 100.803 91.5301 98.971C90.4779 97.1394 88.3936 96.362 86.8746 97.2345C85.3556 98.1071 84.9772 100.299 86.0294 102.131C87.0815 103.962 89.1659 104.74 90.6848 103.867Z" fill="#FFB27D"/>
<path d="M85.5412 101.148L86.9001 100.416C87.1989 100.255 87.4153 99.9699 87.4752 99.6358C87.5784 99.0607 87.8322 98.6827 89.1769 98.1867C90.8795 97.5587 91.5749 96.1027 91.3944 95.1507C91.2102 94.179 90.102 93.9255 89.4358 94.6997C88.7695 95.4737 88.6995 94.2776 87.8438 94.5002C86.2448 94.9162 86.442 96.1997 85.1874 96.6724C83.5422 97.2922 81.1408 99.726 83.6995 102.017L85.5412 101.148Z" fill="#331832"/>
<path d="M83.6997 102.017C83.6997 102.017 85.5516 103.729 87.0058 103.311C87.0058 103.311 85.2173 102.162 87.1818 100.203C87.1818 100.203 84.8654 100.757 83.6997 102.017Z" fill="#5C305D"/>
<path d="M86.1406 102.377C86.5159 102.443 86.8684 102.226 86.9279 101.89C86.9875 101.555 86.7315 101.229 86.3562 101.162C85.981 101.096 85.6284 101.314 85.5689 101.649C85.5093 101.984 85.7654 102.31 86.1406 102.377Z" fill="#FFB27D"/>
<path d="M91.3862 101.585C91.3862 101.585 90.5739 102.209 89.5352 102.524C89.5352 102.524 90.0629 103.388 90.9977 102.788C91.5414 102.438 91.3862 101.585 91.3862 101.585Z" fill="white"/>
<path d="M88.9636 94.6849C88.6877 94.6849 88.5617 94.4514 88.5603 94.4484L88.6369 94.4082C88.6437 94.4207 88.8057 94.7156 89.1869 94.5448L89.2223 94.6238C89.1247 94.6675 89.0386 94.6849 88.9636 94.6849Z" fill="#331832"/>
<path d="M89.4583 97.5214L89.4313 97.4875C89.4471 97.4748 91.0132 96.2108 90.7086 95.2617C90.6225 94.9934 90.508 94.8389 90.3585 94.7893C90.1195 94.7099 89.8281 94.9177 89.5712 95.1011C89.5318 95.1292 89.4932 95.1567 89.4558 95.1826L89.4312 95.147C89.4683 95.1214 89.5067 95.094 89.5459 95.0658C89.8111 94.8766 90.1112 94.6618 90.372 94.7482C90.5354 94.8024 90.6589 94.9661 90.7496 95.2484C90.8798 95.6542 90.6969 96.1764 90.2207 96.7588C89.8635 97.1961 89.4623 97.5181 89.4583 97.5214Z" fill="white"/>
<path d="M68.0307 98.9454C66.6108 100.529 65.3414 100.284 64.8553 99.6747C64.3692 99.0657 65.0028 97.7518 66.2704 96.74C67.5379 95.7283 68.775 95.2057 69.261 95.8147C69.7471 96.4237 69.1135 97.7379 68.0307 98.9454Z" fill="#331832"/>
<path d="M69.1004 93.0205L68.9159 92.9732C68.5713 92.8846 68.2169 93.0941 68.1284 93.4388L67.9808 94.0131L66.4609 90.6153C66.3293 90.3211 65.9578 90.0803 65.6354 90.0803C65.36 90.0803 65.1761 90.364 65.2885 90.6153L66.3096 92.8979C66.2133 92.9141 66.1128 92.9346 66.0087 92.9591L64.6883 90.0074C64.5744 89.7526 64.2872 89.6068 64.0223 89.6946C63.7182 89.7953 63.5736 90.1362 63.7011 90.4214L64.9807 93.2818C64.8875 93.3177 64.7947 93.3554 64.7026 93.394L63.6588 91.0604C63.5449 90.8056 63.2577 90.6598 62.9928 90.7476C62.6887 90.8483 62.5441 91.1892 62.6716 91.4744L63.7418 93.8667C63.6534 93.9183 63.5704 93.9701 63.4922 94.0219L62.6044 92.0373C62.4846 91.7693 62.1671 91.648 61.8989 91.768C61.6309 91.8878 61.5096 92.2053 61.6296 92.4734L63.0577 95.666C63.4795 96.8744 64.4946 97.8676 65.0601 98.3509C65.3335 98.5846 65.7038 98.6637 66.0505 98.5677C66.6741 98.395 67.6898 97.9253 68.6017 96.6482C68.7177 96.4858 68.8055 96.3042 68.8636 96.1134L69.5661 93.8084C69.6545 93.4635 69.445 93.1091 69.1004 93.0205Z" fill="#FFB27D"/>
<path d="M240.003 198.966C240.003 198.966 235.908 194.792 237.317 192.414C238.726 190.036 241.104 197.522 241.104 197.522C241.104 197.522 239.871 188.67 242.425 188.517C244.979 188.363 242.425 197.522 242.425 197.522C242.425 197.522 243.372 195.386 244.296 195.254C245.221 195.122 244.957 197.065 243.305 198.966H240.003Z" fill="#B8D5DC"/>
<path d="M240.296 199.072C240.285 199.06 239.113 197.859 238.154 196.342C236.846 194.272 236.534 192.629 237.228 191.458C237.487 191.021 237.799 190.821 238.152 190.861C239.354 190.998 240.671 194.13 241.35 195.989C241.279 195.245 241.204 194.266 241.176 193.236C241.097 190.311 241.42 188.385 242.137 187.51C242.414 187.171 242.752 186.988 243.141 186.965C243.521 186.941 243.832 187.078 244.067 187.369C245.214 188.788 244.178 193.804 243.608 196.151C244.033 195.463 244.636 194.696 245.252 194.608C245.543 194.566 245.775 194.675 245.905 194.914C246.277 195.596 245.764 197.336 244.262 199.065L244.036 198.869C245.512 197.168 245.917 195.563 245.642 195.057C245.572 194.929 245.461 194.88 245.294 194.904C244.501 195.018 243.576 196.736 243.287 197.389L243.006 197.288C243.011 197.268 243.571 195.25 243.947 193.041C244.438 190.152 244.399 188.256 243.834 187.557C243.661 187.343 243.44 187.247 243.159 187.263C242.852 187.282 242.594 187.424 242.369 187.699C240.758 189.666 241.79 197.231 241.8 197.307L241.509 197.373C240.974 195.691 239.324 191.296 238.118 191.158C237.889 191.132 237.682 191.28 237.485 191.611C235.964 194.179 240.464 198.815 240.51 198.862L240.296 199.072Z" fill="#444092"/>
<path d="M211.055 92.4504C211.055 92.4504 200.162 79.1007 194.092 80.3636C188.023 81.6264 199.204 89.1049 201.022 94.3146C202.84 99.5243 213.842 97.2596 211.055 92.4504Z" fill="#DAEBE8"/>
</svg>
